<?xml version="1.0" encoding="utf-8"?>
<!-- Generator: Adobe Illustrator 16.0.0, SVG Export Plug-In . SVG Version: 6.00 Build 0)  -->
<!DOCTYPE svg PUBLIC "-//W3C//DTD SVG 1.1//EN" "http://www.w3.org/Graphics/SVG/1.1/DTD/svg11.dtd">
<svg version="1.1" id="Layer_1" xmlns="http://www.w3.org/2000/svg" xmlns:xlink="http://www.w3.org/1999/xlink" x="0px" y="0px"
	 width="62.665px" height="66.144px" viewBox="0 0 62.665 66.144" enable-background="new 0 0 62.665 66.144" xml:space="preserve">
<path fill="#3C3C3B" d="M61.585,15.009C57.288,3.796,42,2.944,36.953,13.073C33.975,5.139,27.129-2.08,17.852,0.551
	c-7.974,2.262-9.703,11.022-5.449,16.847C4.633,16.732-3.09,23.854,1.255,32.099c2.579,4.894,8.763,7.134,13.371,5.81
	c-0.56,7.26-0.938,14.943-0.292,22.137c0.024,0.27,0.145,0.459,0.304,0.582c7.53,8.623,24.781,5.74,33.623,0.799
	c0.422,0.492,1.434,0.262,1.401-0.512c-0.34-8.148-1.841-16.84-3.623-24.842C56.386,35.425,65.94,26.37,61.585,15.009z
	 M15.839,60.173c0.011-0.043,0.031-0.078,0.036-0.127c0.167-1.594,0.276-3.215,0.353-4.848c0.347,0.254,0.722,0.477,1.092,0.705
	c-0.278,1.693,0.016,3.705,0.224,5.436C16.956,60.987,16.386,60.599,15.839,60.173z M18.244,61.729
	c0.009-0.033,0.02-0.063,0.021-0.104c0.03-1.646,0.147-3.613-0.19-5.273c0.63,0.344,1.295,0.643,1.976,0.92
	c-0.324,1.682,0.058,3.785,0.563,5.49C19.8,62.466,19.002,62.136,18.244,61.729z M21.314,63.011
	c-0.179-1.053-0.363-2.104-0.443-3.17c-0.058-0.764-0.025-1.539-0.11-2.299c0.835,0.305,1.706,0.551,2.594,0.764
	c-0.159,1.695-0.014,3.535,0.139,5.268C22.754,63.417,22.024,63.239,21.314,63.011z M24.247,63.724
	c0.079-1.711,0.161-3.543-0.043-5.223c0.78,0.158,1.579,0.273,2.385,0.365c-0.131,1.682,0.062,3.479,0.204,5.17
	C25.933,63.97,25.082,63.872,24.247,63.724z M27.537,64.087c0.032-1.682,0.108-3.473-0.117-5.133
	c0.945,0.08,1.901,0.111,2.859,0.104c0.131,1.674,0.291,3.354,0.447,5.025C29.657,64.134,28.59,64.142,27.537,64.087z M31.31,64.054
	c0.162-1.652,0.063-3.395-0.329-5.01c1.157-0.035,2.31-0.15,3.451-0.309c-0.045,1.613,0.143,3.311,0.388,4.918
	C33.654,63.833,32.481,63.978,31.31,64.054z M35.579,63.54c0.013-1.623-0.05-3.324-0.322-4.914c0.823-0.135,1.632-0.313,2.431-0.51
	c0.104,1.592,0.516,3.277,0.763,4.73c0.007,0.035,0.023,0.063,0.037,0.092C37.529,63.167,36.559,63.372,35.579,63.54z
	 M39.261,62.747c0,0,0.001-0.008,0.001-0.01c-0.08-1.131-0.2-2.258-0.316-3.385c-0.051-0.504-0.08-1.021-0.143-1.531
	c0.912-0.264,1.787-0.582,2.642-0.926c-0.047,1.674,0.31,3.514,0.682,5.018C41.19,62.212,40.239,62.497,39.261,62.747z
	 M42.739,58.456c-0.041-0.691-0.038-1.389-0.1-2.078c0.563-0.262,1.104-0.547,1.63-0.844c0.033,0.857,0.349,1.709,0.568,2.533
	c0.233,0.875,0.481,1.742,0.745,2.607c-0.832,0.33-1.691,0.648-2.577,0.949C42.917,60.567,42.802,59.515,42.739,58.456z
	 M47.793,59.749c-0.02,0.008-0.038,0.004-0.058,0.014c-0.412,0.189-0.859,0.367-1.293,0.549c-0.158-0.852-0.325-1.699-0.511-2.547
	c-0.2-0.908-0.3-1.881-0.75-2.703c-0.011-0.02-0.026-0.031-0.039-0.049c0.53-0.336,1.042-0.688,1.517-1.064
	C46.991,55.913,47.367,57.854,47.793,59.749z M39.228,33.39c-1.079-0.326-1.49,1.291-0.459,1.668
	c1.934,0.707,3.953,1.042,5.964,1.056c0.318,5.336,0.85,10.955,1.706,16.42c-0.038,0.014-0.075,0.018-0.112,0.039
	c-8.482,4.904-21.169,7.168-30.052,1.611c0.202-5.57-0.042-11.285-0.388-16.754c2.533-1.193,4.34-3.671,4.325-7.639
	c-0.002-0.56-0.897-0.72-1.006-0.137c-1.733,9.307-14.786,8.512-16.89-0.209c-1.903-7.89,6.444-11.902,12.764-9.444
	c1.111,0.433,1.538-1.168,0.745-1.769c-8.777-6.647-1.173-18.57,8.615-15.971c6.51,1.729,9.917,7.938,11.488,14.002
	c0.242,0.937,1.625,0.918,1.878,0c3.512-12.741,21.354-9.947,22.545,2.587C61.477,30.695,49.198,36.401,39.228,33.39z"/>
</svg>
