<?xml version="1.0" encoding="utf-8"?>
<!-- Generator: Adobe Illustrator 16.0.0, SVG Export Plug-In . SVG Version: 6.00 Build 0)  -->
<!DOCTYPE svg PUBLIC "-//W3C//DTD SVG 1.1//EN" "http://www.w3.org/Graphics/SVG/1.1/DTD/svg11.dtd">
<svg version="1.1" id="Layer_1" xmlns="http://www.w3.org/2000/svg" xmlns:xlink="http://www.w3.org/1999/xlink" x="0px" y="0px"
	 width="86.953px" height="85.617px" viewBox="0 0 86.953 85.617" enable-background="new 0 0 86.953 85.617" xml:space="preserve">
<g>
	<path fill="#3C3C3B" d="M86.932,43.271c-0.23-3.975-2.338-8.18-6.205-9.723c-2.693-1.074-5.777-0.648-7.898,1.152
		c0.18-2.074,0.313-4.105,0.424-6.049c0.021-0.354-0.248-0.578-0.551-0.648c-0.076-0.168-0.217-0.287-0.387-0.326
		c-0.046-0.18-0.169-0.342-0.402-0.451c-9.025-4.207-19.892-4.125-29.654-4.537c-5.712-0.238-11.432-0.34-17.148-0.26
		c-2.31,0.031-5.322-0.527-6.691,1.414c-0.119-0.084-0.293-0.102-0.421,0.01c-0.155,0.139-0.261,0.287-0.345,0.441
		c-0.072,0.051-0.129,0.127-0.149,0.242c-1.575,9.289-1.188,19.51,2.157,27.844c-9.235-3.184-22.188,2.436-19.23,14.041
		c1.47,5.771,7.682,8.969,12.661,11.197c7.071,3.164,14.765,4.969,22.323,6.549c7.766,1.625,15.394,1.941,23.242,0.652
		c6.338-1.041,14.096-2.221,19.169-6.555c3.726-3.184,5.992-8.426,3.756-13.127c-2.552-5.365-8.896-6.832-14.173-7.869
		c-0.016-0.004-0.028,0.002-0.045,0c0.307-0.588,0.598-1.186,0.873-1.795C76.938,61.217,87.493,53.016,86.932,43.271z
		 M72.682,36.309c6.023-5.264,13.092,1.797,12.533,8.678c-0.676,8.318-9.107,12.99-16.361,9.049c0.361-0.9,0.68-1.83,0.982-2.77
		c4.41,2.492,11.284,1.838,11.99-4.27c0.555-4.791-4.531-9.729-9.387-8.221c-0.012,0.004-0.02,0.012-0.031,0.016
		C72.509,37.961,72.601,37.133,72.682,36.309z M72.277,39.801c0.048,0.027,0.1,0.051,0.162,0.063
		c1.597,0.307,3.182,0.252,4.659,1.064c1.899,1.047,3.217,2.953,3.271,5.154c0.146,5.818-6.316,5.904-10.272,4.342
		C71.127,47.006,71.807,43.396,72.277,39.801z M18.426,24.771c2.946-2.381,10.625-1.061,14.307-0.99
		c4.131,0.078,8.258,0.246,12.381,0.504c8.713,0.543,17.864,0.826,25.975,4.354c0.061,0.027,0.119,0.027,0.18,0.039
		c-2.555,4.621-10.965,5.631-15.596,6.107c-4.701,0.484-9.435,0.277-14.115-0.301c-1.584-0.195-3.17-0.434-4.751-0.707
		c-0.413-1.377-1.062-2.758-2.425-3.406c-1.31-0.621-2.773-0.363-3.707,0.762c-0.271,0.328-0.491,0.697-0.668,1.092
		c-0.148-0.043-0.301-0.076-0.449-0.121c-1.183-0.365-10.238-4.006-11.184-6.77c-0.003-0.18-0.004-0.359-0.009-0.539
		C18.385,24.787,18.408,24.785,18.426,24.771z M35.659,33.582c-1.423-0.268-2.831-0.598-4.227-0.967
		c0.237-0.566,0.595-1.033,1.142-1.125c1.119-0.189,2.379,0.863,2.887,1.711C35.535,33.324,35.595,33.455,35.659,33.582z
		 M18.395,26.957c1.054,1.324,2.717,2.557,3.339,3.006c2.331,1.682,5.022,2.852,7.841,3.709c-0.455,2.574,0.397,5.732,1.662,7.688
		c-1.176,0.896-2.3,1.855-3.251,2.951c-0.173,0.023-0.333,0.117-0.427,0.299c-0.435,0.844-0.277,1.059,0.223,1.854
		c1.251,1.984,3.344,3.881,4.995,5.545c0.917,0.926,1.511,1.438,2.813,1.215c2.071-0.352,4.41-2.107,6.289-3.037
		c0.492-0.244,0.469-0.889,0.16-1.25c-2.521-2.963-4.818-6.07-6.917-9.344c-0.212-0.33-0.707-0.529-1.062-0.279
		c-0.627,0.443-1.264,0.896-1.9,1.355c-0.611-1.984-1.245-3.877-1.148-6.027c0.007-0.156,0.025-0.348,0.051-0.551
		c3.099,0.818,6.301,1.311,9.312,1.723c6.587,0.9,13.305,1.057,19.854-0.225c3.37-0.66,8.89-1.654,11.359-4.713
		c-0.937,7.477-1.69,15.186-4.261,22.283C63.659,63.283,54.992,67.908,44.4,67.684c-8.725-0.184-16.494-3.814-21.145-10.922
		c0.061-0.199-0.052-0.426-0.287-0.471c-0.518-0.83-1.004-1.693-1.434-2.613C17.548,45.139,18.439,36.047,18.395,26.957z
		 M34.247,41.078c1.843,2.836,3.842,5.553,5.995,8.162c-0.979,0.518-1.969,1.072-2.983,1.447c-1.471,0.545-2.361,0.896-3.677-0.188
		c-0.718-0.592-1.395-1.514-2.017-2.203c-0.807-0.896-2.333-2.174-2.782-3.357C30.676,43.783,32.429,42.361,34.247,41.078z
		 M63.396,63.416c3.149,0.416,3.72,2.865,1.712,7.346c-0.971,0.314-1.957,0.578-2.955,0.793c-2.25,0.527-4.559,0.918-6.851,1.184
		c-4.146,0.479-8.349,0.547-12.509,0.225c-4.694-0.363-9.35-1.24-13.858-2.598c-1.71-0.516-3.425-1.074-5.075-1.758
		c-2.318-0.738-4.24-2.074-5.766-4.008c0.164-3.705,1.528-6.111,4.069-7.244c4.123,6.594,10.755,11.227,20.636,11.885
		c7.344,0.49,14.938-1.164,20.221-6.102C63.098,63.26,63.213,63.363,63.396,63.416z M66.953,58.918
		c5.616,1.088,14.084,3.031,13.859,10.459c-0.197,6.545-6.722,9.865-12.123,11.496c-10.805,3.258-21.786,3.988-32.83,1.682
		c-9.417-1.969-19.678-4.178-27.833-9.514c-5.774-3.779-8.582-10.566-3.468-16.369c3.9-4.426,10.311-4.637,15.589-3.135
		c0.456,1.025,0.95,2.025,1.505,2.982c-4.709,1.186-7.9,5.377-4.012,9.943c2.22,2.609,6.066,3.754,9.191,4.793
		c4.595,1.525,9.363,2.537,14.178,3.039c7.617,0.795,18.859,1.166,25.869-2.635c5.68-3.082,1.783-8.334-2.896-9.502
		c0.846-0.91,1.629-1.908,2.319-3.018c0.089-0.143,0.165-0.295,0.251-0.439C66.651,58.801,66.773,58.883,66.953,58.918z"/>
	<path fill="#3C3C3B" d="M32.102,20.207c-0.781-0.59-1.965-1.229-2.398-2.143c-0.792-1.676-0.059-1.451,0.654-2.293
		c0.518-0.613,0.789-1.188,0.766-2.016c-0.06-2.094-2.443-4.609-3.879-5.895c-0.597-0.535-1.504,0.133-1.115,0.859
		c0.357,0.666,0.762,1.189,1.229,1.785c0.911,1.164,1.535,1.68,1.478,3.238c-0.062,1.691-0.325,1.027-0.899,2.207
		c-0.135,0.275-0.236,0.582-0.256,0.891c-0.129,1.992,2.398,3.871,4.107,4.111C32.25,21.02,32.483,20.494,32.102,20.207z"/>
	<path fill="#3C3C3B" d="M42.656,1.48c-0.775-0.586-1.699,0.672-1.025,1.328c4.655,4.543-1.199,4.08-1.524,6.4
		c-0.306,2.184,3.46,2.781,1.116,5.523c-0.835,0.977-2.119,0.777-2.432,2.326c-0.264,1.309,0.643,2.219,1.537,2.984
		c0.365,0.311,0.947-0.08,0.688-0.529c-0.597-1.035,0.505-2.719,1.073-3.301c0.21-0.217,0.594-0.295,0.839-0.492
		c0.493-0.395,0.941-0.795,1.151-1.422c0.681-2.027-1.356-2.715-1.582-4.371c-0.138-1.006,2.168-2.578,2.306-4.285
		C44.947,3.826,44.022,2.518,42.656,1.48z"/>
	<path fill="#3C3C3B" d="M60.277,0.459c-0.801,1.779-2.104,2.314-1.853,4.477c0.147,1.275,0.501,1.158-0.3,2.432
		c-0.947,1.504-0.784,0.598-1.914,1.279c-0.62,0.373-1.176,0.188-1.603,0.889c-0.731,1.203,0.351,2.795,0.938,3.863
		c0.288,0.523,1.052,1.297,1.157,1.877c0.996,5.484-1.658,2.215-2.917,3.094c-0.681,0.475-0.81-0.014-1.198,0.768
		c-0.143,0.285-0.09,0.674,0.219,0.836c0.043,0.021,0.088,0.045,0.131,0.068c0.261,0.137,0.553,0.074,0.742-0.137
		c1.823-0.488,4.162,0.082,5.129-2.037c1.272-2.793-2.467-4.455-2.328-6.861c0.044-0.775,3.48-1.061,4.158-2.764
		c0.496-1.244-0.265-2.133-0.248-3.352c0.021-1.445,1.22-2.426,1.52-3.744C62.121,0.213,60.713-0.508,60.277,0.459z"/>
	<path fill="#3C3C3B" d="M74.635,5.771c-0.066-0.104-0.134-0.209-0.201-0.313c-0.236-0.369-0.62-0.502-1.039-0.424
		c-0.631,0.119-1.06,0.311-1.393,0.918c-0.154,0.279-0.08,0.578-0.18,0.867c-0.075,0.906-0.38,1.756-0.915,2.547
		c-0.218,0.1-0.435,0.199-0.651,0.299c-0.525,0.512-0.811,0.629-0.998,1.291c-0.402,1.42,1.888,4.494-0.469,5.318
		c-0.929,0.326-2.202-0.301-3.26,0.061c-0.63,0.215-1.222,0.584-1.641,1.105c-0.517,0.641-1.133,2.295-0.119,2.785
		c0.183,0.09,0.473,0.105,0.615-0.078c0.038-0.049,0.076-0.1,0.115-0.148c0.3-0.387-0.09-1.096-0.582-0.754
		c1.594-1.109,3.041-1.045,4.871-1.207c0.595-0.053,1.126,0.053,1.684-0.258c0.877-0.492,1.178-1.342,1.287-2.293
		c0.127-1.109-0.521-2.211-0.428-3.215c0.085-0.926,0.891-1.16,1.354-1.752c0.421-0.539,0.797-0.943,1.003-1.621
		c0.091-0.299,0.005-2.057,0.329-2.055C74.543,6.848,74.931,6.232,74.635,5.771z"/>
</g>
</svg>
