<svg xmlns="http://www.w3.org/2000/svg" width="62.665" height="66.144" viewBox="0 0 62.665 66.144"><path fill="#3C3C3B" d="M61.585 15.009C57.288 3.796 42 2.944 36.953 13.073 33.975 5.139 27.129-2.08 17.852.551c-7.974 2.262-9.703 11.022-5.449 16.847-7.77-.666-15.493 6.456-11.148 14.701 2.579 4.894 8.763 7.134 13.371 5.81-.56 7.26-.938 14.943-.292 22.137.024.27.145.459.304.582 7.53 8.623 24.781 5.74 33.623.799.422.492 1.434.262 1.401-.512-.34-8.148-1.841-16.84-3.623-24.842 10.347-.648 19.901-9.703 15.546-21.064zM15.839 60.173c.011-.043.031-.078.036-.127.167-1.594.276-3.215.353-4.848.347.254.722.477 1.092.705-.278 1.693.016 3.705.224 5.436a16.901 16.901 0 0 1-1.705-1.166zm2.405 1.556c.009-.033.02-.063.021-.104.03-1.646.147-3.613-.19-5.273.63.344 1.295.643 1.976.92-.324 1.682.058 3.785.563 5.49a17.972 17.972 0 0 1-2.37-1.033zm3.07 1.282c-.179-1.053-.363-2.104-.443-3.17-.058-.764-.025-1.539-.11-2.299.835.305 1.706.551 2.594.764-.159 1.695-.014 3.535.139 5.268-.74-.157-1.47-.335-2.18-.563zm2.933.713c.079-1.711.161-3.543-.043-5.223.78.158 1.579.273 2.385.365-.131 1.682.062 3.479.204 5.17a25.99 25.99 0 0 1-2.546-.312zm3.29.363c.032-1.682.108-3.473-.117-5.133.945.08 1.901.111 2.859.104.131 1.674.291 3.354.447 5.025a32.006 32.006 0 0 1-3.189.004zm3.773-.033c.162-1.652.063-3.395-.329-5.01 1.157-.035 2.31-.15 3.451-.309-.045 1.613.143 3.311.388 4.918-1.166.18-2.339.325-3.51.401zm4.269-.514c.013-1.623-.05-3.324-.322-4.914a31.36 31.36 0 0 0 2.431-.51c.104 1.592.516 3.277.763 4.73.007.035.023.063.037.092a45.98 45.98 0 0 1-2.909.602zm3.682-.793l.001-.01c-.08-1.131-.2-2.258-.316-3.385-.051-.504-.08-1.021-.143-1.531a27.706 27.706 0 0 0 2.642-.926c-.047 1.674.31 3.514.682 5.018-.937.299-1.888.584-2.866.834zm3.478-4.291c-.041-.691-.038-1.389-.1-2.078a23.36 23.36 0 0 0 1.63-.844c.033.857.349 1.709.568 2.533.233.875.481 1.742.745 2.607a54.8 54.8 0 0 1-2.577.949c-.088-1.056-.203-2.108-.266-3.167zm5.054 1.293c-.02.008-.038.004-.058.014-.412.189-.859.367-1.293.549a79.66 79.66 0 0 0-.511-2.547c-.2-.908-.3-1.881-.75-2.703-.011-.02-.026-.031-.039-.049.53-.336 1.042-.688 1.517-1.064.332 1.964.708 3.905 1.134 5.8zM39.228 33.39c-1.079-.326-1.49 1.291-.459 1.668a17.704 17.704 0 0 0 5.964 1.056c.318 5.336.85 10.955 1.706 16.42-.038.014-.075.018-.112.039-8.482 4.904-21.169 7.168-30.052 1.611.202-5.57-.042-11.285-.388-16.754 2.533-1.193 4.34-3.671 4.325-7.639-.002-.56-.897-.72-1.006-.137-1.733 9.307-14.786 8.512-16.89-.209-1.903-7.89 6.444-11.902 12.764-9.444 1.111.433 1.538-1.168.745-1.769-8.777-6.647-1.173-18.57 8.615-15.971 6.51 1.729 9.917 7.938 11.488 14.002.242.937 1.625.918 1.878 0C41.318 3.522 59.16 6.316 60.351 18.85c1.126 11.845-11.153 17.551-21.123 14.54z"/></svg>