<svg xmlns="http://www.w3.org/2000/svg" width="86.953" height="85.617" viewBox="0 0 86.953 85.617"><path d="M86.932 43.271c-.23-3.975-2.338-8.18-6.205-9.723-2.693-1.074-5.777-.648-7.898 1.152.18-2.074.313-4.105.424-6.049.021-.354-.248-.578-.551-.648a.566.566 0 0 0-.387-.326c-.046-.18-.169-.342-.402-.451-9.025-4.207-19.892-4.125-29.654-4.537a308.34 308.34 0 0 0-17.148-.26c-2.31.031-5.322-.527-6.691 1.414-.119-.084-.293-.102-.421.01a1.613 1.613 0 0 0-.345.441.359.359 0 0 0-.149.242c-1.575 9.289-1.188 19.51 2.157 27.844-9.235-3.184-22.188 2.436-19.23 14.041 1.47 5.771 7.682 8.969 12.661 11.197 7.071 3.164 14.765 4.969 22.323 6.549 7.766 1.625 15.394 1.941 23.242.652 6.338-1.041 14.096-2.221 19.169-6.555 3.726-3.184 5.992-8.426 3.756-13.127-2.552-5.365-8.896-6.832-14.173-7.869-.016-.004-.028.002-.045 0a34.99 34.99 0 0 0 .873-1.795c8.7 5.744 19.255-2.457 18.694-12.202zm-14.25-6.962c6.023-5.264 13.092 1.797 12.533 8.678-.676 8.318-9.107 12.99-16.361 9.049.361-.9.68-1.83.982-2.77 4.41 2.492 11.284 1.838 11.99-4.27.555-4.791-4.531-9.729-9.387-8.221-.012.004-.02.012-.031.016.101-.83.193-1.658.274-2.482zm-.405 3.492c.048.027.1.051.162.063 1.597.307 3.182.252 4.659 1.064 1.899 1.047 3.217 2.953 3.271 5.154.146 5.818-6.316 5.904-10.272 4.342 1.03-3.418 1.71-7.028 2.18-10.623zm-53.851-15.03c2.946-2.381 10.625-1.061 14.307-.99 4.131.078 8.258.246 12.381.504 8.713.543 17.864.826 25.975 4.354.061.027.119.027.18.039-2.555 4.621-10.965 5.631-15.596 6.107-4.701.484-9.435.277-14.115-.301a99.13 99.13 0 0 1-4.751-.707c-.413-1.377-1.062-2.758-2.425-3.406-1.31-.621-2.773-.363-3.707.762a4.765 4.765 0 0 0-.668 1.092c-.148-.043-.301-.076-.449-.121-1.183-.365-10.238-4.006-11.184-6.77-.003-.18-.004-.359-.009-.539.02-.008.043-.01.061-.024zm17.233 8.811a60.009 60.009 0 0 1-4.227-.967c.237-.566.595-1.033 1.142-1.125 1.119-.189 2.379.863 2.887 1.711.074.123.134.254.198.381zm-17.264-6.625c1.054 1.324 2.717 2.557 3.339 3.006 2.331 1.682 5.022 2.852 7.841 3.709-.455 2.574.397 5.732 1.662 7.688-1.176.896-2.3 1.855-3.251 2.951a.548.548 0 0 0-.427.299c-.435.844-.277 1.059.223 1.854 1.251 1.984 3.344 3.881 4.995 5.545.917.926 1.511 1.438 2.813 1.215 2.071-.352 4.41-2.107 6.289-3.037.492-.244.469-.889.16-1.25a86.04 86.04 0 0 1-6.917-9.344c-.212-.33-.707-.529-1.062-.279a232.7 232.7 0 0 0-1.9 1.355c-.611-1.984-1.245-3.877-1.148-6.027a6.97 6.97 0 0 1 .051-.551c3.099.818 6.301 1.311 9.312 1.723 6.587.9 13.305 1.057 19.854-.225 3.37-.66 8.89-1.654 11.359-4.713-.937 7.477-1.69 15.186-4.261 22.283C63.659 63.283 54.992 67.908 44.4 67.684c-8.725-.184-16.494-3.814-21.145-10.922a.367.367 0 0 0-.287-.471 24.607 24.607 0 0 1-1.434-2.613c-3.986-8.539-3.095-17.631-3.139-26.721zm15.852 14.121a89.046 89.046 0 0 0 5.995 8.162c-.979.518-1.969 1.072-2.983 1.447-1.471.545-2.361.896-3.677-.188-.718-.592-1.395-1.514-2.017-2.203-.807-.896-2.333-2.174-2.782-3.357 1.893-1.156 3.646-2.578 5.464-3.861zm29.149 22.338c3.149.416 3.72 2.865 1.712 7.346-.971.314-1.957.578-2.955.793-2.25.527-4.559.918-6.851 1.184a65.278 65.278 0 0 1-12.509.225 65.653 65.653 0 0 1-13.858-2.598c-1.71-.516-3.425-1.074-5.075-1.758-2.318-.738-4.24-2.074-5.766-4.008.164-3.705 1.528-6.111 4.069-7.244 4.123 6.594 10.755 11.227 20.636 11.885 7.344.49 14.938-1.164 20.221-6.102a.64.64 0 0 0 .376.277zm3.557-4.498c5.616 1.088 14.084 3.031 13.859 10.459-.197 6.545-6.722 9.865-12.123 11.496-10.805 3.258-21.786 3.988-32.83 1.682-9.417-1.969-19.678-4.178-27.833-9.514-5.774-3.779-8.582-10.566-3.468-16.369 3.9-4.426 10.311-4.637 15.589-3.135a31.27 31.27 0 0 0 1.505 2.982c-4.709 1.186-7.9 5.377-4.012 9.943 2.22 2.609 6.066 3.754 9.191 4.793a67.173 67.173 0 0 0 14.178 3.039c7.617.795 18.859 1.166 25.869-2.635 5.68-3.082 1.783-8.334-2.896-9.502a19.707 19.707 0 0 0 2.319-3.018c.089-.143.165-.295.251-.439a.734.734 0 0 0 .401.218zM32.102 20.207c-.781-.59-1.965-1.229-2.398-2.143-.792-1.676-.059-1.451.654-2.293.518-.613.789-1.188.766-2.016-.06-2.094-2.443-4.609-3.879-5.895-.597-.535-1.504.133-1.115.859.357.666.762 1.189 1.229 1.785.911 1.164 1.535 1.68 1.478 3.238-.062 1.691-.325 1.027-.899 2.207a2.411 2.411 0 0 0-.256.891c-.129 1.992 2.398 3.871 4.107 4.111.461.069.694-.457.313-.744zM42.656 1.48c-.775-.586-1.699.672-1.025 1.328 4.655 4.543-1.199 4.08-1.524 6.4-.306 2.184 3.46 2.781 1.116 5.523-.835.977-2.119.777-2.432 2.326-.264 1.309.643 2.219 1.537 2.984.365.311.947-.08.688-.529-.597-1.035.505-2.719 1.073-3.301.21-.217.594-.295.839-.492.493-.395.941-.795 1.151-1.422.681-2.027-1.356-2.715-1.582-4.371-.138-1.006 2.168-2.578 2.306-4.285.144-1.815-.781-3.123-2.147-4.161zM60.277.459c-.801 1.779-2.104 2.314-1.853 4.477.147 1.275.501 1.158-.3 2.432-.947 1.504-.784.598-1.914 1.279-.62.373-1.176.188-1.603.889-.731 1.203.351 2.795.938 3.863.288.523 1.052 1.297 1.157 1.877.996 5.484-1.658 2.215-2.917 3.094-.681.475-.81-.014-1.198.768-.143.285-.09.674.219.836.043.021.088.045.131.068a.6.6 0 0 0 .742-.137c1.823-.488 4.162.082 5.129-2.037 1.272-2.793-2.467-4.455-2.328-6.861.044-.775 3.48-1.061 4.158-2.764.496-1.244-.265-2.133-.248-3.352.021-1.445 1.22-2.426 1.52-3.744.211-.934-1.197-1.655-1.633-.688zm14.358 5.312l-.201-.313c-.236-.369-.62-.502-1.039-.424-.631.119-1.06.311-1.393.918-.154.279-.08.578-.18.867a5.262 5.262 0 0 1-.915 2.547l-.651.299c-.525.512-.811.629-.998 1.291-.402 1.42 1.888 4.494-.469 5.318-.929.326-2.202-.301-3.26.061-.63.215-1.222.584-1.641 1.105-.517.641-1.133 2.295-.119 2.785.183.09.473.105.615-.078.038-.049.076-.1.115-.148.3-.387-.09-1.096-.582-.754 1.594-1.109 3.041-1.045 4.871-1.207.595-.053 1.126.053 1.684-.258.877-.492 1.178-1.342 1.287-2.293.127-1.109-.521-2.211-.428-3.215.085-.926.891-1.16 1.354-1.752.421-.539.797-.943 1.003-1.621.091-.299.005-2.057.329-2.055.526.004.914-.612.618-1.073z" fill="#3C3C3B"/></svg>