<svg xmlns="http://www.w3.org/2000/svg" width="812.358" height="109.766" viewBox="0 0 812.358 109.766"><path fill="#3C3C3B" d="M17.403 109.704c2.072-.443 3.709-2.966 3.21-5.402-.349-1.701-2.414-3.434-3.812-2.367-.113-5.039-.738-10.113-1.148-15.13-.272-3.333-.335-6.876-1.1-10.149.004-.02.016-.033.017-.056.014-.417-.127-.837-.166-1.255a4.91 4.91 0 0 1 .026-1.05c.26-.011.51-.018.736-.012 1.33.034 3.113.524 3.864-1.042.944-1.971.087-5.939-.149-8.043a.548.548 0 0 0-.14-.314c.288-3.012.107-6.086-.284-9.069a.658.658 0 0 0-.065-.209c.518-2.771-.329-7.023-.636-8.601a.427.427 0 0 0-.311-.347c.97-2.687.352-7.091.698-9.359.064-.422-.248-.658-.53-.623.294-1.671.393-3.48.582-4.576.466-2.692.712-4.425-1.223-5.942.234-1.689.49-3.432.4-5.052-.093-1.648-.758-2.993-2.196-3.063.001-.046.007-.093.008-.139.025-.583-.625-.753-.963-.459-.007-.001-.013-.01-.02-.011-1.658-.39-3.375-.655-5.087-.851a33.228 33.228 0 0 1-.032-1.64c.058-4.797.188-9.615-.011-14.407-.022-.588-.876-.67-.913-.059-.21 3.442-.222 6.889-.262 10.337-.021 1.774.106 3.714.161 5.649a73.865 73.865 0 0 0-1.664-.148c-1.242-.096-2.525-.233-3.571.706-1.313 1.178-1.6 3.549-2.037 5.26-.3 1.176-.83 2.405-.479 3.497-.221.123-.38.388-.272.734.349 1.12.677 3.551 1.575 4.409.285.273.712.429 1.193.526-.349.99-.579 2.362-.173 3.255.318.875.62 2.271 1.133 3.226-.389.957-.831 2.288-.767 3.471a.276.276 0 0 0-.118.317c.042.147.082.293.123.442a.072.072 0 0 0 .134.014l.003.013c-.283.826.673 3.129 1.136 3.88.217.352.385.566.577.726-.222 1.413-.511 3.565.003 4.979a.24.24 0 0 0 .009.17c.549 1.322 1.271 4.396 2.378 5.185.992.706 3.812.46 4.984.59 1.135.127 2.402.418 3.57.432.004 1.408.178 3.163-.216 4.415-.679 2.163-2.903 1.558-4.455 1.264-1.267-.24-2.894-.455-3.585-1.745-.664-1.238-.369-3.417-.387-4.842-.004-.305-.41-.319-.458-.028-.216 1.304-.72 3.566-.332 5.134a.245.245 0 0 0 .01.217c.025.044.051.087.075.131.081.219.184.416.313.591a.64.64 0 0 1 .011.025c.027.033.063.059.091.092-.003.074-.041.018-.081-.068l.133.371c.171.484.55.945.889 1.367-.003.006-.009.006-.011.012-.339.852-.593 1.828-.52 2.77-.069-.035-.164 0-.148.107.239 1.736.864 4.517 2.185 5.629.981.826 2.53.835 3.95.766 1.116 9.24 1.244 18.691 2.6 27.881-1.48.361-2.646 1.866-2.518 3.807.149 2.281 2.109 4.081 4.063 3.661zM1.819 25.655c-.771-1.055.133-3.019.436-4.154.635-2.39 1.512-3.997 3.918-3.861.208.012.955.018 1.906.047.014 1.721-.063 3.409-.398 4.937-.082.375.416.686.613.346.847-1.452.908-3.378.859-5.242 2.09.096 4.533.32 4.8.904-.108 1.154-.202 2.308-.309 3.462-.202 2.165-.11 4-2.258 4.543-1.188.301-2.788-.051-4.008-.094-1.225-.043-4.69.304-5.559-.888zm1.051 4.454c-.798-.546-1.23-1.939-1.555-3.087 1.091.666 2.76.751 3.761.826 2.399.177 5.555.769 7.912.218 1.335-.313 1.351-1.003 1.541-2.508.293-2.32.495-4.673.615-7.017 1.904 1.962.927 5.72.683 8.153-.104 1.026.014 2.456-.484 3.334.023.77-.26 1.027-.852.772-.619-.025-1.239-.054-1.858-.084-2.041-.1-4.081-.218-6.122-.351-.843-.055-2.88.267-3.641-.256zm.563 1.431c1.076.1 2.277-.005 2.949.037 1.905.121 3.81.226 5.716.317.368.018.89.119 1.443.196-.116 1.065-.147 2.461-.556 3.269-.594 1.176-2.322.538-3.479.376-2.33-.324-6.57-.727-6.073-4.195zm.541 4.322c1.301.578 3.129.746 4.08.93 1.159.223 4.381 1.205 5.477.279.969-.818.981-3.477 1.148-4.892.561-.004 1.07-.112 1.397-.442.725-.73.55-2.575.645-3.553.019-.186.042-.376.063-.565 1.083 1.792.313 4.561-.068 6.566-.168.887-.219 2.065-.57 2.889.072 1.026-.344 1.565-1.245 1.616-.635.511-1.314.613-2.037.307-1.684-.013-3.495-.562-5.16-.844-1.947-.328-2.826-.931-3.73-2.291zm1.651 6.83c-1.807-.5-1.593-2.428-1.438-4.155.021.023.038.052.061.074.763.736 2.325.726 3.233.882 2.062.36 4.13.672 6.203.94.125.016.254.036.384.058.104 1.756-.399 3.41-2.252 3.261-1.035-.083-2.078-.284-3.104-.458-1.025-.175-2.078-.324-3.087-.602zM8.38 46.5c-1.136-.35-2.558-.68-3.448-1.65-.241-.264-.487-.754-.727-1.292 1.406.898 3.729.912 5.07 1.132 1.438.237 3.696.968 5.019-.156 1.081-.92 1.095-2.542.878-3.951.326-.02.641-.106.922-.326.338-.264.61-.664.831-1.146a29.718 29.718 0 0 0-.153 2.344c-.085 3.154.639 6-3.375 6.046-1.558.019-3.532-.543-5.017-1.001zm-2.726 4.054c-.296-1.113-.249-2.358-.446-3.531.159.081.344.157.582.249 2.55.991 6.081 1.698 8.778 1.65a3.47 3.47 0 0 0 .577-.062c-.045 1.363-.117 2.621-1.059 3.671-.9 1.006-1.189.773-2.303.583-.78-.132-1.56-.283-2.334-.449-1.389-.299-3.307-.289-3.795-2.111zm2.775 5.531c-1.114-.445-1.781-1.714-2.392-2.943 1.282.74 3.218.824 4.366 1.039 1.383.259 4.006 1.418 4.917-.297.771-1.451 1.001-3.609.844-5.424.28-.184.511-.429.712-.704.27 1.451.539 2.914.602 4.398.078 1.876-.305 3.906-2.065 4.713-.576.265-1.896-.221-2.492-.288-1.382-.155-3.2.024-4.492-.494zm.197 8.452c1.123.416 2.41.585 3.292.683 1.275.14 3.434.55 4.306-.859.898-1.447.678-4.494.591-6.328.326-.116.589-.323.813-.588.123 1.208.205 2.418.224 3.639.015.999.102 2.168-.074 3.15-.271 1.525-.461 1.764-1.744 2.119-1.159.322-3.113.362-4.292.146-1.411-.26-2.304-1.031-3.116-1.962zm.679 4.817c-1.325-.799-1.371-2.339-1.134-3.81.514.693 1.066 1.455 1.79 1.845 1.651.887 4.482.612 6.423.205.051 1.192.136 2.39-1.079 2.782-.933.303-2.328-.076-3.274-.246-.869-.156-1.941-.304-2.726-.776zm.991 3.018c-.854-.49-1.323-1.306-1.751-2.191.877.627 2.036.85 2.979 1.046 1.336.276 3.527.83 4.814.104 1.285-.727 1.185-2.518.969-3.969.339-.118.59-.277.787-.481.108 1.03.2 2.074.153 3.077-.053 1.139.142 2.734-1.014 3.17-.515.193-1.664-.051-2.152-.068-1.646-.061-3.298.167-4.785-.688zm4.517 33.532c-.079-1.121.718-2.159 1.622-2.593.11.128.262.207.444.181 1.072-.146 2.225-.084 2.336 1.514.099 1.44-1.016 2.911-2.255 3.015-1.032.087-2.062-.913-2.147-2.117z"/><path fill="#3C3C3B" d="M9.281 8.412c-.021.226.154.38.35.422.033.037.057.074.1.109 9.351 7.186 22.168 8.452 30.926 16.591 4.729 4.395 7.43 10.562 7.116 16.996-.326 6.742-4.014 11.292-8.331 16.063a.574.574 0 0 0-.395.465c-.075.133-.004.275.122.352 0 .002.001.004.004.006.042.045.097.073.143.114.031 1.089.903 2.149 1.786 2.715.741.476 2.213 1.013 2.961.323a.414.414 0 0 0 .341-.152c5.751-7.302 14.821-11.087 18.718-19.87 3.846-8.667 1.223-16.778-4.514-23.95C53.11 11.728 44.941 7.463 36.646 4.719 29.42 2.328 20.589-.195 13.295 3.167c-.099-.129-.315-.13-.437-.02a.469.469 0 0 0-.341.044c-1.905 1-3.042 3.175-3.236 5.221zm33.853 53.46a3.528 3.528 0 0 1-1.384-.546 2.669 2.669 0 0 1-.82-.858c.247.116.488.233.721.369.576.334 1.127.72 1.696 1.066-.069-.009-.139-.017-.213-.031zM37.553 6.526c7.846 2.779 15.35 6.971 20.425 13.627 3.14 4.113 5.882 9.007 5.666 14.292-.189 4.638-2.202 9.259-5.117 12.868-4.194 5.189-11.312 7.942-14.452 13.924-.536-.59-1.236-1.088-1.88-1.507-.497-.323-1.052-.712-1.637-.946 9.484-6.005 10.764-20.421 5.231-29.351-7.234-11.676-23.358-14.649-34.704-21.102.315-.183.602-.424.856-.703 11.5 1.521 22.184 5.723 30.971 13.304 4.277 3.692 8.828 8.442 10.97 13.709 2.96 7.27-1.419 13.586-5.91 19.042-.132.158.114.373.27.24 4.504-3.967 8.391-9.564 7.74-15.784-.595-5.649-4.809-10.648-8.619-14.617-9.009-9.38-21.586-15.73-34.704-16.936a6.38 6.38 0 0 0 .674-2.193c7.954-3.012 16.514-.599 24.22 2.133zM12.546 4.564a5.16 5.16 0 0 1-.804 1.605c-.336.446-.734.748-1.15 1.032.47-1.003 1.13-1.827 1.954-2.637z"/><g fill="#3C3C3B"><path d="M27.465 66.2c-.04-.069-.087-.138-.127-.209.102.178.136.231.127.209z"/><path d="M67.824 78.37c-6.926-2.77-14.657 1.206-15.321 7.92-10.29-5.906-22.383-15.723-25.686-26.838-.128-.44-.746-.816-1.231-.598-6.28 2.822-2.171 8.596.759 12.271 6.287 7.887 14.634 14.348 24.353 18.074-5.1 2.439-6.261 9.459-2.267 14.222 6.084 7.255 20.381 6.995 26.064-1.034 5.508-7.781 2.401-20.388-6.671-24.017zM52.333 88.474c-7.035-3.697-13.688-7.737-19.335-13.211-2.526-2.45-6.28-5.563-7.54-8.842-.677-.698-.744-1.542-.196-2.528-.022-2.155.188-2.458.635-.902-.2-.167 1.524 3.075 1.568 3.21 5.304 9.158 15.703 17.119 25.054 22.303.003.018.001.033.003.051-.021.005-.04.012-.061.018-.041-.035-.074-.07-.128-.099zm18.391-5.543c4.329 4.203 5.756 11.298 2.946 16.848-2.774 5.48-9.363 7.594-15.282 6.611-3.535-.587-7.339-2.314-9.211-5.345-3.069-4.966-.215-11.759 6.34-11.737.573.002.68-.922.098-.962a10.953 10.953 0 0 0-1.402-.006c-1.073-9.88 11.116-10.644 16.511-5.409z"/></g><path fill="#3C3C3B" d="M121.737 108.407c5.963.756 6.807-8.559 5.728-13.656-1.284-6.057-3.928-16.675-9.512-18.989-.027-.04-.074-.059-.124-.069.658-9.623-1.07-19.878-1.877-29.446-.912-10.792-1.082-22.159-3.076-32.773-1.082-5.754-4.355-12.792-10.117-12.088-6.121.746-7.591 9.292-6.699 15.334.023.163.092.264.179.323-.017 2.056 1.312 4.035 3.147 3.963 1.695-.068 3.491-2.292 2.735-4.39-.014-.041-.046-.057-.068-.086.044-.875.052-1.737.123-2.665.111-.82.227-1.637.34-2.456 2.884-.893 4.434-.254 4.644 1.913.979 2.599.894 6.623 1.253 9.441.779 6.121 1.536 12.246 2.291 18.369 1.427 11.591 2.059 23.219 2.758 34.885-7.59 1.521-14.348 7.938-12.899 18.378 1.635 11.797 12.317 17.522 21.174 14.012zm-4.239-31.566c3.813 1.754 5.563 7.391 7.007 11.593.809 2.353 1.537 4.782 2.018 7.259.629 3.232.762 10.084-2.905 10.951-1.926.451-4.466-.802-5.729-2.549-.721-.998-1.356-2.164-1.899-3.307a29.399 29.399 0 0 1-2.196-6.592c-.907-4.361-1.807-16.119 3.486-17.553a.491.491 0 0 0 .218.198zm-8.22-54.226c-.423-3.247-.113-13.929-4.328-14.627-4.235-.701-3.727 6.286-3.556 9.619-.277 1.31-1.009 2.473-2.324 2.304-1.25-.156-2.153-1.556-2.368-2.972a.539.539 0 0 0 .105-.346c-.102-5.15.215-12.558 5.603-13.803 4.065-.939 7.187 3.434 8.553 7.502 2.254 6.716 2.094 14.976 2.689 22.06 1.211 14.381 3.037 28.885 3.635 43.309a17.86 17.86 0 0 0-2.768.174c-1.1-17.928-2.925-35.436-5.241-53.22zm-7.573 71.584c-1.545-10.681 5.844-15.961 13.337-17.508-3.354 2.511-3.315 10.782-2.868 14.837.57 5.168 2.949 13.698 7.507 16.188-7.897 1.058-16.434-2.865-17.976-13.517zm50.177-4.583c1.511 2.098 4.355.992 6.207.7 7.171-1.124 14.081-3.987 20.653-8.067.457-.282.259-1.254-.166-1.137-10.015-.443-20.226 1.09-30.201 2.195-5.034.559-10.067 1.168-15.091 1.887-1.734.248-4.881-.043-5.345 3.043a.507.507 0 0 0 .003.166c-.899 1.746 1.605 3.865 3.076 3.832 6.603-.148 13.629-2.777 20.03-4.939.122.864.369 1.676.834 2.32zm13.668-2.349a50.246 50.246 0 0 1-7.505 1.752c-.985.152-2.662.825-3.561.408-1.897-.883-2.632-2.743-2.834-5.17.603-.061 1.204-.129 1.806-.186 7.78-.76 15.646-.896 23.411-1.935-3.657 2.179-7.421 3.904-11.317 5.131zm-25.853 2.234c-1.624.369-3.252.705-4.882 1.012-.815.156-1.631.309-2.448.445-.511.086-6.397.967-3.44-3.21.019-.026.021-.054.025-.081 1.381-1.521 4.131-1.225 5.63-1.424a519.179 519.179 0 0 1 16.416-1.919c-.049.69-.073 1.415-.032 2.129-3.725 1.224-7.493 2.192-11.269 3.048zm33.73-33.747c.219-.086.157-.495-.072-.48-3.818.223-12.9 2.972-13.313-4.099l-.001-.005c.399-.128.364-.888-.091-.863-5.779.307-11.577 1.238-17.313 2.115-2.657.407-5.311.843-7.962 1.286-1.326.223-2.65.458-3.975.693-.779.148-1.561.287-2.343.416-2.015.606-3.177-.483-3.506-3.227 1.733-2.141 7.789-1.563 9.626-1.64l8.767-.365c5.567-.231 11.337.007 16.847-.992.258-.045.288-.373.136-.531.22-.048.405-.278.313-.627-.996-3.783 5.734-3.47 7.014-3.552 1.953-.126 3.907-.2 5.855-.4.472-.048.43-.868-.037-.885-2.19-.078-16.056-1.491-13.629 5.154a.524.524 0 0 0 .141.211c-7.485-.678-15.262.393-22.756.719-3.431.148-7.237-.243-10.611.508-1.534.342-2.464 1.158-2.727 2.998a.506.506 0 0 0 0 .165c-.084.768.123 1.554.694 2.305 1.922 2.526 5.976.849 8.245.432 8.93-1.64 17.915-2.478 26.866-3.838-3.396 7.305 11.813 5.313 13.832 4.502z"/><path fill="#3C3C3B" d="M174.934 54.308a27.3 27.3 0 0 0-4.01-.805 24.445 24.445 0 0 0 4.298-1.475.277.277 0 0 0 .152-.164c.31-.108.387-.702.002-.79-2.382-.539-4.806-.848-7.231-1.001 2.393-.331 4.787-.932 7.095-1.551.195-.051.146-.398-.028-.439.202-.199.208-.649-.12-.721a39.821 39.821 0 0 0-6.324-.88 20.882 20.882 0 0 0 6.485-2.538c.221-.132.04-.546-.183-.463a50.522 50.522 0 0 1-10.379 2.708c-.283.042-.326.436-.155.607.021.102.08.195.191.207 3.296.325 6.576.64 9.86 1.121-3.273.335-6.641.612-9.846 1.424-.292.074-.275.497-.088.69.003.111.047.218.156.23 3.028.364 6.049.805 9.073 1.223-2.808.596-5.625 1.056-8.427 1.665-.361.078-.345.671.029.697.402.027.813.036 1.228.029 2.713.146 5.377.458 8.044 1.188.513.142.688-.82.178-.962z"/><g fill="#3C3C3B"><path d="M141.918 19.796c4.179-.766 8.91-2.198 12.751.46.007.111.045.22.136.304 4.41 4.15 20.224 4.999 19.268-5.329-.435-4.689-4.747-6.681-8.221-7.102-3.194-.388-9.932.135-11.461 4.195-.007.019-.007.035-.011.053-3.15 2.462-7.332 1.519-10.928 1.25a123.24 123.24 0 0 0-12.733-.294c-2.98.084-13.255-.068-11.111 6.586.137 4.852 6.973 3.408 9.631 2.746 4.215-1.049 8.417-2.088 12.679-2.869zm-21.606.001c-.587-6.448 9.088-5.289 12.467-5.332 3.353-.041 6.707.056 10.053.287 3.977.275 8.809 1.605 11.908-1.835.106-.007.211-.065.281-.207 1.314-2.617 6.216-3.441 8.484-3.525 1.457-.054 2.946.088 4.356.531 1.271.343 2.415.993 3.43 1.95 1.665 1.415 2.036 3.118 1.11 5.107-.694 3.524-2.259 4.304-5.223 5.068a17.214 17.214 0 0 1-3.783.518c-2.958.088-5.439-.648-7.922-2.47a.443.443 0 0 0-.109-.23c-3.664-3.828-9.842-1.629-14.141-.825-3.404.637-19.486 6.459-20.911.963z"/><path d="M170.701 18.65c.212-.238-.087-.611-.324-.443-2.741 1.938-5.263 2.43-8.389 1.724-3.271-.738-7.411-3.84-3.748-7.872.216-.24-.096-.658-.338-.462-2.679 2.159-2.473 6.422.401 8.256 3.583 2.286 9.386 2.174 12.398-1.203z"/></g><g fill="#3C3C3B"><path d="M210.575 40.588c-2.133-.322-4.599 1.468-4.619 4.267a.247.247 0 0 0-.075.155c-.774 7.295 9.585 9.358 9.548 1.954-.015-3.168-2.459-6.014-4.854-6.376zm3.645 6.936c-.684 3.355-3.624 3.444-5.701 1.665.922.503 1.972.679 2.839.466 1.997-.493 3.397-3.577 1.519-5.939-.201-.253-.488.043-.335.341 2.521 4.91-4.741 6.527-5.753 1.96.16-2.868 1.564-5.117 4.176-4.218 1.919.66 3.764 3.228 3.255 5.725z"/><path d="M209.542 45.806c-.369.629-1.186.325-1.249-.578-.02-.279-.332-.288-.332-.021-.003 1.367 1.417 2.038 1.888.896.089-.216-.189-.497-.307-.297zm.897-3.141c-.625-.447-1.454-.453-1.898.158-.176.24.1.624.321.488.486-.294.891-.45 1.479-.264.181.058.28-.251.098-.382zm.581 1.217l-.042.518c-.004.043.048.065.053.021l.043-.518c.002-.042-.051-.063-.054-.021zm.845 2.056c-.046.225-.299.505-.509.364-.262-.175-.223-.625-.07-.808.224-.268-.144-.836-.4-.609-.54.476-.52 1.689.163 2.217.678.526 1.543-.042 1.423-1.025-.055-.45-.52-.554-.607-.139zm27.764 16.907c-.214.121-.611.547-.362.93.162.25.432.166.438-.121.001-.086-.05-.138-.106-.153a2.78 2.78 0 0 1 .287-.125c-.096.352-.192.738-.387.984-.14.178-.319.24-.525.118-.187-.111-.36-.357-.259-.588.13-.286-.255-.572-.388-.292-.294.63.28 1.411.812 1.511.78.146 1.12-.938 1.166-1.747.058.014.113.026.17.051.332.138.592.43.765.825.12.272.379.082.332-.167-.201-1.072-1.262-1.611-1.943-1.226zm2.53 3.381c-.058.354-.274.661-.554.736-.387.105-.137-.574.073-.521.226.057.277-.309.06-.424-.729-.39-1.31.877-.698 1.589.322.375.862.294 1.169.079.377-.263.573-.746.496-1.332-.052-.391-.481-.518-.546-.127zm-1.644 12.259c-.016-.02-.033-.027-.051-.041a8.817 8.817 0 0 0-1.573-2.434c-1.934-2.078-5.431-2.953-6.424.211a.482.482 0 0 0 .092.456c-.987 2.06-.963 4.771.186 7.099 1.215 3.799 3.659 7.127 6.999 5.541 3.329-1.584 3.836-7.453.771-10.832zm-7.406-1.922c1.541-1.709 3.628-1.838 5.437.423 1.893 2.366 2.449 6.442.409 8.245-1.69 1.496-4.04.336-5.281-2.067-1.038-2.014-1.192-4.62-.565-6.601zm5.636 12.094c-1.999.496-3.354-.797-4.364-2.645 1.92 1.783 4.391 1.87 5.893-.243.919-1.293 1.175-3.027.929-4.762 1.159 3.228.45 6.926-2.458 7.65z"/><path d="M237.029 82.247c-.121-.244-.432-.104-.338.17.243.708.048 1.688-.6 1.706-.567.017-1.079-.686-1.106-1.386-.011-.272-.324-.281-.325-.021-.008 1.021.797 2.05 1.601 1.956.875-.101 1.267-1.423.768-2.425zm-1.807-2.177c-.457.17-.641.974-.207 1.45.198.216.422-.09.24-.33-.123-.166-.016-.466.093-.541.132-.09.267-.053.416.056.198.142.364.426.501.649.116.189.387.103.298-.15-.227-.641-.782-1.341-1.341-1.134zm3.407.435c-.117-.251-.389-.093-.326.164.156.633.024 1.283-.333 1.651a.38.38 0 0 1-.028-.313c.092-.299-.233-.529-.367-.277-.232.438-.062 1.025.306 1.354a.228.228 0 0 0 .279.014c.701-.484.936-1.594.469-2.593zm-3.025-3.008c-.021.374-.112.83-.463.84-.377.01-.632-.563-.578-.977.032-.248-.284-.451-.352-.199-.2.738.186 1.689.847 1.92.709.248 1.412-.635 1.104-1.552-.107-.319-.535-.425-.558-.032zM223.36 62.405a5.581 5.581 0 0 0-.672-.72 5.267 5.267 0 0 0-3.875-1.306c-1.208.086-1.348.619-1.644 1.415-.073.056-.148.111-.217.173-2.282.74-1.739 4.945-.375 7.115.156.25.329.477.507.691 1.322 3.398 4.587 5.334 7.094 3.407 2.951-2.263 2.569-8.239-.818-10.775zm-6.757 1.815c.092-.317.227-.627.377-.926.332-.221.322-.436.567-.83.064-.105.132-.197.198-.284.146-.15.297-.29.456-.397.024-.016.027-.047.041-.07.421-.266.905-.275 1.537-.174 2.206.354 4.371 2.676 3.94 5.711-.383 2.717-2.723 3.759-4.757 2.687-.911-.481-1.896-1.812-2.474-3.267-.08-.839-.124-1.626.115-2.45zm7.157 8.154c-1.913 1.465-4.253.463-5.736-1.686 1.874 1.447 4.271 1.368 5.681-.453 1.069-1.385 1.348-3.496.845-5.41 1.289 2.658 1.418 5.861-.79 7.549z"/><path d="M222.043 65.671c-.194-.284-.581-.01-.45.328.186.477.182 1.168-.209 1.375-.443.233-.98-.414-1.028-.989-.028-.341-.394-.345-.401-.026-.023 1.039.859 2.028 1.642 1.797.83-.245 1.055-1.598.446-2.485zm-2.359-2.733c-.386.163-.477.843-.204 1.256-.162-.066-.342-.006-.357.244-.034.533-.326.936-.708 1.095-.385.159-1.291.088-.836-.692.127-.219-.117-.521-.276-.334-.271.318-.588.934-.211 1.402.305.377.749.554 1.132.565.871.024 1.586-.743 1.521-1.894a.477.477 0 0 0-.041-.164c.161.09.265-.161.108-.293-.201-.172-.171-.504-.022-.631.172-.148.413-.02.58.135.286.265.438.734.609 1.107.114.247.396.095.325-.163-.233-.821-.862-1.953-1.62-1.633zm11.45-26.894c-.05-.065-.111-.061-.159-.027-.26-.45-.551-.873-.905-1.221-1.653-1.626-4.456-1.777-5.18.616a.133.133 0 0 0-.125.051c-1.276 1.6-1.289 4.418-.087 6.48.488 3.227 4.919 4.345 6.584 3.027 2.355-1.864 1.959-6.241-.128-8.926zm-6.289.272c.107.153.287.225.396.062.606-.902 1.079-1.738 2.15-1.806 1.076-.067 2.212.711 2.893 1.919 1.066 1.896 1.024 4.61-.274 5.858-1.203 1.158-3.18.909-4.411-.693-1.141-1.484-1.317-3.721-.754-5.34zm6.581 7.359c-1.046 1.382-3.504 1.297-5.123-.023 1.695 1.076 3.8.762 4.896-.877.824-1.234.966-3.041.574-4.727.699 1.962.803 4.108-.347 5.627z"/><path d="M227.019 38.125c-.139-.175-.331.029-.229.233.12.237.113.634-.083.748-.238.138-.547-.182-.527-.541.016-.306-.35-.465-.383-.152-.068.672.445 1.44 1.004 1.313.563-.128.637-1.073.218-1.601zm-.477-1.037c-.109.289.254.559.373.283.262-.602.94-.296 1.046.409.045.292.358.318.355.023-.011-1.314-1.37-1.788-1.774-.715zm2.194 3.924c-.057.319-.205.566-.44.628-.227-.571-.175-1.211.223-1.545.179-.153-.014-.517-.211-.404-.631.369-.986 1.687-.425 2.548.252.384.732.242.982.049.331-.255.462-.733.362-1.247-.066-.347-.44-.306-.491-.029zm1.024-2.716c.028.353-.343.665-.585.373-.137-.167-.322.026-.224.228.443.906 1.573.252 1.151-.702-.1-.227-.36-.129-.342.101zm-6.072-15.39c-.661-1.616-2.026-3.269-3.396-3.091-1.749-.788-3.668.096-4.326 2.097-.963 1.571-.681 4.111.692 5.647 1.529 3.451 5.411 4.086 7.017.947.806-1.576.777-3.731.013-5.6zm-7.544-.004a.221.221 0 0 0 .178-.142c.793-1.784 2.213-3.147 4.05-2.03 1.835 1.115 2.745 4.061 1.567 5.95-.899 1.44-3.194 1.599-4.564.373-1.095-.979-1.483-2.715-1.231-4.151zm6.586 5.567c-1.249 1.692-3.156 1.52-4.608.166 1.776.782 3.885.229 4.724-1.632.662-1.475.504-3.274-.207-4.751a7.83 7.83 0 0 1 .779 1.998c.369 1.584.111 3.14-.688 4.219z"/><path d="M218.829 23.612c.015.4-.29.797-.621.654-.387-.167-.488-.836-.273-1.159.128-.191-.107-.468-.253-.306-.458.517-.269 1.714.396 2.056.715.369 1.321-.403 1.154-1.291-.057-.311-.415-.241-.403.046zm-.042-1.716c-.204.11.011.515.214.412.531-.269 1.146.443 1.186 1.148.013.241.321.323.337.078.079-1.14-.974-2.048-1.737-1.638zm.379 4.119c.029.215.247.267.292.067.078-.369.253-.718.584-.745.346-.029.563.294.769.635.151.251.409.114.351-.176-.295-1.482-2.204-1.287-1.996.219z"/><path d="M267.48 43.23c-.003-.062-.002-.12-.019-.19-4.198-17.119-16.432-31.49-29.863-35.727-14.089-4.443-27.825 1.998-35.652 15.439-8.047 13.817-6.852 34.658-.087 51.454 6.662 16.539 17.802 27.763 31.817 28.811 14.26 1.065 33.086-7.125 33.187-27.962.001-.276-.18-.436-.36-.457-.37-5.537-6.956-4.436-9.774-5.543-3.004-1.182-5.989-2.746-8.964-4.257a.36.36 0 0 0-.215-.108 132.365 132.365 0 0 0-3.074-1.517c-3.83-1.816-7.686-3.489-11.337-6.005a4321.882 4321.882 0 0 1 20.507-7.398c1.511-.542 3.041-1.34 4.614-1.651 1.458-.29 2.908.135 4.356-.102 2.197-.358 3.761-1.711 5.06-3.784.216-.34.053-.787-.196-1.003zm-21.62 22.08c.454.215.906.43 1.357.648-.256 2.658-1.123 5.019-3.635 5.025-.649.002-1.299-.207-1.926-.563 2.268.081 4.154-2.089 4.204-5.11zm-8.107-3.985c2.343 1.268 4.729 2.387 7.096 3.503-.268 2.709-1.722 4.983-4.195 4.089-1.253-.453-2.241-1.652-2.752-3.194-.416-1.251-.946-3.444-.149-4.398zm21.052-14.718c-2.919.305-5.782 1.915-8.508 2.919a3566.2 3566.2 0 0 1-18.592 6.813c-.384.138-.433.841-.032 1.142 1.765 1.328 3.598 2.466 5.463 3.502-.74.754-.672 2.222-.449 3.559.262 1.575.787 2.986 1.664 4.063 1.451 2.182 3.691 3.729 5.611 3.59 2.332-.168 4.338-2.725 4.155-5.793 2.793 1.379 5.597 2.877 8.416 4.057.81.339 2.329.502 3.908.807-1.342.99-.905 2.584-1.238 4.863-.525 3.615-1.782 3.998-3.5 6.016-.687.805-1.017 1.669-1.387 2.823-.327 1.026-.339 2.549-.853 3.408-1.223 2.042-3.631 2.581-5.534 2.889-1.288.208-2.544.382-3.678 1.111-2.3 1.478-2.766 3.601-6.359 2.399-1.29-.432-2.241-1.262-3.587-1.339-1.383-.079-2.77.742-4.147.446-2.041-.438-2.343-1.986-3.938-2.713-2.475-1.128-4.475-1.331-6.766-3.329-2.472-2.156-4.49-4.398-6.158-7.597-.89-1.711-1.531-3.693-2.692-5.191-1.651-2.134-3.069-2.955-4.279-5.795-2.716-6.371-3.441-13.377-4.004-20.135.6.05.483-1.08-.102-1.207-.36-.079 1.08-7.99 1.271-9.02.488-2.603 1.528-3.821 2.734-5.72.483-.763.819-1.357 1.081-2.326.18-.667.208-1.396.326-2.088.432-2.51.964-2.694 2.544-3.985 2.815-2.299 4.402-6.821 7.763-8.19 1.546-.63 3.546-.24 5.183-.821 2.725-.968 5.235-.969 8.205-.211 1.645.421 3.461.817 5.074 1.531 2.05.908 2.709 2.493 4.168 4.305.983 1.222 1.98 2.08 3.082 3.101 2.162 2.005 2.875 4.118 4.148 6.8.046.098.098.184.147.278a7.147 7.147 0 0 0-1.947-1.325 5.716 5.716 0 0 0-2.063-1.13c-2.333-.681-5.102 1.276-4.081 4.735.029.096.08.166.14.219-.368 1.868 1.383 4.401 2.932 5.153.132.062.262.091.393.141 1.59 1.191 3.539 1.372 5.171-.086 1.334-1.193 1.857-3.266 1.003-5.423-.021-.052-.049-.096-.069-.146 2.043 2.291 4.658 3.527 6.009 7.284.888 2.477 1.477 4.635 3.589 5.597-.073.006-.143.011-.217.019zM240.71 34.311c.016-.458.127-.903.373-1.301.097-.16-.063-.43-.212-.321a2.355 2.355 0 0 0-.423.402c-.219-5.059 6.91-3.309 7 1.854.036 2.079-1.161 3.635-2.771 3.652a3.449 3.449 0 0 1-1.528-.37c-1.099-.893-2.001-2.291-2.439-3.916zm7.506 1.783a6.46 6.46 0 0 0-1.51-5.153 4.68 4.68 0 0 1 1.868 1.992c1.231 2.474.524 5.009-1.304 5.968a3.224 3.224 0 0 1-.957.32c.965-.546 1.692-1.605 1.903-3.127zm10.889 10.487c.048-.04.066-.137.008-.197-2.876-2.993-2.688-8.292-5.788-11.122-.929-.848-2.215-1.203-3.09-2.112-1.326-1.376-2.004-3.783-2.971-5.432-.746-1.272-1.399-2.201-2.396-3.212-1.116-1.131-2.46-1.953-3.458-3.288-.729-.974-1.167-2.925-1.871-3.73-.895-1.021-1.887-1.192-2.976-1.569-3.85-1.333-8.192-3.032-11.974-2.075-3.515.89-7.672 1.062-10.356 4.078-.758.852-1.314 1.937-2.003 2.865-1.17 1.575-2.477 2.008-3.863 3.232-.833.737-1.152 1.259-1.5 2.608-.623 2.422-.676 4.005-2.102 6.042-.697.997-1.142 1.167-1.561 2.563-.873 2.912-1.404 6.452-1.862 9.57-.247 1.688-.59 2.317.065 3.933.066.163.21.263.344.307-.374 5.603.521 11.404 2.221 16.965.732 2.395 1.611 5.148 2.922 7.221.287.453.782.67 1.105 1.076 2.38 2.996 2.545 2.873 4.035 5.871 2.23 4.492 5.219 7.485 8.715 10.264 1.738 1.381 2.609 1.157 4.294 1.882 1.642.706 3.019 2.396 4.713 2.792 2.267.529 4.182-.809 6.524.123 1.328.527 2.566 1.705 3.961 1.627 1.245-.07 2.066-.973 2.993-1.811 2.386-2.156 4.632-1.996 7.437-2.803 3.822-1.1 3.248-4.258 5.01-7.841.896-1.821 2.895-2.271 3.888-3.915 1.138-1.885.356-7.56 1.992-8.273.235-.104.33-.361.322-.626 2.091.565 3.928 1.565 3.922 3.778a.47.47 0 0 0 .21.4c-2.777 17.163-15.328 25.225-28.823 25.713-13.388.48-24.929-7.93-32.429-23.598-7.395-15.448-10.045-35.8-3.696-50.202 6.06-13.742 18.809-21.718 31.994-19.54 15.272 2.525 27.572 16.741 33.392 35.193a.844.844 0 0 0 .178.318c-2.304 3.208-4.389 2.649-7.526 2.925z"/><path d="M245.157 35.205c-.139-.306-.551-.201-.497.146.077.483.009.928-.283 1.208-.111.107-.313.25-.474.204-.29-.083-.218-.728-.126-.96.074-.188-.154-.344-.239-.181-.191.36-.371 1.088-.089 1.545.217.349.708.344.973.254.701-.234 1.164-1.276.735-2.216zm-1.946-1.72c-.503-.713-1.726-1.072-1.899.027-.105.674.451 1.684 1.031 1.414.179-.083.087-.449-.111-.396-.321.086-.538-.533-.398-.828.212-.446.825-.122 1.108.154.229.224.469-.087.269-.371zm1.779-1.96c-.289-.273-.501.198-.371.508.138.329.353.804.171 1.114-.204.346-.664.001-.486-.412.099-.23-.185-.494-.319-.31-.494.67.19 1.838.889 1.664.957-.237.89-1.826.116-2.564zm-7.763-8.179a4.321 4.321 0 0 1-2.442-.623c-.18-.107-.422-.102-.497.147-.335 1.11-.586 2.333-.514 3.598.024.404.443.574.608.339.535.375 1.084.724 1.598 1.149.203.167.451.023.488-.24.185-1.284.538-2.466 1.099-3.502.158-.29.031-.884-.34-.868zm-1.379 3.632c-.456-.236-.91-.505-1.359-.76.08-.852.179-1.664.387-2.462.558.299 1.115.501 1.686.57a10.506 10.506 0 0 0-.714 2.652zm-7.316-5.394a33.475 33.475 0 0 1-1.161-2.654c-.124-.32-.357-.562-.634-.479-.438.131-.896.205-1.272.496-.193.151-.185.441-.07.667.329 1.822 1.119 5.535 3.041 5.285.542-.069 1.224-.646 1.042-1.483-.131-.6-.676-1.288-.946-1.832zm-.277 2.131c-.965.545-1.886-2.404-2.313-3.803.253-.002.496-.053.737-.119.228.572.464 1.14.722 1.695.216.461.441.918.681 1.363.203.378.533.66.173.864zm-6.65 7.828a3.641 3.641 0 0 1-2.057-.5c-.214-.123-.45-.062-.494.243-.229 1.564-.534 3.083-.827 4.617-.002.015.001.026-.002.041-.126.071-.163.343.008.497.773.687 1.546 1.373 2.316 2.062.158.142.414.025.426-.208.107-2.164.326-4.128.981-6.057.093-.272-.075-.71-.351-.695zm-1.251 5.951c-.501-.392-1.001-.785-1.5-1.178a.533.533 0 0 0 .062-.14c.327-1.347.559-2.75.765-4.157a4.13 4.13 0 0 0 1.419.412c-.472 1.575-.771 3.294-.746 5.063zm-6.587-2.251a51.46 51.46 0 0 1-3.508-4.77c-.156-.242-.496-.359-.59-.031-.234.806-.868 1.978-.423 2.934.268.575.837 1.093 1.208 1.558.647.808 1.294 1.614 1.946 2.415.218.266.475-.101.276-.378a.573.573 0 0 1-.047-.063 4.62 4.62 0 0 0 1.19-.984c.143-.16.095-.503-.052-.681zm-3.258-1.232c-.296-.401-.703-.787-.746-1.352-.025-.309.162-.79.325-1.201a53.51 53.51 0 0 0 2.878 4.011 4 4 0 0 1-.816.59c-.037.021-.059.05-.084.079-.517-.71-1.036-1.42-1.557-2.127zm2.353 22.711c-.06-.213-.236-.337-.395-.299-.917.229-1.833.459-2.745.706-.771.208-1.838.263-2.531.706-.945.605-.227 2.163.242 3.16.235.502.882.198.684-.343-.196-.537-.675-1.368-.424-1.876.146-.299 1.373-.426 1.667-.517 1.016-.314 2.028-.643 3.039-.978l.539 1.896c-1.601.14-3.189.458-4.647 1.138-.234.108-.113.599.146.522 1.631-.474 3.22-.849 4.939-.917.193-.007.335-.211.259-.476l-.773-2.722zm12.287.096c-.475-.983-.945-1.97-1.437-2.942-.357-.704-.739-1.44-1.309-1.896-.711-.566-1.984-.573-2.066.626a.559.559 0 0 0 .035.21.241.241 0 0 0-.012.231c.409.974.844 1.927 1.283 2.883.289.628.555 1.38 1.05 1.806.795.689 1.717.166 2.374-.287.167-.114.19-.409.082-.631zm-1.53.33c-.63.09-1.01-.542-1.35-1.199-.497-.961-.992-1.92-1.512-2.863.041-.016.084-.024.118-.072.783-1.052 1.607.093 2.147 1.168.443.881.88 1.768 1.323 2.648-.225.151-.462.28-.726.318zm-2.231 20.64c-.144-.131-.354-.084-.453.054-.321.438-.631.937-.703 1.552-.081-.015-.162.013-.234.086-.08.082-.106.176-.078.314.123.627.699 1.105 1.063 1.541.572.689 1.135 1.445 1.763 2.051.729.703 1.644 1.163 2.386.563 2.221-1.802-2.79-5.304-3.744-6.161zm2.747 5.533c-.717-.047-1.378-.959-1.909-1.543-.516-.563-1.042-1.176-1.591-1.652.022-.015.048-.016.065-.041.27-.361.425-.82.647-1.228l1.833 1.629c.386.343.874.677 1.206 1.107.498.643.564 1.781-.251 1.728zm5.721-19.994c-.259-.001-.391.27-.322.592.413 1.928.505 3.725.473 5.627-.119.135-.102.453.121.547 1.045.439 2.076.707 3.14.891.219.039.339-.26.274-.506-.325-1.251-.588-2.451-.633-3.729-.024-.754.264-1.863.001-2.652-.436-1.326-2.346-.766-3.054-.77zm2.283 2.856a12.873 12.873 0 0 0 .618 3.924 10.7 10.7 0 0 1-1.971-.42c.104-1.785-.081-3.611-.435-5.419.486-.054 1.093-.141 1.458.042.589.292.33 1.179.33 1.873zm16.807 8.81a16.336 16.336 0 0 1-3.675.84c-.204.022-.354.169-.342.456.045.964.157 1.942.393 2.895a.299.299 0 0 0 .062.251c.012.039.019.08.029.12.125.431.48.432.625.179 1.167.427 2.342.702 3.522.844.186.023.338-.189.317-.424a614.376 614.376 0 0 0-.432-4.673c-.027-.297-.268-.568-.499-.488zm.188 4.649a18.815 18.815 0 0 1-3.088-.515 22.55 22.55 0 0 1-.335-2.39 16.804 16.804 0 0 0 3.059-.689c.118 1.197.239 2.396.364 3.594zm5.413-7.276c-.083-.289-.31-.436-.523-.395-.74.137-1.485.182-2.249.174-.292-.004-.434.369-.271.71.605 1.274 1.166 2.585 1.727 3.892-.008.008-.017.012-.024.02-.376.354.035 1.213.441.947.065.148.128.299.192.447.134.303.528.113.406-.205-.066-.172-.136-.344-.203-.518.398-.248.807-.35 1.319-.301.271.024.443-.315.351-.645-.389-1.374-.769-2.753-1.166-4.126zm-.901 4.065a131.2 131.2 0 0 1-1.262-3.314c.513.01 1.021-.019 1.522-.083.28 1.015.565 2.028.85 3.043a2.423 2.423 0 0 0-1.11.354z"/></g><path fill="#3C3C3B" d="M313.35 94.727c-.732-7.788-1.526-15.571-2.303-23.354-.704-7.055-1.051-14.378-2.257-21.343-.608-3.516-1.622-7.19-3.868-9.387-1.145-1.12-2.121-1.605-3.222-2.987-1.573-1.975-1.558-3.398-1.853-6.06-.444-4.017-.764-8.04-1.38-12.029a.866.866 0 0 0-.11-.304c.093-.049.188-.09.274-.149.213-.147.276-.422.23-.674.189.363.624.434.767-.034.56-1.832-.133-2.717-1.212-3.125.008-.03.027-.042.033-.075.208-1.207-.067-2.594-.253-3.817-.146-.964-.247-2.199-.596-3.083-.717-1.815-2.605-.813-3.712-.625-1.041.176-2.529.091-2.883 1.697a.446.446 0 0 0-.068.447c-.037.669.141 1.382.268 2.022.246 1.248.487 2.51.791 3.74-.479.22-.9.576-1.161 1.209-.388.945-.351 2.244.505 2.574.06.023.109-.022.146-.085.156.165.365.259.55.355a.392.392 0 0 0 .314.036c.044.014.086.032.132.042.479 3.743.932 7.511 1.179 11.282.209 3.201-.28 6.375-1.572 9.048.02-.038-1.681 2.266-1.684 2.272-1.806 3.33-2.006 7.757-1.912 11.894.318 13.961 1.399 29.793 4.442 43.35.078.346.298.465.502.424 1.285 2.878 6.123 3.454 8.092 3.561 4.305.231 8.309-1.635 11.602-5.195.285-.309.289-.768.16-1.138.047-.14.076-.295.059-.489zm-15.796-79.67c-1.374-.218-2.973.029-3.59.108-.392.05-.831.087-1.263.182-.123-1.281-.334-2.544-.487-3.819.656.591 1.41.929 2.229.905.855-.026 1.886-.481 2.519-1.364.201 1.307.225 2.75.592 3.988zm-4.896-5.548c.521-.254 1.26-.201 1.814-.29.379-.062 1.47-.513 1.812-.291.166.106.276.281.359.483-.769.64-1.291 1.493-2.314 1.605-.8.087-1.571-.239-2.249-.83.016-.283.142-.464.578-.677zm-.299 9.017c-.024-.013-.046-.044-.071-.048-.103-.018-.366-.082-.6-.07.489-1.557 1.815-1.689 2.974-1.822 1.163-.132 3.847-1.109 4.115 1.57.001.011.004.021.007.032a.56.56 0 0 0-.244-.223c-1.148-.532-2.594-.041-3.758.101-.642.076-1.291.148-1.925.292a3.812 3.812 0 0 0-.498.168zm11.244 81.008c-1.146.13-9.625-.725-9.522-2.326.016-.242-.126-.502-.289-.564-1.181-14.895-4.378-29.846-4-44.852.119-4.783 1.188-7.454 3.472-10.78.783-1.142 1.406-2.026 1.696-3.642.941-5.249-.521-12.349-1.651-17.625.251-.021.479-.053.631-.055 1.078-.018 2.491.159 3.662-.133-.001.028-.008.049-.007.079.145 3.697.526 7.372.866 11.059.204 2.211.192 5.119 1.075 7.165.599 1.389 1.376 2.086 2.382 2.803 2.721 1.942 4.367 4.162 5.258 8.288 1.553 7.191 1.754 15.177 2.49 22.533.777 7.784 1.541 15.569 2.363 23.35.009.08.035.143.054.211-2.506 2.511-5.308 4.128-8.48 4.489zm39.228-78.171c-.056 5.606 2.942 10.517 7.044 14.086-.019.032-.044.055-.057.093-2.182 6.124-3.146 12.753.68 18.443 3.214 4.779 8.731 7.805 14.43 8.103 13.769.723 25.121-11.596 27.265-24.605 2.146-13.019-5.154-28.602-18.576-31.834-11.157-2.689-30.639 1.173-30.786 15.714zm44.238-3.557c7.969 13.208 3.777 31.4-9.373 39.48-6.724 4.129-15.377 4.974-22.005.188-7.267-5.242-7.429-13.353-4.756-21.15a26.864 26.864 0 0 0 3.037 2.056 42.34 42.34 0 0 0 1.878 1.014c-3.916 7.195 1.653 16.273 9.893 15.986 10.121-.354 16.315-13.693 17.804-22.341 1.71-9.94-6.215-17.723-15.399-19.623-1.783-.369-4.203-.463-6.648-.173-.184-.337-.667-.525-.986-.177-.108.118-.212.246-.317.367-5.285.936-10.189 3.786-8.485 9.733 1.387 4.84 6.586 7.711 10.867 9.439 5.847 2.36 12.123 4.36 18.434 4.811-.642 1.786-1.441 3.528-2.306 5.206a.926.926 0 0 0-.374.037c-.324-.021-.653-.016-.929.122-13.045.773-38.584-7.93-32.47-25.694 2.779-8.069 13.833-10.725 21.388-10.798 8.862-.089 16.121 3.845 20.747 11.517zm-30.244 22.072c6.317 3.031 14.321 5.03 20.882 3.661.161.032.332.039.504.033-.267.496-.534.99-.807 1.473-2.774 4.895-7.596 9.886-13.722 8.728-6.667-1.261-9.073-8.011-6.857-13.895zm-1.447-13.382c-.054-.055-.097-.11-.148-.165.092-.217.145-.47.24-.751.513-1.528 1.008-3.041 1.68-4.509 1.068-2.337 2.495-4.377 3.862-6.51a13.88 13.88 0 0 1 1.252-.15c2.252-.16 4.543.075 6.744.66-4.388 3.633-7.771 9.291-8.783 14.904-1.79-.909-3.462-2.008-4.847-3.479zm-.664-.769c-3.889-4.88-.516-9.053 4.24-10.65-.934 1.4-1.707 2.939-2.361 4.445a34.722 34.722 0 0 0-1.18 3.106c-.184.563-.357 2.167-.699 3.099zm15.648-10.246c1.636.553 3.201 1.3 4.643 2.234 5.172 3.356 8.336 8.649 7.274 14.971a26.405 26.405 0 0 1-.836 3.433c-4.837-.377-9.434-1.802-14.017-3.336-2.164-.725-4.429-1.474-6.55-2.478 2.1-5.933 4.965-10.447 9.486-14.824z"/><path fill="#3C3C3B" d="M350.929 62.076c.242-7.905-1.248-13.881-6.139-14.406 1.437-7.28 3.983-14.118 6.347-21.059 1.377-4.047 5.386-12.009 2.177-16.177-2.064-2.682-5.708-1.667-7.884.28-4.013 3.592-4.282 9.765-3.811 15.09-.655-2.252-1.51-4.386-2.617-6.315-1.263-2.201-6.129-6.685-8.422-4.61-3.782 1.563-.732 8.357.7 10.847 1.776 3.086 4.057 5.765 5.82 8.864 2.332 4.1 3.601 8.584 4.646 13.26.006.026.019.043.027.064-8.672 2.245-9.659 14.706-9.413 22.72.354 11.475 3.354 23.119 9.408 32.459.088.135.219.164.331.13.259.119.6.04.704-.349.461-1.723 1.741-6.092 3.155-11.658.243-.105.412-.477.194-.771 1.362-5.424 2.813-11.884 3.76-18.124a.454.454 0 0 0 .058-.375c.444-2.983.767-5.908.906-8.641.388.025.746-.528.388-.91-.107-.115-.223-.212-.335-.319zm-8.77-35.391c.152-5.262-.133-11.477 3.976-15.057 1.948-1.698 2.457-1.591 4.668-.288 1.368 1.757 1.979 3.575 2.133 5.963.001.029.014.054.02.081-.369 2.091-1.07 4.172-1.706 6.168-2.249 7.046-5.038 13.85-6.649 21.109 1.223-8.938 3.271-17.615 4.696-26.511.04-.247-.248-.331-.331-.102-3.308 9.22-4.611 19.646-5.646 29.464-.004.055.005.1.013.145-.035.003-.064.001-.1.004a.496.496 0 0 0 .031-.13c.441-6.425.365-13.964-1.346-20.609.115.015.235-.056.241-.237zm-4.876 6.109c-1.796-2.877-10.004-12.403-7.013-16.518 2.42-3.023 6.84 1.944 8.13 4.279 1.338 2.424 2.114 5.336 2.706 8.085.606 2.813.91 5.637 1.086 8.474-1.101-5.689-3.753-10.97-7.809-14.767-.185-.173-.438.097-.268.3 5.253 6.243 8.098 13.739 7.875 22.215-.786-4.327-2.45-8.457-4.707-12.068zm1.074 27.785c.049.287.407.19.427-.066.065-.838 6.207.008 6.353.037 1.718.342 3.442.855 4.837 2.035-.067 2.813-.41 5.618-.878 8.389-1.844-1.457-4.969-1.654-6.897-1.056-.211.065-.177.453.054.44 1.374-.076 2.688-.081 4.026.348.956.307 1.76.908 2.627 1.369-.128.711-.261 1.42-.399 2.125-.44 2.24-.91 4.475-1.399 6.704-2.42-2.604-6.752-2.169-9.752-1.757-.286.039-.305.529 0 .519 1.895-.064 3.85-.211 5.718.257 1.458.365 2.588 1.178 3.795 2.086a422.095 422.095 0 0 1-1.717 7.4c-1.735-1.502-4.004-2.053-6.175-1.411-.349.104-.198.671.148.601 2.148-.443 4.201.211 5.787 1.783a574.477 574.477 0 0 1-2.977 11.709c-4.051-8.027-7.016-16.543-8.025-25.756-.926-8.445-1.573-21.757 6.353-26.402 4.303-2.521 7.011-.045 8.44 3.6-1.787-1.264-3.86-1.755-6-1.409-.238.039-.183.487.058.472 2.326-.158 4.462.633 6.249 2.311.06.057.124.085.188.101.399 1.412.638 2.911.724 4.315.041.66.057 1.32.062 1.98-1.504-1.026-3.264-1.484-5.039-1.76-1.729-.268-5.009-.823-6.516.454a.316.316 0 0 0-.115.318c.013.088.028.176.043.264zm80.351 46.491c5.963.755 6.807-8.559 5.728-13.655-1.284-6.059-3.929-16.676-9.513-18.99-.026-.04-.073-.059-.123-.07.658-9.622-1.07-19.877-1.877-29.445-.912-10.792-1.082-22.159-3.076-32.773C408.765 6.383 405.492-.655 399.73.05c-6.121.746-7.591 9.291-6.699 15.333.023.163.092.264.179.323-.017 2.057 1.312 4.035 3.147 3.963 1.695-.068 3.491-2.292 2.735-4.39-.014-.041-.046-.057-.069-.086.045-.875.053-1.737.124-2.665.111-.82.227-1.637.34-2.456 2.884-.893 4.434-.254 4.644 1.913.979 2.599.894 6.622 1.253 9.441.779 6.121 1.536 12.246 2.291 18.368 1.427 11.591 2.059 23.218 2.758 34.884-7.59 1.521-14.348 7.938-12.899 18.379 1.635 11.798 12.317 17.523 21.174 14.013zm-4.239-31.567c3.813 1.755 5.563 7.391 7.007 11.594.809 2.353 1.537 4.781 2.018 7.258.629 3.232.762 10.084-2.905 10.951-1.926.452-4.466-.801-5.729-2.547-.721-1-1.356-2.166-1.899-3.309a29.408 29.408 0 0 1-2.196-6.591c-.907-4.362-1.807-16.12 3.486-17.554a.491.491 0 0 0 .218.198zm-8.22-54.225c-.423-3.247-.113-13.929-4.328-14.627-4.235-.701-3.727 6.286-3.556 9.619-.277 1.31-1.009 2.473-2.324 2.305-1.251-.156-2.153-1.556-2.368-2.972a.545.545 0 0 0 .105-.346c-.102-5.15.215-12.558 5.602-13.804 4.066-.939 7.188 3.434 8.553 7.502 2.255 6.716 2.095 14.976 2.69 22.061 1.211 14.38 3.037 28.885 3.635 43.308a18.112 18.112 0 0 0-2.768.175c-1.1-17.928-2.926-35.437-5.241-53.221zm-7.573 71.584c-1.545-10.682 5.843-15.961 13.337-17.508-3.354 2.51-3.315 10.782-2.868 14.838.57 5.166 2.949 13.697 7.507 16.188-7.897 1.057-16.434-2.867-17.976-13.518zm50.177-4.583c1.511 2.097 4.355.991 6.207.7 7.171-1.125 14.08-3.987 20.653-8.067.456-.282.259-1.254-.166-1.138-10.015-.442-20.226 1.091-30.201 2.196-5.034.558-10.067 1.168-15.091 1.886-1.734.248-4.882-.043-5.345 3.043a.513.513 0 0 0 .003.167c-.899 1.747 1.605 3.865 3.076 3.831 6.603-.148 13.629-2.777 20.03-4.939.122.865.369 1.676.834 2.321zm13.668-2.348a50.367 50.367 0 0 1-7.505 1.751c-.985.151-2.663.825-3.561.408-1.897-.884-2.632-2.743-2.834-5.171.603-.061 1.204-.128 1.806-.186 7.781-.759 15.646-.895 23.41-1.934-3.656 2.18-7.42 3.903-11.316 5.132zm-25.854 2.233c-1.623.368-3.251.704-4.881 1.012-.815.155-1.631.309-2.448.445-.512.086-6.397.967-3.44-3.21.018-.026.021-.054.025-.082 1.38-1.521 4.131-1.224 5.63-1.423 2.096-.278 4.192-.545 6.288-.798 3.374-.408 6.749-.776 10.127-1.121-.049.69-.072 1.414-.032 2.129-3.724 1.224-7.493 2.192-11.269 3.048zm33.73-33.747c.219-.087.157-.495-.072-.481-3.818.223-12.9 2.971-13.313-4.099v-.005c.398-.129.363-.889-.092-.864-5.779.307-11.577 1.239-17.314 2.115-2.656.407-5.31.843-7.961 1.287-1.326.223-2.65.458-3.975.692-.779.148-1.561.287-2.344.416-2.014.607-3.176-.483-3.505-3.227 1.733-2.14 7.789-1.563 9.626-1.64 2.923-.122 5.845-.243 8.766-.366 5.568-.231 11.338.008 16.848-.992.258-.045.288-.372.136-.531.22-.047.405-.278.313-.627-.996-3.783 5.734-3.47 7.014-3.552 1.953-.127 3.907-.2 5.855-.4.472-.048.43-.868-.037-.884-2.19-.078-16.056-1.491-13.629 5.153a.524.524 0 0 0 .141.211c-7.485-.678-15.263.393-22.756.719-3.431.148-7.237-.244-10.611.508-1.534.342-2.464 1.159-2.727 2.998a.506.506 0 0 0 0 .165c-.084.768.123 1.554.694 2.305 1.922 2.526 5.976.849 8.245.432 8.93-1.641 17.915-2.479 26.865-3.839-3.394 7.309 11.815 5.318 13.833 4.506z"/><g fill="#3C3C3B"><path d="M438.889 18.459c4.178-.766 8.91-2.198 12.751.46.007.111.045.22.135.305 4.411 4.15 20.225 4.999 19.269-5.329-.435-4.689-4.747-6.68-8.221-7.102-3.194-.388-9.932.135-11.461 4.196-.007.019-.007.035-.011.053-3.15 2.462-7.332 1.52-10.928 1.25a123.521 123.521 0 0 0-12.733-.294c-2.98.084-13.255-.067-11.111 6.586.137 4.853 6.973 3.409 9.631 2.746 4.215-1.051 8.417-2.091 12.679-2.871zm-21.607.001c-.587-6.447 9.088-5.288 12.467-5.332 3.353-.041 6.707.056 10.053.287 3.977.275 8.809 1.605 11.908-1.834.106-.007.211-.065.281-.207 1.314-2.617 6.215-3.441 8.484-3.525 1.457-.054 2.946.088 4.356.531 1.271.343 2.415.994 3.43 1.95 1.665 1.416 2.036 3.118 1.11 5.107-.694 3.523-2.26 4.304-5.223 5.068-1.25.321-2.506.479-3.783.517-2.959.088-5.439-.648-7.922-2.469a.443.443 0 0 0-.109-.23c-3.665-3.828-9.842-1.629-14.141-.825-3.403.636-19.485 6.459-20.911.962z"/><path d="M467.672 17.313c.212-.238-.087-.612-.323-.444-2.742 1.938-5.264 2.43-8.39 1.724-3.271-.739-7.411-3.841-3.748-7.872.216-.24-.096-.658-.338-.461-2.679 2.159-2.473 6.422.401 8.255 3.582 2.287 9.386 2.175 12.398-1.202z"/></g><path fill="#3C3C3B" d="M573.273 3.527c-3.954 5.5-5.781 14.953-6.975 22.196-2.462 14.953-2.142 31.517.577 46.574-.125.255-.062.639.146.78.28 1.501.575 2.991.903 4.457 1.845 8.246 4.787 16.192 9.252 22.492 3.869 5.458 9.719 10.303 15.289 6.528.161.105.361.096.508-.143 4.191-6.857 5-15.723 4.962-24.294a207.547 207.547 0 0 0-1.793-26.09 212.214 212.214 0 0 0-4.917-25.375c-2.055-7.947-4.299-16.504-8.061-23.344-2.35-4.278-6.383-8.661-9.891-3.781zm-3.817 13.145c1.294-.59 3.466 1.346 4.415 2.345a10.363 10.363 0 0 1 2.196 3.496c-2.406-1.389-5.148-2.054-7.732-1.44.324-1.479.68-2.946 1.076-4.393.016-.006.029-.001.045-.008zm-3.2 18.493c.155-1.886.356-3.766.602-5.636 1.902.173 3.725.666 5.457 1.78 1.002.643 3.627 2.565 4.349 4.313-3.371-1.542-7.127-1.775-10.445.085.012-.181.023-.363.037-.542zm-.402 7.028c2.286-.691 4.937 1.343 6.907 2.624 1.855 1.206 3.737 2.5 5.095 4.534-3.988-1.696-8.105-1.563-12.071.567-.045-2.587-.02-5.166.069-7.725zm.316 16.342c4.303-.3 10.678-.162 13.46 5.052-4.386-.838-8.842-2.014-12.866 1.039a138.23 138.23 0 0 1-.594-6.091zm3.27 20.841a111.81 111.81 0 0 1-1.389-6.364c3.016-.442 6.074-.386 8.98.923a14.333 14.333 0 0 1 4.359 3.052c1.214 1.245 3.377 3.252.555 2.46-4.043-1.133-8.482-1.768-12.285.779-.075-.288-.151-.574-.22-.85zm3.514 10.581c4.535-1.798 10.203.312 13.756 4.548-3.713-.738-7.491-1.09-10.848 1.549a60.931 60.931 0 0 1-2.908-6.097zm11.601-76.888c5.022 12.673 8.222 27.106 10.196 41.136a210.619 210.619 0 0 1 1.986 23.808c.246 9.443.188 19.57-4.282 27.405-6.529 3.753-12.18-1.562-16.362-8.954 3.838-2.164 7.707-1.559 11.721-.67.313.072.597-.5.363-.836-3.623-5.217-10.396-8.369-15.563-5.829a79.197 79.197 0 0 1-2.816-8.398c4.814-1.954 9.388-1.036 14.209.522.229.074.451-.218.482-.497.353-3.204-3.945-6.085-5.711-7.133-3.45-2.046-7.229-2.353-10.925-1.685a125.664 125.664 0 0 1-1.004-6.611c4.373-2.744 9.055-1.064 13.63-.33.319.051.663-.426.491-.852-2.528-6.209-10-8.04-14.869-6.604-.16-2.335-.257-4.678-.306-7.017.039.01.081.013.127-.007 4.379-1.847 8.819-1.664 13.06.725.478.268.783-.459.564-.969-1.546-3.618-4.636-5.574-7.39-7.239-1.904-1.151-4.146-2.634-6.261-2.028.066-1.57.162-3.128.277-4.677 3.79-.952 7.29-1.029 10.964.846.261.134.63-.075.642-.494.073-2.369-2.734-4.697-4.017-5.708-2.075-1.636-4.361-2.456-6.757-2.479.316-2.249.708-4.478 1.171-6.68 3.073.059 5.795.572 8.609 2.522.387.269.725-.343.61-.807-.641-2.596-1.922-4.635-3.634-6.131-1.104-.966-2.585-2.17-3.974-2.042.281-.968.576-1.929.895-2.879 1.227-3.668 2.77-9.424 6.246-9.276 3.719.161 6.049 5.886 7.628 9.868z"/><path fill="#3C3C3B" d="M594.64 2.89c-.018.003-.03-.001-.047.003-5.824 1.551-9.675 8.542-9.954 14.174-.065 1.311.058 4.81 2.201 4.531 1.117-.146 2.051-1.842 2.784-2.523 1.891-1.756 3.995-2.907 6.623-3.008.981 2.856 3.883 2.77 6.646 2.461-.001 3.306 2.025 4.758 5.094 5.368-1.59 2.354-.82 4.869.302 7.336.03.063.071.108.116.141.021.082.086.149.203.158.799.062 1.603.109 2.406.15-1.326 2.416-1.309 4.77.125 6.846-1.998 1.42-3.809 3.451-3.039 6.015.051.167.113.334.178.5-.041.015-.083.028-.12.055-2.068 1.455-4.268 2.534-6.774 3.028-1.129.222-2.863-.06-3.882.561-1.766 1.078-.237 2.991.757 4.004 4.16 4.254 10.783 4.526 16.107 2.465 4.128 3.351 10.421-3.816 11.726-7.467.073-.204-.074-.358-.245-.387 6.006-.188 7.197-10.837 6.154-15.48.693-.187 1.344-.449 1.923-.827 2.629-1.715 3.028-5.524 2.917-8.335-.125-3.173-1.121-6.301-2.903-8.943-1.497-2.216-3.632-4.367-6.56-4.008-.884.109-1.771.396-2.647.793a.362.362 0 0 0-.03-.322c-1.982-3.545-4.971-6.387-8.791-7.958-2.955-1.215-5.386-.618-7.23 1.236-.011-.008-.016-.021-.028-.026-2.792-1.724-6.112-2.586-9.415-2.383-1.579.097-3.629.5-4.597 1.842zm-3.463 13.881c-1.007.643-1.898 1.456-2.73 2.302-.188.192-.938 1.263-1.176 1.278-.574-.383-1.146-.765-1.723-1.148a7.323 7.323 0 0 1-.109-1.722c.079-5.241 3.588-11.656 8.742-13.595-.002.012-.008.023-.01.035-.4 1.716.387 3.901.698 5.577.36 1.932.616 4 1.169 5.903-1.757-.09-3.37.417-4.861 1.37zm7.73 35.336c-.411-.564-1.053-2.066-.521-2.72.095-.117 1.308-.083 1.481-.103a17.857 17.857 0 0 0 3.367-.675c1.96-.598 3.749-1.553 5.384-2.767.664 1.391 1.629 2.743 2.349 4.024.816 1.451 1.525 3.066 2.538 4.393.136.178.274.338.417.486-4.661 1.147-11.782 1.799-15.015-2.638zm26.624-4.684c-2.637 3.704-8.24 11.908-12.265 4.772a939.295 939.295 0 0 1-3.476-6.21c-.851-1.538-1.306-2.936-.403-4.576.496-.902 1.377-1.663 2.125-2.39.24.291.506.58.807.859 3.124 2.918 7.329 5.822 11.465 7.113a6.392 6.392 0 0 0 1.942.307.317.317 0 0 0-.195.125zm-2.511-1.653c-2.749-1.137-5.362-2.816-7.729-4.59-1.63-1.221-3.483-2.553-4.191-4.513-.615-1.7-.044-3.315.454-4.961 3.911.185 7.837.181 11.752.252 2.32.042 5.368.501 7.966.024.53 5.091-.287 17.081-8.252 13.788zm3.131-34.85c4.085-1.423 6.903 2.271 8.381 5.57 1.174 2.625 1.713 5.556 1.396 8.425-.191 1.715-.581 3.781-1.949 4.995-1.526 1.354-3.793 1.317-5.719 1.307-6.416-.039-12.853-.401-19.268-.152a.397.397 0 0 0-.031-.166c-.589-1.356-1.348-2.912-1.193-4.43.21-2.05 2.003-3.44 3.435-4.742a94.705 94.705 0 0 1 7.078-5.827c2.387-1.776 5.015-3.985 7.87-4.98zM610.89 2.729c2.168-.818 4.191-.055 6.119.954 2.975 1.555 5.309 3.996 6.941 6.871a.41.41 0 0 0 .258.198c-2.369 1.196-4.631 3.132-6.498 4.524-3.188 2.378-6.973 5.06-9.422 8.215-1.489-.536-3.34-1.092-4.15-2.561-.881-1.592-.368-3.938.059-5.592.691-2.667 1.725-5.303 2.873-7.81.785-1.72 1.896-4.074 3.82-4.799zm-2.768 1.341c-.471.578-.9 1.241-1.279 1.988-1.794 3.523-3.771 7.953-3.938 11.987-1.057-.028-2.303.018-3.285-.292-2.832-.892-2.728-2.482-3.186-4.675-.471-2.264-1.202-4.728-1.297-7.042-.279-6.831 9.499-3.85 12.985-1.966z"/><path fill="#3C3C3B" d="M612.771 55.832c-.015-.004-.024-.014-.037-.018-4.904-1.141-10.488 2.726-12.903 6.976-.561.989-1.845 3.748-.153 4.395.88.338 2.235-.602 3.044-.834 2.084-.6 4.086-.645 6.064.334-.396 2.608 1.777 3.709 3.936 4.582-1.297 2.561-.373 4.5 1.653 6.209-2.098 1.183-2.518 3.439-2.657 5.803a.3.3 0 0 0 .031.156c-.018.07.004.15.086.204.566.369 1.14.729 1.717 1.084-1.925 1.338-2.837 3.168-2.594 5.354-2.031.296-4.162 1.14-4.602 3.435-.028.15-.047.306-.064.46a.365.365 0 0 0-.11-.007c-2.097.296-4.142.247-6.185-.38-.921-.281-2.088-1.198-3.082-1.127-1.728.124-1.348 2.223-1.014 3.406 1.398 4.97 6.178 7.846 10.912 8.391 1.73 4.256 9.184 1.236 11.579-1.067.134-.128.085-.308-.03-.398 4.505 2.271 9.563-5.5 10.615-9.515a5.33 5.33 0 0 0 1.74.133c2.613-.271 4.4-3.061 5.424-5.283a15.72 15.72 0 0 0 1.366-8.096c-.234-2.32-.964-4.844-3.265-5.745-.694-.271-1.463-.405-2.266-.45a.328.328 0 0 0 .105-.26c-.072-3.545-1.16-6.949-3.361-9.703-1.705-2.131-3.73-2.646-5.818-1.951-.006-.012-.004-.022-.012-.032-1.382-2.459-3.492-4.462-6.009-5.633-1.2-.561-2.868-1.074-4.11-.423zm-8.001 9.358c-.995.094-1.972.365-2.918.688-.214.072-1.188.6-1.368.516a606.86 606.86 0 0 0-.82-1.581c.148-.485.347-.945.596-1.379 2.115-4.028 7.219-7.586 11.782-7.015a.488.488 0 0 1-.022.023c-.966 1.168-1.244 3.177-1.671 4.601-.493 1.642-1.116 3.346-1.454 5.044-1.261-.777-2.652-1.033-4.125-.897zm-8.163 30.487c-.081-.604.034-2.025.685-2.318.115-.053.994.461 1.13.518.891.365 1.808.648 2.749.831 1.682.325 3.374.306 5.055.022-.053 1.346.129 2.781.154 4.063.033 1.452-.076 2.988.15 4.426.03.191.069.371.115.543-3.886-.99-9.394-3.349-10.038-8.085zm21.476 7.083c-3.398 1.808-10.751 5.907-10.918-1.238-.051-2.068-.095-4.14-.127-6.21-.025-1.533.188-2.798 1.496-3.706.721-.501 1.668-.735 2.506-.997.063.322.147.652.258.99 1.158 3.516 3.122 7.457 5.665 10.123.431.448.868.78 1.311 1.019a.245.245 0 0 0-.191.019zm-1.205-2.292c-1.583-1.988-2.85-4.339-3.898-6.665-.723-1.603-1.569-3.38-1.323-5.184.214-1.563 1.269-2.585 2.282-3.659 2.813 1.716 5.711 3.293 8.57 4.922 1.693.967 3.762 2.55 5.866 3.225-1.606 4.156-6.913 13.117-11.497 7.361zm15.982-25.739c3.572.542 4.202 4.538 3.996 7.688-.162 2.507-.915 4.993-2.276 7.088-.813 1.252-1.909 2.695-3.397 3.086-1.656.435-3.313-.506-4.729-1.289-4.718-2.61-9.323-5.481-14.152-7.869a.37.37 0 0 0 .043-.143c.096-1.287.148-2.797.858-3.91.958-1.504 2.825-1.861 4.394-2.293a76.639 76.639 0 0 1 7.506-1.666c2.458-.414 5.263-1.07 7.757-.692zm-8.041-12.484c1.92.237 3.113 1.645 4.141 3.199 1.582 2.402 2.346 5.232 2.423 8.117a.362.362 0 0 0 .112.256c-2.218-.025-4.646.563-6.569.892-3.283.56-7.126 1.114-10.172 2.573-.888-1.014-2.035-2.189-2.057-3.653-.025-1.588 1.273-3.198 2.239-4.31 1.555-1.787 3.352-3.412 5.183-4.895 1.253-1.015 2.997-2.392 4.7-2.179zm-2.568-.074a9.345 9.345 0 0 0-1.723 1.024c-2.706 2.009-5.902 4.645-7.607 7.702-.769-.447-1.706-.912-2.309-1.547-1.741-1.831-1.039-3.021-.516-4.903.54-1.944.967-4.146 1.805-5.978 2.477-5.404 8.517.839 10.35 3.702zm86.895 21.161c.174-.044.294-.138.347-.263 9.151 1.773 5.507-14.284 5.132-17.244-.859-6.791-1.648-13.822-3.829-20.782-.29-.924-.614-1.816-1.073-2.655.258.022.48-.041.502-.237 1.178-11.619-1.093-25.616-21.242-34.183-8.23-3.499-18.253-5.561-26.125-4.81-8.27.79-12.508 5.502-15.031 10.403-3.757 7.28-5.49 15.659-5.961 23.992-.464 8.225 2.146 16.843 4.818 25.524 3.9 12.672 10.285 32.605 31.857 40.432 21.357 7.746 35.618-7.402 30.605-20.177zm-7.018-2.112c-.017.059-.038.119-.021.199 1.236 6.199-1.982 13.095-11.474 13.191-11.474.117-19.298-9.083-22.475-15.905-5.289-11.36-7.455-23.017-7.731-33.82-.244-9.694-.901-24.22 9.341-29.775 7.562-4.099 21.234-1.851 28.415 6.106 5.234 5.799 4.945 11.475 5.8 17.121a.6.6 0 0 0-.157.083c-.008-.121-.104-.25-.34-.354a22.766 22.766 0 0 0-1.531-.615c.016-.03.04-.054.043-.091.41-3.348-.411-7.02-2.736-10.642-.656-1.021-2.734-3.911-4.764-3.773-16.334-7.301-23.344 6.819-24.518 14.271-.577 3.665-.383 10.196 2.154 16.164-3.68 5.923-4.148 15.923 2.32 23.34 2.11 2.418 13.125 9.971 15.21 6.512.849.11 1.688.136 2.493.039 3.836-.459 4.853-2.968 5.174-5.511a20.14 20.14 0 0 0 4.797 3.46zm-11.821-52.595c-.568.042-.419.721.27.792.999.101 2.087.139 3.111.416 1.845.175 2.489 1.116 1.93 2.821l-1.192.104c-1.493.042-3.114-.155-4.65-.208-2.192-.072-5.854-.283-7.064.902-.784.771-.326 1.992 1.198 2.738 1.015.496 2.193.587 3.251.811 1.729.366 3.468.975 5.176 1.214-1.044.881-1.837 2.051-2.444 3.366-2.712-.742-5.403-1.208-8.052-1.335-1.889-.09-4.535-.134-5.155 1.127-.567 1.161.87 2.348 2.606 3.1 2.783 1.208 6.068 2.314 9.018 3.185a31.836 31.836 0 0 0-.186 2.44c-3.437-.603-9.201-.979-9.141 1.469.029 1.171 1.659 2.024 3.188 2.535 1.398.465 2.723.869 4.065 1.493.77.356 1.478.776 2.229 1.136.183 1.466.445 3.142.83 4.925-22.957-7.641-13.138-39.669 7.855-35.525 1.141 1.667 2.187 3.551 2.309 3.858.968 2.393 1.203 4.654 1.047 6.881-.004.046.018.088.029.131-3.201-.878-5.601-.502-7.393.622a1.038 1.038 0 0 0-.352-.314c-1.543-.901-3.292-1.34-5.049-1.77-.32-.079-2.234-.419-2.313-.504-.669-.74 1.84-.722 2.255-.748 3.052-.193 7.443.686 9.838-.414 1.367-.628 1.691-1.941.369-3.239-1.968-1.933-5.157-2.199-7.583-2.009zm-.811 13.903c-.437 1.15-.748 2.376-.964 3.612-1.506-.594-3.046-1.112-4.57-1.647-1.063-.372-5.949-1.579-4.008-2.567.905-.462 3.855-.068 5.098.035 1.469.123 2.953.332 4.444.567zm-1.405 8.671a32.446 32.446 0 0 0 .123 3.263l.035.346c-1.703-.894-3.782-1.573-5.416-2.085-1.053-.33-1.787-.935-.727-1.278.652-.21 1.478-.265 2.252-.313a24.52 24.52 0 0 1 3.733.067zm2.738 15.902a33.744 33.744 0 0 0 1.253 3.02c-1.153-.727-2.555-1.219-3.986-1.559-1.189-.283-2.368-.433-3.55-.621-.615-.098-2.6-.27-3.116-.65-.308-.678-.618-1.355-.925-2.032.452-.183.92-.356 1.401-.515.271-.094.288-.337.146-.546a20.951 20.951 0 0 0 3.729 1.415c.064.259.287.566.642.744 1.385.69 3.051.878 4.406.744zm-.674 11.353c-.312.558.615 1.314 1.525 1.142.99-.187 1.184-.946.671-1.722-.62-.939-1.962-1.546-3.281-1.778-.703-.125-1.825.014-2.472-.265-1.92-.825-.281-1.404.757-1.581 2.126-.358 4.362-.565 6.425-1.005.52.85 1.069 1.686 1.699 2.473-.215 2.457-1.043 7.078-5.649 6.501-.28-.366-1.041-.619-1.304-.279-1.477-.433-3.268-1.312-5.448-2.817-2.949-2.033-4.467-5.135-5.706-7.55-2.289-4.467-3.2-8.556-1.693-12.327a19.446 19.446 0 0 0 5.702 4.624c-.031-.003-.063-.009-.099-.007-2.316.184-5.104 1.469-2.6 3.596 1.174.998 3.09 1.527 4.625 1.855 3.143.672 5.813.703 8.527 2.605.171.12.354.193.534.25a78.612 78.612 0 0 0-6.15.473c-1.521.172-2.947.565-3.237 1.665-.234.878.443 1.923 1.785 2.597.654.33 1.377.518 2.084.635.368.058 3.7.213 3.305.915zm-4.849 3.498c-2.219-.271-4.254-1.14-6.095-2.633-2.099-1.54-3.708-3.225-4.827-5.055-1.508-2.337-2.121-4.709-2.479-6.992-.696-4.427.188-8.336.938-12.368a22.79 22.79 0 0 0 2.091 3.405c-4.138 4.949-1.006 15.703 6.834 21.568a18.893 18.893 0 0 0 3.538 2.075zm2.162-17.125c-14.819-4.708-16.26-19.581-15.09-26.826 1.283-7.948 6.503-19.567 23.193-13.886.297.305.621.699.947 1.133-12.138-3.768-19.332 8.255-20.846 13.665-2.015 7.19-1.459 19.642 13.861 23.808.238.99.519 2.006.841 3.031-.735-.109-1.471-.221-2.203-.332-.08-.229-.313-.468-.703-.593zm3.676-6.137c-1.129-6.181-3.602-23.457 10.998-20.222-8.716.906-7.714 13.26-7.066 18.202.645 4.963 1.43 10.125 3.893 15.257.95 1.981 3.373 6.48 6.548 9.139-10.871-4.76-13.131-15.571-14.373-22.376zm19.193-6.989a192.523 192.523 0 0 1 2.076 11.973c-.008-.015-.011-.03-.023-.046-.406-.574-.986-.914-1.625-1.111-.116-.283-.479-.586-.932-.651-2.115-.321-4.025-.163-6.06-.235-1.202-.043-3.13-.27-2.198-1.541.367-.5 1.357-.719 2.133-.879 2.472-.511 6.053-.502 6.549-2.57.036-.162-.048-.308-.191-.425.214-.92-.987-1.973-2.479-2.543-.998-.382-2.004-.483-2.967-.486-.637-.002-1.232.064-1.852.095-.481.023-1.435-.104-2.032-.054-.069-2.383 2.939-2.458 5.5-3.265 1.437-.45 2.784-1.072 2.765-2.281a.56.56 0 0 0 .308-.259c.524-1.05-1.708-2.323-3.175-2.747-2.113-.612-3.93-.205-5.409.359-.587.224-.121 1.151.745 1.05 1.092-.127 2.346-.4 3.604-.161 1.284.243 1.683.842 2.544 1.427-.941.438-1.922.829-3.087 1.074-1.296.277-2.702.435-3.907.818-2.008.639-3.717 2.245-1.986 4.176.273.398.767.805 1.342 1.04 1.113.454 2.342.515 3.399.504.907-.011 1.821-.205 2.799-.04 1.161.197 1.495.682 2.039 1.331.056.068.149.115.229.171-2.763 1.566-9.881.452-9.611 3.97.242 3.151 6.572 3.162 10.014 2.839 1.061.245 2.33 1.163 1.082 1.556-.555.175-1.369.141-2.024.173-.919.048-1.809.129-2.638.312-1.709.378-3.593 1.209-4.107 2.441-.316.76.061 1.819 1.531 2.293 1.035.334 2.073.113 3.021.124 1.344.017 2.701.222 4.068.398.098.087.189.194.279.356.401.722-.432.486-1.207.545-1.224.093-2.459.17-3.666.288-1.304.13-2.609.33-2.9 1.273-.242.794.445 1.738 1.74 2.264.916.37 1.763.306 2.662.466 1.354.238 2.076.869 3.104 1.563.771.525 1.816.296 1.496-.379-.57-1.201-2.441-2.187-4.117-2.59-.473-.111-1.2-.072-1.618-.233-1.155-.452-.017-.671.46-.793 1.245-.318 2.978-.271 4.363-.416 1.312-.136 2.904-.307 2.347-1.577-.179-.407-.509-.731-.912-.999.095-.295-.12-.68-.758-.877-1.509-.465-2.961-.646-4.438-.748-.782-.053-1.686.059-2.47-.059-.819-.125-1.013.104-.472-.551 1.413-1.716 4.734-1.268 7.229-1.853.802-.187 1.459-.601 1.71-1.155.346 2.453.65 4.905.802 7.32.172 2.768.313 13.815-8.781 5.402-6.033-5.584-6.586-13.537-7.414-19.174-.82-5.599-2.537-18.072 6.897-19.159.089.059.188.119.308.166 5.452 2.118 5.315 9.198 5.911 12.09zm-49.828 36.298c-6.232-8.341-9.226-17.148-11.771-25.525-2.507-8.255-4.94-16.424-4.513-24.251.751-13.648 2.866-37.132 29.941-32.963 10.61 1.634 22.046 6.494 28.301 13.726 6.316 7.307 6.273 15.135 6.385 22.133-.678-.813-1.568-1.55-2.828-2.175a.763.763 0 0 0-.497-.318c-.042-.007-.078-.01-.116-.016 1.318-9.995-6.521-27.012-26.924-27.195-21.25-.192-20.48 20.68-20.313 32.2.129 8.975 1.814 18.264 5.011 27.659 2.202 6.475 4.743 14.092 12.81 19.717 16.426 11.458 29.717 1.482 28.054-8.908.868.338 1.788.626 2.75.862 3.854 8.854-1.769 16.841-11.442 20.077-12.84 4.294-27.856-5.664-34.848-15.023z"/><g fill="#3C3C3B"><path d="M765.509 56.7c.111-.253.007-.471-.164-.57-.227-.747-.797-1.496-1.325-2.05-.563-.591-1.278-.997-2.102-1.048-.236-.015-.388.099-.457.258a.301.301 0 0 0-.223.256c-.513 3.516-2.083 7.022-5.185 8.877-.096-1.721-.968-3.314-2.607-4.087-2.984-1.406-6.64.751-8.725-2.618-.182-.293-.702-.249-.79.071a.381.381 0 0 0-.224.316c-.06 1.022.084 2.247.417 3.468-7.562-.955-12.765 5.607-13.089 12.949-.141 3.163.465 6.355-.137 9.499-.461 2.402-1.566 4.609-2.227 6.953-.872 3.098-.938 6.478 1.535 8.871 2.09 2.023 5.372 2.746 8.061 1.588 3.521-1.518 4.854-5.434 7.232-8.125 5.431-6.144 16.107-5.618 16.082-15.718.76.747 1.345 1.616 1.93 2.646a.418.418 0 0 0 .119.131c.173.24.65.223.744-.125 1.357-5.038-1.285-10.589-6.062-12.629 2.921-2.446 5.654-5.407 7.197-8.913zm-19.323 31.991c-4.245 3.396-7.318 13.623-14.237 8.673-4.061-2.905-2.01-7.688-.712-11.473.892-2.6 1.343-5.051 1.338-7.81-.008-3.854-.506-7.617 1.235-11.228 1.988-4.121 6.114-6.608 10.639-6.262.773 2.11 2.133 4.036 4.057 4.667-1.4.382-2.63 1.283-3.643 2.403-.878.971-1.607 2.094-2.607 2.949-.922.789-2.195.762-3.021 1.527-.329.305-.182.947.274 1.039l.087.018c.08.016.168.012.253-.004 4.407 1.471 10.661 1.059 13.3-3.154.36.936 1.246 1.663 2.365 2.227 1.431.719 2.954 1.239 4.35 2.032.184.104.354.214.521.323a.6.6 0 0 0-.126.387c.22 9.123-8.59 9.301-14.073 13.686zm10.77-23.614a.528.528 0 0 0-.216.424c-.155.249-.149.601.168.759 4.101 2.048 6.437 5.315 6.701 9.594-.579-.869-1.403-1.6-2.273-2.185-2.01-1.348-7.888-2.392-7.306-5.645.074-.416-.548-.77-.744-.314a4.407 4.407 0 0 0-.158.428c-3.212 3.857-7.008 5.411-11.873 4.572 1.082-.448 1.969-1.08 2.859-2.08.752-.844 1.378-1.797 2.163-2.611 1.299-1.347 2.662-1.858 4.402-2.41a.235.235 0 0 0 .175-.238c.381-.145.31-.74-.071-.855-1.924-.586-3.469-1.102-4.634-2.875a7.807 7.807 0 0 1-.676-1.309c.055-.21-.011-.453-.22-.549a14.78 14.78 0 0 1-.548-2.132c.648.704 1.614 1.132 2.631 1.331 1.229.24 2.476.056 3.711.158 2.441.201 3.789 1.592 4.03 3.929-.061.151-.021.323.081.465.07.157.211.236.359.251l.029.004c.011 0 .021.002.031.001a.47.47 0 0 0 .15.004c1.986-.319 3.5-2.396 4.471-4.024a12.68 12.68 0 0 0 1.77-5.62c.52.232.949.572 1.314 1.021.416.509.659 1.136 1.094 1.627l.002.001c-2.247 3.013-4.474 5.874-7.422 8.278z"/><path d="M736.714 92.358c-.229-.176-.505-.133-.719.043a1.71 1.71 0 0 0-.625 1.342c.002.549.236.957.667 1.276.31.229.772-.151.652-.501-.169-.492-.156-1.029.165-1.455.165-.215.053-.554-.14-.705zm3.847-1.445c-.044-.322-.55-.443-.748-.197-.36.446-.538.994-.893 1.442-.432.544.276 1.312.783.783.54-.563.967-1.222.858-2.028zm-3.869-3.014a.476.476 0 0 0-.531.689c.128.238.367.373.481.621.115.249.101.498.078.764-.034.389.577.555.745.202.333-.697.123-2.079-.773-2.276zm5.236-23.778c-.917.48-1.8 1.621-1.44 2.696.152.455.756.443.913 0 .251-.705.355-1.392 1.026-1.841.529-.353.068-1.154-.499-.855zm.415 2.46c-.145.451-.311.834-.679 1.149-.334.285-.767.473-1.181.608-.504.165-.377.833.121.887 1.326.143 2.628-1.219 2.59-2.529-.015-.493-.701-.582-.851-.115zm-4.153-1.223c-1.128.264-2.172 1.51-1.78 2.704.187.569.955.435 1.009-.138.068-.711.268-1.445.996-1.746.494-.202.324-.949-.225-.82z"/></g><path fill="#3C3C3B" d="M745.341 50.85c1.549.089 2.904-.395 4.049-1.22.04.065.099.124.196.162 2.501 1.008 5.674-.884 7.021-2.984 1.665 3.752 2.184 8.905 2.832 11.964a.601.601 0 0 0 .127.505.214.214 0 0 0 .103.095.417.417 0 0 0 .428.064c3.481-1.437 5.824-3.243 4.294-7.106-1.103-2.785-2.831-5.37-4.94-7.587.715-.58.952-2.007 1.045-2.87.027-.267.063-.565-.066-.801 4.572-1.328 6.364-6.474 4.142-11.793-1.884-4.51-5.079-8.688-8.325-12.304-1.881-2.096-5.835-7.452-9.046-7-4.632-3.85-10.042-6.713-14.128-3.848-1.869-1.059-4.039-1.739-5.771-.142-1.439 1.328-1.793 3.233-1.529 5.348a.293.293 0 0 0-.233-.021c-2.809.948-1.657 7.847-1.325 9.798.842 4.955 2.111 10.113 4.475 14.578 1.387 2.618 3.524 5.197 6.063 7.155-.12.059-.201.183-.097.313 2.652 3.285 6.099 7.428 10.685 7.694zm10.871-4.554c-.863.92-1.847 1.652-3.031 2.104-.968.369-1.895.348-2.859.444 1.318-1.3 2.266-3.068 2.786-4.815a.367.367 0 0 0-.124-.403c.13-.148.267-.292.383-.453a.452.452 0 0 0 .072-.331c1.226.7 2.153 1.912 2.887 3.381a.279.279 0 0 0-.114.073zm-2.904-6.358c-.297-.167-.637.287-.354.499 2.883 2.162 5.511 4.475 7.622 7.427a27.361 27.361 0 0 1 2.31 3.82c1.492 3.051-.205 5.274-2.826 6.615-.08-5.07-1.725-17.201-7.84-16.953-.559.023-.634.842-.088.972.236.057.459.134.678.221-.746.611-1.445 1.249-2.213 1.818.047-.331.151-.657.32-.978.125-.279.001-.657-.333-.714l-1.962-.344a79.234 79.234 0 0 0 1.928-1.098c.311-.185.957-.418 1.036-.858.116-.635-.677-1.278-1.394-1.772a3.796 3.796 0 0 1 2 .384c.359.171.715-.085.732-.462.029-.638.121-1.244.251-1.845.218.447.45.884.749 1.292a.162.162 0 0 0 .159.06c.089.172.323.277.516.174.433-.229.829-.557 1.208-.911a9.302 9.302 0 0 1-.647 1.264c-.139.22.001.477.189.602.428.284.803.61 1.148.969-.091-.014-.179-.019-.271-.036a.545.545 0 0 0-.599.282 5.501 5.501 0 0 1-.987-.101c-.188-.035-.325.101-.354.253-.323-.2-.649-.395-.978-.58zm6.034 2.919c-.134.418-.38.882-.446 1.334a26.583 26.583 0 0 0-3.717-3.089c.26.066.525.094.793.106l.005.002c1.399.252 2.665.241 3.788.019.016.013.028.03.049.037-.002.307-.418 1.422-.472 1.591zm-11.63-32.45c2.201.881 4.469 3.705 5.952 5.237a58.077 58.077 0 0 1 6.517 8.053c1.563 2.333 3.286 4.942 3.998 7.687 1.34 5.171-1.593 8.917-6.314 8.854a7.51 7.51 0 0 0-1.717-1.62c.42-.729.747-1.483.983-2.284.051.008.097.022.157.018 3.007-.256 5-2.65 5.217-5.637.347-4.748-4.109-8.939-6.936-12.246-1.598-1.867-4.497-5.181-7.857-8.062zm-12.51-2.895a36.095 36.095 0 0 0-1.318-.897c6.448-1.434 12.645 4.091 16.91 8.39a84.337 84.337 0 0 1 7.431 8.583c2.325 3.086 5.849 10.982-.981 11.563-.072.006-.129.03-.186.053a.514.514 0 0 0-.574.084c-.598.562-1.303 1.119-1.865 1.753 2.208-6.694-4.111-14.374-8.047-19.074a59.332 59.332 0 0 0-11.37-10.455zm-7.886 1.212c1.758-4.813 6.773-.566 8.382.62a56.534 56.534 0 0 1 3.419 2.735 58.743 58.743 0 0 1 7.935 8.327c3.645 4.673 7.387 10.078 6.917 16.206-.13-.477-.299-.944-.483-1.43-.126-.334-.698-.492-.855-.079-.34.891-.537 1.785-.641 2.715-1.058-.369-2.115-.373-3.234.019-.348.122-.523.615-.203.876l.728.59c-6.788-.24-11.667-7.386-14.921-12.586-1.663-2.663-3.129-5.455-4.502-8.278-1.191-2.442-3.592-6.84-2.542-9.715zm1.733 25.184c-1.555-3.394-2.513-7.024-3.282-10.668-.131-.623-1.325-11.731-.074-11.242a.26.26 0 0 0 .18-.004c.853 4.748 4.484 10.342 5.945 12.89 3.568 6.236 9.749 15.906 18.021 15.546-.982.593-2.003 1.123-2.99 1.713-.363.217-.283.853.158.924.932.15 1.863.313 2.793.473-.004.014-.005.026-.008.038-.027.006-.055.008-.08.021-8.856 4.218-16.906-1.49-20.663-9.691zm20.569 10.605c-.018.251-.019.51.008.796.033.367.428.608.759.404.454-.282.897-.584 1.325-.906-2.07 3.629-4.844 6.313-9.439 3.938-2.301-1.19-4.189-3.172-6.137-4.925 4.104 2.644 9.016 3.58 13.484.693zm34.717 11.366c-2.881.041-3.461 4.134-3.537 7.63-2.424-6.029-7.15-16.104-10.959-12.479-1.692 1.61-.805 5.147-.13 7.019.691 1.91 1.675 3.694 2.827 5.346a34.478 34.478 0 0 0-1.773-1.289c-1.772-1.191-5.676-4.288-7.688-1.792-3.309 4.106 3.204 8.612 8.166 11.095-4.813-.163-11.297.371-10.282 4.95.471 2.121 2.843 2.311 4.454 2.494 2.772.317 5.502-.151 8.053-1.296-1.277 3.997-1.186 8.349 1.287 12.071 6.753 10.155 18.791 2.492 26.711 8.618.338.39.696.77 1.106 1.128a.745.745 0 0 0 .295.161c.046.051.095.093.141.145.335.373.918-.104.717-.552a.747.747 0 0 0-.136-.938c-7.753-7.652.409-20.859-6.378-29.1-2.893-3.512-6.884-4.609-10.745-3.951.723-3.122 1.512-9.312-2.129-9.26zm-13.102-2.526c.566-1.381 1.185-1.511 1.853-.39.885.7 1.597 1.582 2.139 2.646.629.996 1.171 2.068 1.716 3.12 1.459 2.822 2.708 5.739 3.832 8.743a15.86 15.86 0 0 0-2.251 1.84c-.007-.017-.019-.034-.026-.052a.332.332 0 0 0-.039-.438c-2.337-2.384-10.993-12.01-7.224-15.469zm-5.139 12.81c-.278-.292-.559-.584-.837-.877-.246-3.424.346-4.647 1.773-3.672 1.76.295 4.046 2.453 5.426 3.579 1.449 1.183 3.894 3.052 4.902 4.929l-.002.107a.603.603 0 0 0 .057.273 21.47 21.47 0 0 0-1.161 1.506.623.623 0 0 0-.341-.259c-2.186-.604-4.293-1.448-6.242-2.712-1.135-.734-2.747-1.719-3.575-2.874zm2.393 11.422a15.427 15.427 0 0 1-3.473-.205c-1-.17-4.84-.81-1.024-3.639 1.216-.902 4.056-.614 5.471-.678 2.007-.088 3.998-.012 5.997.158a20.772 20.772 0 0 0-1.55 3.092c-1.762.662-3.539 1.166-5.421 1.272zm30.033 3.682c-.124 4.777-.653 9.922 1.146 14.096-3.942-1.955-8.831-1.072-13.354-1.33-5.001-.287-10.295-3.047-11.808-8.806-1.301-4.94 1.332-10.38 4.392-13.813 3.326-3.734 8.063-5.793 12.746-4.125 5.796 2.065 7.034 7.991 6.878 13.978zm-13.082-21.629c.132.776.133 1.553.006 2.332-.085 1.281-.316 2.372-.643 3.57-.871.265-1.723.615-2.547 1.049-.056-2.584-.219-5.434 1.717-6.942 1.119-1.531 1.608-1.535 1.467-.009z"/><path fill="#3C3C3B" d="M764.232 40.182a.449.449 0 0 0-.146.227c-.515 2.279-.204 5.775 1.854 7.02-2.138 3.011-3.092 6.711-3.428 10.5-.28 3.156.396 4.638 3.39 4.84a.509.509 0 0 0 .19-.028c.26.121.639-.045.699-.428.748-4.535.873-9.187 1.649-13.749 2.233 1.38 4.914 1.375 7.253.139.421-.223.465-.843.117-1.156-.077-.068-.158-.129-.236-.196 7.398-1.708 10.77-10.859 12.49-18.247 1.587-6.809 2.241-16.761 10.616-16.27 5.475.321 9.085 4.915 10.709 10.358a.26.26 0 0 0 .052.268l.042.043c.01.028.019.056.026.083.057.201.186.277.322.267l.004.004c.093.092.248.092.356.039 4.354-2.127 1.131-11.016-.913-13.695-4.652-6.098-12.572-6.545-19.059-4.32-7.283 2.5-12.083 6.784-14.886 14.728-.836 2.373-1.588 4.812-2.902 6.925-1.354 2.179-3.239 3.313-4.997 4.946-2.213 2.059-3.677 4.457-3.202 7.702zm4.109 7.276c-.359-.167-.677.335-.508.657a.323.323 0 0 0-.055.106c-1.149 4.144-2.211 8.964-1.975 13.354-4.868-.922-.334-11.476 1.349-13.84a.608.608 0 0 0-.491-.982c-.008-.015-.011-.035-.02-.05-.505-.865-1.144-1.473-1.467-2.493a6.043 6.043 0 0 1-.191-2.792c1.273.564 2.174 1.695 2.57 3.183-.001.264.027.526.1.775.121.423.723.368.848-.031.2-.642.197-1.313.428-1.955.139-.391.32-.756.547-1.092.129-.189.332-.356.494-.532 0 .12.006.24-.002.36a9.038 9.038 0 0 1-.109 1.091c-.131.827-.416 1.578-.637 2.368-.368.266-.332 1.059.189 1.053 1.783-.022 3.328.281 4.763 1.268-1.948.658-3.913.451-5.833-.448zm6.297-20.979c2.703-5.618 3.373-11.437 8.487-15.248 4.885-3.641 11.329-6.012 17.152-4.915 3.2.605 6.412 2.36 8.435 5.256.727 1.043 3.807 10.383 1.533 11.412-.672-8.469-10.424-15.076-17.284-10.347-4.319 2.978-4.835 9.761-5.93 14.738-1.852 8.426-4.688 15.955-12.343 19.312-1.371-.896-2.967-1.407-4.56-1.278.474-.838.73-1.842.851-2.801.096-.738.338-2.366-.631-2.466-.835-.086-1.693 1.255-2.07 1.951a7.212 7.212 0 0 0-.381.83c-.438-1.143-1.269-2.065-2.309-2.57a.848.848 0 0 0 .011-.283c-.713-5.611 6.847-9.035 9.039-13.591z"/></svg>