<?xml version="1.0" encoding="utf-8"?>
<!-- Generator: Adobe Illustrator 16.0.0, SVG Export Plug-In . SVG Version: 6.00 Build 0)  -->
<!DOCTYPE svg PUBLIC "-//W3C//DTD SVG 1.1//EN" "http://www.w3.org/Graphics/SVG/1.1/DTD/svg11.dtd">
<svg version="1.1" id="Layer_1" xmlns="http://www.w3.org/2000/svg" xmlns:xlink="http://www.w3.org/1999/xlink" x="0px" y="0px"
	 width="812.358px" height="109.766px" viewBox="0 0 812.358 109.766" enable-background="new 0 0 812.358 109.766"
	 xml:space="preserve">
<g>
	<path fill="#3C3C3B" d="M17.403,109.704c2.072-0.443,3.709-2.966,3.21-5.402c-0.349-1.701-2.414-3.434-3.812-2.367
		c-0.113-5.039-0.738-10.113-1.148-15.13c-0.272-3.333-0.335-6.876-1.1-10.149c0.004-0.02,0.016-0.033,0.017-0.056
		c0.014-0.417-0.127-0.837-0.166-1.255c-0.034-0.354-0.015-0.701,0.026-1.05c0.26-0.011,0.51-0.018,0.736-0.012
		c1.33,0.034,3.113,0.524,3.864-1.042c0.944-1.971,0.087-5.939-0.149-8.043c-0.016-0.137-0.07-0.236-0.14-0.314
		c0.288-3.012,0.107-6.086-0.284-9.069c-0.011-0.082-0.035-0.148-0.065-0.209c0.518-2.771-0.329-7.023-0.636-8.601
		c-0.039-0.199-0.165-0.304-0.311-0.347c0.97-2.687,0.352-7.091,0.698-9.359c0.064-0.422-0.248-0.658-0.53-0.623
		c0.294-1.671,0.393-3.48,0.582-4.576c0.466-2.692,0.712-4.425-1.223-5.942c0.234-1.689,0.49-3.432,0.4-5.052
		c-0.093-1.648-0.758-2.993-2.196-3.063c0.001-0.046,0.007-0.093,0.008-0.139c0.025-0.583-0.625-0.753-0.963-0.459
		c-0.007-0.001-0.013-0.01-0.02-0.011c-1.658-0.39-3.375-0.655-5.087-0.851c-0.021-0.569-0.039-1.123-0.032-1.64
		c0.058-4.797,0.188-9.615-0.011-14.407C9.049-0.052,8.195-0.134,8.158,0.477c-0.21,3.442-0.222,6.889-0.262,10.337
		c-0.021,1.774,0.106,3.714,0.161,5.649c-0.556-0.055-1.112-0.106-1.664-0.148c-1.242-0.096-2.525-0.233-3.571,0.706
		c-1.313,1.178-1.6,3.549-2.037,5.26c-0.3,1.176-0.83,2.405-0.479,3.497c-0.221,0.123-0.38,0.388-0.272,0.734
		c0.349,1.12,0.677,3.551,1.575,4.409c0.285,0.273,0.712,0.429,1.193,0.526c-0.349,0.99-0.579,2.362-0.173,3.255
		c0.318,0.875,0.62,2.271,1.133,3.226c-0.389,0.957-0.831,2.288-0.767,3.471c-0.092,0.054-0.158,0.177-0.118,0.317
		C2.919,41.863,2.959,42.009,3,42.158c0.019,0.066,0.104,0.073,0.134,0.014c0.001,0.004,0.002,0.009,0.003,0.013
		c-0.283,0.826,0.673,3.129,1.136,3.88c0.217,0.352,0.385,0.566,0.577,0.726c-0.222,1.413-0.511,3.565,0.003,4.979
		c-0.015,0.05-0.018,0.107,0.009,0.17c0.549,1.322,1.271,4.396,2.378,5.185c0.992,0.706,3.812,0.46,4.984,0.59
		c1.135,0.127,2.402,0.418,3.57,0.432c0.004,1.408,0.178,3.163-0.216,4.415c-0.679,2.163-2.903,1.558-4.455,1.264
		c-1.267-0.24-2.894-0.455-3.585-1.745c-0.664-1.238-0.369-3.417-0.387-4.842c-0.004-0.305-0.41-0.319-0.458-0.028
		c-0.216,1.304-0.72,3.566-0.332,5.134c-0.025,0.066-0.033,0.143,0.01,0.217c0.025,0.044,0.051,0.087,0.075,0.131
		c0.081,0.219,0.184,0.416,0.313,0.591c0.008,0.017,0.015,0.032,0.021,0.048c-0.002-0.008-0.006-0.018-0.01-0.023
		c0.027,0.033,0.063,0.059,0.091,0.092c-0.003,0.074-0.041,0.018-0.081-0.068c0.034,0.094,0.076,0.212,0.133,0.371
		c0.171,0.484,0.55,0.945,0.889,1.367c-0.003,0.006-0.009,0.006-0.011,0.012c-0.339,0.852-0.593,1.828-0.52,2.77
		c-0.069-0.035-0.164,0-0.148,0.107c0.239,1.736,0.864,4.517,2.185,5.629c0.981,0.826,2.53,0.835,3.95,0.766
		c1.116,9.24,1.244,18.691,2.6,27.881c-1.48,0.361-2.646,1.866-2.518,3.807C13.489,108.324,15.449,110.124,17.403,109.704z
		 M1.819,25.655c-0.771-1.055,0.133-3.019,0.436-4.154c0.635-2.39,1.512-3.997,3.918-3.861c0.208,0.012,0.955,0.018,1.906,0.047
		c0.014,1.721-0.063,3.409-0.398,4.937c-0.082,0.375,0.416,0.686,0.613,0.346c0.847-1.452,0.908-3.378,0.859-5.242
		c2.09,0.096,4.533,0.32,4.8,0.904c-0.108,1.154-0.202,2.308-0.309,3.462c-0.202,2.165-0.11,4-2.258,4.543
		c-1.188,0.301-2.788-0.051-4.008-0.094C6.153,26.5,2.688,26.847,1.819,25.655z M2.87,30.109c-0.798-0.546-1.23-1.939-1.555-3.087
		c1.091,0.666,2.76,0.751,3.761,0.826c2.399,0.177,5.555,0.769,7.912,0.218c1.335-0.313,1.351-1.003,1.541-2.508
		c0.293-2.32,0.495-4.673,0.615-7.017c1.904,1.962,0.927,5.72,0.683,8.153c-0.104,1.026,0.014,2.456-0.484,3.334
		c0.023,0.77-0.26,1.027-0.852,0.772c-0.619-0.025-1.239-0.054-1.858-0.084c-2.041-0.1-4.081-0.218-6.122-0.351
		C5.668,30.31,3.631,30.632,2.87,30.109z M3.433,31.54c1.076,0.1,2.277-0.005,2.949,0.037c1.905,0.121,3.81,0.226,5.716,0.317
		c0.368,0.018,0.89,0.119,1.443,0.196c-0.116,1.065-0.147,2.461-0.556,3.269c-0.594,1.176-2.322,0.538-3.479,0.376
		C7.176,35.411,2.936,35.008,3.433,31.54z M3.974,35.862c1.301,0.578,3.129,0.746,4.08,0.93c1.159,0.223,4.381,1.205,5.477,0.279
		c0.969-0.818,0.981-3.477,1.148-4.892c0.561-0.004,1.07-0.112,1.397-0.442c0.725-0.73,0.55-2.575,0.645-3.553
		c0.019-0.186,0.042-0.376,0.063-0.565c1.083,1.792,0.313,4.561-0.068,6.566c-0.168,0.887-0.219,2.065-0.57,2.889
		c0.072,1.026-0.344,1.565-1.245,1.616c-0.635,0.511-1.314,0.613-2.037,0.307c-1.684-0.013-3.495-0.562-5.16-0.844
		C5.757,37.825,4.878,37.222,3.974,35.862z M5.625,42.692c-1.807-0.5-1.593-2.428-1.438-4.155c0.021,0.023,0.038,0.052,0.061,0.074
		c0.763,0.736,2.325,0.726,3.233,0.882c2.062,0.36,4.13,0.672,6.203,0.94c0.125,0.016,0.254,0.036,0.384,0.058
		c0.104,1.756-0.399,3.41-2.252,3.261c-1.035-0.083-2.078-0.284-3.104-0.458C7.687,43.119,6.634,42.97,5.625,42.692z M8.38,46.5
		c-1.136-0.35-2.558-0.68-3.448-1.65c-0.241-0.264-0.487-0.754-0.727-1.292c1.406,0.898,3.729,0.912,5.07,1.132
		c1.438,0.237,3.696,0.968,5.019-0.156c1.081-0.92,1.095-2.542,0.878-3.951c0.326-0.02,0.641-0.106,0.922-0.326
		c0.338-0.264,0.61-0.664,0.831-1.146c-0.081,0.775-0.133,1.553-0.153,2.344c-0.085,3.154,0.639,6-3.375,6.046
		C11.839,47.52,9.865,46.958,8.38,46.5z M5.654,50.554c-0.296-1.113-0.249-2.358-0.446-3.531c0.159,0.081,0.344,0.157,0.582,0.249
		c2.55,0.991,6.081,1.698,8.778,1.65c0.205-0.004,0.396-0.028,0.577-0.062c-0.045,1.363-0.117,2.621-1.059,3.671
		c-0.9,1.006-1.189,0.773-2.303,0.583c-0.78-0.132-1.56-0.283-2.334-0.449C8.06,52.366,6.142,52.376,5.654,50.554z M8.429,56.085
		c-1.114-0.445-1.781-1.714-2.392-2.943c1.282,0.74,3.218,0.824,4.366,1.039c1.383,0.259,4.006,1.418,4.917-0.297
		c0.771-1.451,1.001-3.609,0.844-5.424c0.28-0.184,0.511-0.429,0.712-0.704c0.27,1.451,0.539,2.914,0.602,4.398
		c0.078,1.876-0.305,3.906-2.065,4.713c-0.576,0.265-1.896-0.221-2.492-0.288C11.539,56.424,9.721,56.603,8.429,56.085z
		 M8.626,64.537c1.123,0.416,2.41,0.585,3.292,0.683c1.275,0.14,3.434,0.55,4.306-0.859c0.898-1.447,0.678-4.494,0.591-6.328
		c0.326-0.116,0.589-0.323,0.813-0.588c0.123,1.208,0.205,2.418,0.224,3.639c0.015,0.999,0.102,2.168-0.074,3.15
		c-0.271,1.525-0.461,1.764-1.744,2.119c-1.159,0.322-3.113,0.362-4.292,0.146C10.331,66.239,9.438,65.468,8.626,64.537z
		 M9.305,69.354c-1.325-0.799-1.371-2.339-1.134-3.81c0.514,0.693,1.066,1.455,1.79,1.845c1.651,0.887,4.482,0.612,6.423,0.205
		c0.051,1.192,0.136,2.39-1.079,2.782c-0.933,0.303-2.328-0.076-3.274-0.246C11.162,69.974,10.09,69.826,9.305,69.354z
		 M10.296,72.372c-0.854-0.49-1.323-1.306-1.751-2.191c0.877,0.627,2.036,0.85,2.979,1.046c1.336,0.276,3.527,0.83,4.814,0.104
		c1.285-0.727,1.185-2.518,0.969-3.969c0.339-0.118,0.59-0.277,0.787-0.481c0.108,1.03,0.2,2.074,0.153,3.077
		c-0.053,1.139,0.142,2.734-1.014,3.17c-0.515,0.193-1.664-0.051-2.152-0.068C13.435,72.999,11.783,73.227,10.296,72.372z
		 M14.813,105.904c-0.079-1.121,0.718-2.159,1.622-2.593c0.11,0.128,0.262,0.207,0.444,0.181c1.072-0.146,2.225-0.084,2.336,1.514
		c0.099,1.44-1.016,2.911-2.255,3.015C15.928,108.108,14.898,107.108,14.813,105.904z"/>
	<g>
		<path fill="#3C3C3B" d="M9.281,8.412c-0.021,0.226,0.154,0.38,0.35,0.422c0.033,0.037,0.057,0.074,0.1,0.109
			c9.351,7.186,22.168,8.452,30.926,16.591c4.729,4.395,7.43,10.562,7.116,16.996c-0.326,6.742-4.014,11.292-8.331,16.063
			c-0.211,0.066-0.372,0.259-0.395,0.465c-0.075,0.133-0.004,0.275,0.122,0.352c0,0.002,0.001,0.004,0.004,0.006
			c0.042,0.045,0.097,0.073,0.143,0.114c0.031,1.089,0.903,2.149,1.786,2.715c0.741,0.476,2.213,1.013,2.961,0.323
			c0.126,0.002,0.253-0.041,0.341-0.152c5.751-7.302,14.821-11.087,18.718-19.87c3.846-8.667,1.223-16.778-4.514-23.95
			C53.11,11.728,44.941,7.463,36.646,4.719C29.42,2.328,20.589-0.195,13.295,3.167c-0.099-0.129-0.315-0.13-0.437-0.02
			c-0.103-0.027-0.218-0.019-0.341,0.044C10.612,4.191,9.475,6.366,9.281,8.412z M43.134,61.872
			c-0.498-0.083-0.963-0.266-1.384-0.546c-0.374-0.249-0.625-0.539-0.82-0.858c0.247,0.116,0.488,0.233,0.721,0.369
			c0.576,0.334,1.127,0.72,1.696,1.066C43.278,61.894,43.208,61.886,43.134,61.872z M37.553,6.526
			c7.846,2.779,15.35,6.971,20.425,13.627c3.14,4.113,5.882,9.007,5.666,14.292c-0.189,4.638-2.202,9.259-5.117,12.868
			c-4.194,5.189-11.312,7.942-14.452,13.924c-0.536-0.59-1.236-1.088-1.88-1.507c-0.497-0.323-1.052-0.712-1.637-0.946
			c9.484-6.005,10.764-20.421,5.231-29.351C38.555,17.757,22.431,14.784,11.085,8.331c0.315-0.183,0.602-0.424,0.856-0.703
			c11.5,1.521,22.184,5.723,30.971,13.304c4.277,3.692,8.828,8.442,10.97,13.709c2.96,7.27-1.419,13.586-5.91,19.042
			c-0.132,0.158,0.114,0.373,0.27,0.24c4.504-3.967,8.391-9.564,7.74-15.784c-0.595-5.649-4.809-10.648-8.619-14.617
			C38.354,14.142,25.777,7.792,12.659,6.586c0.361-0.69,0.591-1.464,0.674-2.193C21.287,1.381,29.847,3.794,37.553,6.526z
			 M12.546,4.564c-0.175,0.572-0.435,1.114-0.804,1.605c-0.336,0.446-0.734,0.748-1.15,1.032
			C11.062,6.198,11.722,5.374,12.546,4.564z"/>
	</g>
	<g>
		<path fill="#3C3C3B" d="M27.465,66.2c-0.04-0.069-0.087-0.138-0.127-0.209C27.44,66.169,27.474,66.222,27.465,66.2z"/>
		<path fill="#3C3C3B" d="M67.824,78.37c-6.926-2.77-14.657,1.206-15.321,7.92c-10.29-5.906-22.383-15.723-25.686-26.838
			c-0.128-0.44-0.746-0.816-1.231-0.598c-6.28,2.822-2.171,8.596,0.759,12.271c6.287,7.887,14.634,14.348,24.353,18.074
			c-5.1,2.439-6.261,9.459-2.267,14.222c6.084,7.255,20.381,6.995,26.064-1.034C80.003,94.606,76.896,81.999,67.824,78.37z
			 M52.333,88.474c-7.035-3.697-13.688-7.737-19.335-13.211c-2.526-2.45-6.28-5.563-7.54-8.842
			c-0.677-0.698-0.744-1.542-0.196-2.528c-0.022-2.155,0.188-2.458,0.635-0.902c-0.2-0.167,1.524,3.075,1.568,3.21
			c5.304,9.158,15.703,17.119,25.054,22.303c0.003,0.018,0.001,0.033,0.003,0.051c-0.021,0.005-0.04,0.012-0.061,0.018
			C52.42,88.538,52.387,88.503,52.333,88.474z M70.724,82.931c4.329,4.203,5.756,11.298,2.946,16.848
			c-2.774,5.48-9.363,7.594-15.282,6.611c-3.535-0.587-7.339-2.314-9.211-5.345c-3.069-4.966-0.215-11.759,6.34-11.737
			c0.573,0.002,0.68-0.922,0.098-0.962c-0.486-0.038-0.948-0.028-1.402-0.006C53.14,78.46,65.329,77.696,70.724,82.931z"/>
	</g>
	<path fill="#3C3C3B" d="M121.737,108.407c5.963,0.756,6.807-8.559,5.728-13.656c-1.284-6.057-3.928-16.675-9.512-18.989
		c-0.027-0.04-0.074-0.059-0.124-0.069c0.658-9.623-1.07-19.878-1.877-29.446c-0.912-10.792-1.082-22.159-3.076-32.773
		c-1.082-5.754-4.355-12.792-10.117-12.088c-6.121,0.746-7.591,9.292-6.699,15.334c0.023,0.163,0.092,0.264,0.179,0.323
		c-0.017,2.056,1.312,4.035,3.147,3.963c1.695-0.068,3.491-2.292,2.735-4.39c-0.014-0.041-0.046-0.057-0.068-0.086
		c0.044-0.875,0.052-1.737,0.123-2.665c0.111-0.82,0.227-1.637,0.34-2.456c2.884-0.893,4.434-0.254,4.644,1.913
		c0.979,2.599,0.894,6.623,1.253,9.441c0.779,6.121,1.536,12.246,2.291,18.369c1.427,11.591,2.059,23.219,2.758,34.885
		c-7.59,1.521-14.348,7.938-12.899,18.378C102.198,106.192,112.88,111.917,121.737,108.407z M117.498,76.841
		c3.813,1.754,5.563,7.391,7.007,11.593c0.809,2.353,1.537,4.782,2.018,7.259c0.629,3.232,0.762,10.084-2.905,10.951
		c-1.926,0.451-4.466-0.802-5.729-2.549c-0.721-0.998-1.356-2.164-1.899-3.307c-0.974-2.055-1.723-4.303-2.196-6.592
		c-0.907-4.361-1.807-16.119,3.486-17.553C117.329,76.724,117.397,76.794,117.498,76.841z M109.278,22.615
		c-0.423-3.247-0.113-13.929-4.328-14.627c-4.235-0.701-3.727,6.286-3.556,9.619c-0.277,1.31-1.009,2.473-2.324,2.304
		c-1.25-0.156-2.153-1.556-2.368-2.972c0.066-0.085,0.108-0.203,0.105-0.346c-0.102-5.15,0.215-12.558,5.603-13.803
		c4.065-0.939,7.187,3.434,8.553,7.502c2.254,6.716,2.094,14.976,2.689,22.06c1.211,14.381,3.037,28.885,3.635,43.309
		c-0.921-0.015-1.848,0.045-2.768,0.174C113.419,57.907,111.594,40.399,109.278,22.615z M101.705,94.199
		c-1.545-10.681,5.844-15.961,13.337-17.508c-3.354,2.511-3.315,10.782-2.868,14.837c0.57,5.168,2.949,13.698,7.507,16.188
		C111.784,108.774,103.247,104.851,101.705,94.199z"/>
	<path fill="#3C3C3B" d="M151.882,89.616c1.511,2.098,4.355,0.992,6.207,0.7c7.171-1.124,14.081-3.987,20.653-8.067
		c0.457-0.282,0.259-1.254-0.166-1.137c-10.015-0.443-20.226,1.09-30.201,2.195c-5.034,0.559-10.067,1.168-15.091,1.887
		c-1.734,0.248-4.881-0.043-5.345,3.043c-0.01,0.061-0.005,0.116,0.003,0.166c-0.899,1.746,1.605,3.865,3.076,3.832
		c6.603-0.148,13.629-2.777,20.03-4.939C151.17,88.16,151.417,88.972,151.882,89.616z M165.55,87.267
		c-2.475,0.78-4.982,1.366-7.505,1.752c-0.985,0.152-2.662,0.825-3.561,0.408c-1.897-0.883-2.632-2.743-2.834-5.17
		c0.603-0.061,1.204-0.129,1.806-0.186c7.78-0.76,15.646-0.896,23.411-1.935C173.21,84.315,169.446,86.04,165.55,87.267z
		 M139.697,89.501c-1.624,0.369-3.252,0.705-4.882,1.012c-0.815,0.156-1.631,0.309-2.448,0.445c-0.511,0.086-6.397,0.967-3.44-3.21
		c0.019-0.026,0.021-0.054,0.025-0.081c1.381-1.521,4.131-1.225,5.63-1.424c2.096-0.278,4.192-0.545,6.288-0.797
		c3.374-0.408,6.749-0.777,10.128-1.122c-0.049,0.69-0.073,1.415-0.032,2.129C147.241,87.677,143.473,88.645,139.697,89.501z"/>
	<path fill="#3C3C3B" d="M173.427,55.754c0.219-0.086,0.157-0.495-0.072-0.48c-3.818,0.223-12.9,2.972-13.313-4.099
		c0-0.001-0.001-0.003-0.001-0.005c0.399-0.128,0.364-0.888-0.091-0.863c-5.779,0.307-11.577,1.238-17.313,2.115
		c-2.657,0.407-5.311,0.843-7.962,1.286c-1.326,0.223-2.65,0.458-3.975,0.693c-0.779,0.148-1.561,0.287-2.343,0.416
		c-2.015,0.606-3.177-0.483-3.506-3.227c1.733-2.141,7.789-1.563,9.626-1.64c2.923-0.122,5.845-0.243,8.767-0.365
		c5.567-0.231,11.337,0.007,16.847-0.992c0.258-0.045,0.288-0.373,0.136-0.531c0.22-0.048,0.405-0.278,0.313-0.627
		c-0.996-3.783,5.734-3.47,7.014-3.552c1.953-0.126,3.907-0.2,5.855-0.4c0.472-0.048,0.43-0.868-0.037-0.885
		c-2.19-0.078-16.056-1.491-13.629,5.154c0.035,0.095,0.085,0.159,0.141,0.211c-7.485-0.678-15.262,0.393-22.756,0.719
		c-3.431,0.148-7.237-0.243-10.611,0.508c-1.534,0.342-2.464,1.158-2.727,2.998c-0.01,0.061-0.008,0.115,0,0.165
		c-0.084,0.768,0.123,1.554,0.694,2.305c1.922,2.526,5.976,0.849,8.245,0.432c8.93-1.64,17.915-2.478,26.866-3.838
		C156.199,58.557,171.408,56.565,173.427,55.754z"/>
	<path fill="#3C3C3B" d="M174.934,54.308c-1.321-0.367-2.661-0.641-4.01-0.805c1.498-0.363,2.964-0.87,4.298-1.475
		c0.078-0.036,0.129-0.095,0.152-0.164c0.31-0.108,0.387-0.702,0.002-0.79c-2.382-0.539-4.806-0.848-7.231-1.001
		c2.393-0.331,4.787-0.932,7.095-1.551c0.195-0.051,0.146-0.398-0.028-0.439c0.202-0.199,0.208-0.649-0.12-0.721
		c-2.075-0.455-4.198-0.763-6.324-0.88c2.257-0.465,4.466-1.329,6.485-2.538c0.221-0.132,0.04-0.546-0.183-0.463
		c-3.44,1.295-6.802,2.164-10.379,2.708c-0.283,0.042-0.326,0.436-0.155,0.607c0.021,0.102,0.08,0.195,0.191,0.207
		c3.296,0.325,6.576,0.64,9.86,1.121c-3.273,0.335-6.641,0.612-9.846,1.424c-0.292,0.074-0.275,0.497-0.088,0.69
		c0.003,0.111,0.047,0.218,0.156,0.23c3.028,0.364,6.049,0.805,9.073,1.223c-2.808,0.596-5.625,1.056-8.427,1.665
		c-0.361,0.078-0.345,0.671,0.029,0.697c0.402,0.027,0.813,0.036,1.228,0.029c2.713,0.146,5.377,0.458,8.044,1.188
		C175.269,55.412,175.444,54.45,174.934,54.308z"/>
	<g>
		<path fill="#3C3C3B" d="M141.918,19.796c4.179-0.766,8.91-2.198,12.751,0.46c0.007,0.111,0.045,0.22,0.136,0.304
			c4.41,4.15,20.224,4.999,19.268-5.329c-0.435-4.689-4.747-6.681-8.221-7.102c-3.194-0.388-9.932,0.135-11.461,4.195
			c-0.007,0.019-0.007,0.035-0.011,0.053c-3.15,2.462-7.332,1.519-10.928,1.25c-4.238-0.318-8.488-0.415-12.733-0.294
			c-2.98,0.084-13.255-0.068-11.111,6.586c0.137,4.852,6.973,3.408,9.631,2.746C133.454,21.616,137.656,20.577,141.918,19.796z
			 M120.312,19.797c-0.587-6.448,9.088-5.289,12.467-5.332c3.353-0.041,6.707,0.056,10.053,0.287
			c3.977,0.275,8.809,1.605,11.908-1.835c0.106-0.007,0.211-0.065,0.281-0.207c1.314-2.617,6.216-3.441,8.484-3.525
			c1.457-0.054,2.946,0.088,4.356,0.531c1.271,0.343,2.415,0.993,3.43,1.95c1.665,1.415,2.036,3.118,1.11,5.107
			c-0.694,3.524-2.259,4.304-5.223,5.068c-1.249,0.321-2.506,0.479-3.783,0.518c-2.958,0.088-5.439-0.648-7.922-2.47
			c-0.016-0.083-0.046-0.164-0.109-0.23c-3.664-3.828-9.842-1.629-14.141-0.825C137.819,19.471,121.737,25.293,120.312,19.797z"/>
		<path fill="#3C3C3B" d="M170.701,18.65c0.212-0.238-0.087-0.611-0.324-0.443c-2.741,1.938-5.263,2.43-8.389,1.724
			c-3.271-0.738-7.411-3.84-3.748-7.872c0.216-0.24-0.096-0.658-0.338-0.462c-2.679,2.159-2.473,6.422,0.401,8.256
			C161.886,22.139,167.689,22.027,170.701,18.65z"/>
	</g>
	<g>
		<path fill="#3C3C3B" d="M210.575,40.588c-2.133-0.322-4.599,1.468-4.619,4.267c-0.034,0.037-0.068,0.08-0.075,0.155
			c-0.774,7.295,9.585,9.358,9.548,1.954C215.414,43.796,212.97,40.95,210.575,40.588z M214.22,47.524
			c-0.684,3.355-3.624,3.444-5.701,1.665c0.922,0.503,1.972,0.679,2.839,0.466c1.997-0.493,3.397-3.577,1.519-5.939
			c-0.201-0.253-0.488,0.043-0.335,0.341c2.521,4.91-4.741,6.527-5.753,1.96c0.16-2.868,1.564-5.117,4.176-4.218
			C212.884,42.459,214.729,45.027,214.22,47.524z"/>
		<path fill="#3C3C3B" d="M209.542,45.806c-0.369,0.629-1.186,0.325-1.249-0.578c-0.02-0.279-0.332-0.288-0.332-0.021
			c-0.003,1.367,1.417,2.038,1.888,0.896C209.938,45.887,209.66,45.606,209.542,45.806z"/>
		<path fill="#3C3C3B" d="M210.439,42.665c-0.625-0.447-1.454-0.453-1.898,0.158c-0.176,0.24,0.1,0.624,0.321,0.488
			c0.486-0.294,0.891-0.45,1.479-0.264C210.522,43.105,210.621,42.796,210.439,42.665z"/>
		<path fill="#3C3C3B" d="M211.02,43.882c-0.014,0.173-0.028,0.345-0.042,0.518c-0.004,0.043,0.048,0.065,0.053,0.021
			c0.015-0.173,0.028-0.345,0.043-0.518C211.076,43.861,211.023,43.84,211.02,43.882z"/>
		<path fill="#3C3C3B" d="M211.865,45.938c-0.046,0.225-0.299,0.505-0.509,0.364c-0.262-0.175-0.223-0.625-0.07-0.808
			c0.224-0.268-0.144-0.836-0.4-0.609c-0.54,0.476-0.52,1.689,0.163,2.217c0.678,0.526,1.543-0.042,1.423-1.025
			C212.417,45.627,211.952,45.523,211.865,45.938z"/>
		<path fill="#3C3C3B" d="M239.629,62.845c-0.214,0.121-0.611,0.547-0.362,0.93c0.162,0.25,0.432,0.166,0.438-0.121
			c0.001-0.086-0.05-0.138-0.106-0.153c0.091-0.046,0.201-0.094,0.287-0.125c-0.096,0.352-0.192,0.738-0.387,0.984
			c-0.14,0.178-0.319,0.24-0.525,0.118c-0.187-0.111-0.36-0.357-0.259-0.588c0.13-0.286-0.255-0.572-0.388-0.292
			c-0.294,0.63,0.28,1.411,0.812,1.511c0.78,0.146,1.12-0.938,1.166-1.747c0.058,0.014,0.113,0.026,0.17,0.051
			c0.332,0.138,0.592,0.43,0.765,0.825c0.12,0.272,0.379,0.082,0.332-0.167C241.371,62.999,240.31,62.46,239.629,62.845z"/>
		<path fill="#3C3C3B" d="M242.159,66.226c-0.058,0.354-0.274,0.661-0.554,0.736c-0.387,0.105-0.137-0.574,0.073-0.521
			c0.226,0.057,0.277-0.309,0.06-0.424c-0.729-0.39-1.31,0.877-0.698,1.589c0.322,0.375,0.862,0.294,1.169,0.079
			c0.377-0.263,0.573-0.746,0.496-1.332C242.653,65.962,242.224,65.835,242.159,66.226z"/>
		<path fill="#3C3C3B" d="M240.515,78.485c-0.016-0.02-0.033-0.027-0.051-0.041c-0.4-0.906-0.932-1.744-1.573-2.434
			c-1.934-2.078-5.431-2.953-6.424,0.211c-0.056,0.173-0.002,0.344,0.092,0.456c-0.987,2.06-0.963,4.771,0.186,7.099
			c1.215,3.799,3.659,7.127,6.999,5.541C243.073,87.733,243.58,81.864,240.515,78.485z M233.109,76.563
			c1.541-1.709,3.628-1.838,5.437,0.423c1.893,2.366,2.449,6.442,0.409,8.245c-1.69,1.496-4.04,0.336-5.281-2.067
			C232.636,81.15,232.482,78.544,233.109,76.563z M238.745,88.657c-1.999,0.496-3.354-0.797-4.364-2.645
			c1.92,1.783,4.391,1.87,5.893-0.243c0.919-1.293,1.175-3.027,0.929-4.762C242.362,84.235,241.653,87.933,238.745,88.657z"/>
		<path fill="#3C3C3B" d="M237.029,82.247c-0.121-0.244-0.432-0.104-0.338,0.17c0.243,0.708,0.048,1.688-0.6,1.706
			c-0.567,0.017-1.079-0.686-1.106-1.386c-0.011-0.272-0.324-0.281-0.325-0.021c-0.008,1.021,0.797,2.05,1.601,1.956
			C237.136,84.571,237.528,83.249,237.029,82.247z"/>
		<path fill="#3C3C3B" d="M235.222,80.07c-0.457,0.17-0.641,0.974-0.207,1.45c0.198,0.216,0.422-0.09,0.24-0.33
			c-0.123-0.166-0.016-0.466,0.093-0.541c0.132-0.09,0.267-0.053,0.416,0.056c0.198,0.142,0.364,0.426,0.501,0.649
			c0.116,0.189,0.387,0.103,0.298-0.15C236.336,80.563,235.781,79.863,235.222,80.07z"/>
		<path fill="#3C3C3B" d="M238.629,80.505c-0.117-0.251-0.389-0.093-0.326,0.164c0.156,0.633,0.024,1.283-0.333,1.651
			c-0.049-0.088-0.067-0.192-0.028-0.313c0.092-0.299-0.233-0.529-0.367-0.277c-0.232,0.438-0.062,1.025,0.306,1.354
			c0.085,0.076,0.202,0.066,0.279,0.014C238.861,82.614,239.096,81.504,238.629,80.505z"/>
		<path fill="#3C3C3B" d="M235.604,77.497c-0.021,0.374-0.112,0.83-0.463,0.84c-0.377,0.01-0.632-0.563-0.578-0.977
			c0.032-0.248-0.284-0.451-0.352-0.199c-0.2,0.738,0.186,1.689,0.847,1.92c0.709,0.248,1.412-0.635,1.104-1.552
			C236.055,77.21,235.627,77.104,235.604,77.497z"/>
		<path fill="#3C3C3B" d="M223.36,62.405c-0.205-0.257-0.424-0.502-0.672-0.72c-1.162-1.026-2.585-1.397-3.875-1.306
			c-1.208,0.086-1.348,0.619-1.644,1.415c-0.073,0.056-0.148,0.111-0.217,0.173c-2.282,0.74-1.739,4.945-0.375,7.115
			c0.156,0.25,0.329,0.477,0.507,0.691c1.322,3.398,4.587,5.334,7.094,3.407C227.129,70.917,226.747,64.941,223.36,62.405z
			 M216.603,64.22c0.092-0.317,0.227-0.627,0.377-0.926c0.332-0.221,0.322-0.436,0.567-0.83c0.064-0.105,0.132-0.197,0.198-0.284
			c0.146-0.15,0.297-0.29,0.456-0.397c0.024-0.016,0.027-0.047,0.041-0.07c0.421-0.266,0.905-0.275,1.537-0.174
			c2.206,0.354,4.371,2.676,3.94,5.711c-0.383,2.717-2.723,3.759-4.757,2.687c-0.911-0.481-1.896-1.812-2.474-3.267
			C216.408,65.831,216.364,65.044,216.603,64.22z M223.76,72.374c-1.913,1.465-4.253,0.463-5.736-1.686
			c1.874,1.447,4.271,1.368,5.681-0.453c1.069-1.385,1.348-3.496,0.845-5.41C225.839,67.483,225.968,70.686,223.76,72.374z"/>
		<path fill="#3C3C3B" d="M222.043,65.671c-0.194-0.284-0.581-0.01-0.45,0.328c0.186,0.477,0.182,1.168-0.209,1.375
			c-0.443,0.233-0.98-0.414-1.028-0.989c-0.028-0.341-0.394-0.345-0.401-0.026c-0.023,1.039,0.859,2.028,1.642,1.797
			C222.427,67.911,222.652,66.558,222.043,65.671z"/>
		<path fill="#3C3C3B" d="M219.684,62.938c-0.386,0.163-0.477,0.843-0.204,1.256c-0.162-0.066-0.342-0.006-0.357,0.244
			c-0.034,0.533-0.326,0.936-0.708,1.095c-0.385,0.159-1.291,0.088-0.836-0.692c0.127-0.219-0.117-0.521-0.276-0.334
			c-0.271,0.318-0.588,0.934-0.211,1.402c0.305,0.377,0.749,0.554,1.132,0.565c0.871,0.024,1.586-0.743,1.521-1.894
			c-0.004-0.061-0.019-0.114-0.041-0.164c0.161,0.09,0.265-0.161,0.108-0.293c-0.201-0.172-0.171-0.504-0.022-0.631
			c0.172-0.148,0.413-0.02,0.58,0.135c0.286,0.265,0.438,0.734,0.609,1.107c0.114,0.247,0.396,0.095,0.325-0.163
			C221.071,63.75,220.442,62.618,219.684,62.938z"/>
		<path fill="#3C3C3B" d="M231.134,36.044c-0.05-0.065-0.111-0.061-0.159-0.027c-0.26-0.45-0.551-0.873-0.905-1.221
			c-1.653-1.626-4.456-1.777-5.18,0.616c-0.045-0.005-0.09,0.007-0.125,0.051c-1.276,1.6-1.289,4.418-0.087,6.48
			c0.488,3.227,4.919,4.345,6.584,3.027C233.617,43.106,233.221,38.729,231.134,36.044z M224.845,36.316
			c0.107,0.153,0.287,0.225,0.396,0.062c0.606-0.902,1.079-1.738,2.15-1.806c1.076-0.067,2.212,0.711,2.893,1.919
			c1.066,1.896,1.024,4.61-0.274,5.858c-1.203,1.158-3.18,0.909-4.411-0.693C224.458,40.172,224.282,37.935,224.845,36.316z
			 M231.426,43.675c-1.046,1.382-3.504,1.297-5.123-0.023c1.695,1.076,3.8,0.762,4.896-0.877c0.824-1.234,0.966-3.041,0.574-4.727
			C232.472,40.01,232.576,42.156,231.426,43.675z"/>
		<path fill="#3C3C3B" d="M227.019,38.125c-0.139-0.175-0.331,0.029-0.229,0.233c0.12,0.237,0.113,0.634-0.083,0.748
			c-0.238,0.138-0.547-0.182-0.527-0.541c0.016-0.306-0.35-0.465-0.383-0.152c-0.068,0.672,0.445,1.44,1.004,1.313
			C227.364,39.598,227.438,38.653,227.019,38.125z"/>
		<path fill="#3C3C3B" d="M226.542,37.088c-0.109,0.289,0.254,0.559,0.373,0.283c0.262-0.602,0.94-0.296,1.046,0.409
			c0.045,0.292,0.358,0.318,0.355,0.023C228.305,36.489,226.946,36.015,226.542,37.088z"/>
		<path fill="#3C3C3B" d="M228.736,41.012c-0.057,0.319-0.205,0.566-0.44,0.628c-0.227-0.571-0.175-1.211,0.223-1.545
			c0.179-0.153-0.014-0.517-0.211-0.404c-0.631,0.369-0.986,1.687-0.425,2.548c0.252,0.384,0.732,0.242,0.982,0.049
			c0.331-0.255,0.462-0.733,0.362-1.247C229.161,40.694,228.787,40.735,228.736,41.012z"/>
		<path fill="#3C3C3B" d="M229.76,38.296c0.028,0.353-0.343,0.665-0.585,0.373c-0.137-0.167-0.322,0.026-0.224,0.228
			c0.443,0.906,1.573,0.252,1.151-0.702C230.002,37.968,229.742,38.066,229.76,38.296z"/>
		<path fill="#3C3C3B" d="M223.688,22.906c-0.661-1.616-2.026-3.269-3.396-3.091c-1.749-0.788-3.668,0.096-4.326,2.097
			c-0.963,1.571-0.681,4.111,0.692,5.647c1.529,3.451,5.411,4.086,7.017,0.947C224.481,26.93,224.452,24.775,223.688,22.906z
			 M216.144,22.902c0.073-0.01,0.139-0.052,0.178-0.142c0.793-1.784,2.213-3.147,4.05-2.03c1.835,1.115,2.745,4.061,1.567,5.95
			c-0.899,1.44-3.194,1.599-4.564,0.373C216.28,26.074,215.892,24.338,216.144,22.902z M222.73,28.469
			c-1.249,1.692-3.156,1.52-4.608,0.166c1.776,0.782,3.885,0.229,4.724-1.632c0.662-1.475,0.504-3.274-0.207-4.751
			c0.356,0.635,0.627,1.345,0.779,1.998C223.787,25.834,223.529,27.39,222.73,28.469z"/>
		<path fill="#3C3C3B" d="M218.829,23.612c0.015,0.4-0.29,0.797-0.621,0.654c-0.387-0.167-0.488-0.836-0.273-1.159
			c0.128-0.191-0.107-0.468-0.253-0.306c-0.458,0.517-0.269,1.714,0.396,2.056c0.715,0.369,1.321-0.403,1.154-1.291
			C219.175,23.255,218.817,23.325,218.829,23.612z"/>
		<path fill="#3C3C3B" d="M218.787,21.896c-0.204,0.11,0.011,0.515,0.214,0.412c0.531-0.269,1.146,0.443,1.186,1.148
			c0.013,0.241,0.321,0.323,0.337,0.078C220.603,22.394,219.55,21.486,218.787,21.896z"/>
		<path fill="#3C3C3B" d="M219.166,26.015c0.029,0.215,0.247,0.267,0.292,0.067c0.078-0.369,0.253-0.718,0.584-0.745
			c0.346-0.029,0.563,0.294,0.769,0.635c0.151,0.251,0.409,0.114,0.351-0.176C220.867,24.314,218.958,24.509,219.166,26.015z"/>
		<path fill="#3C3C3B" d="M267.48,43.23c-0.003-0.062-0.002-0.12-0.019-0.19c-4.198-17.119-16.432-31.49-29.863-35.727
			c-14.089-4.443-27.825,1.998-35.652,15.439c-8.047,13.817-6.852,34.658-0.087,51.454c6.662,16.539,17.802,27.763,31.817,28.811
			c14.26,1.065,33.086-7.125,33.187-27.962c0.001-0.276-0.18-0.436-0.36-0.457c-0.37-5.537-6.956-4.436-9.774-5.543
			c-3.004-1.182-5.989-2.746-8.964-4.257c-0.064-0.062-0.138-0.101-0.215-0.108c-1.024-0.519-2.05-1.031-3.074-1.517
			c-3.83-1.816-7.686-3.489-11.337-6.005c6.829-2.489,13.667-4.944,20.507-7.398c1.511-0.542,3.041-1.34,4.614-1.651
			c1.458-0.29,2.908,0.135,4.356-0.102c2.197-0.358,3.761-1.711,5.06-3.784C267.892,43.893,267.729,43.446,267.48,43.23z
			 M245.86,65.31c0.454,0.215,0.906,0.43,1.357,0.648c-0.256,2.658-1.123,5.019-3.635,5.025c-0.649,0.002-1.299-0.207-1.926-0.563
			C243.924,70.501,245.81,68.331,245.86,65.31z M237.753,61.325c2.343,1.268,4.729,2.387,7.096,3.503
			c-0.268,2.709-1.722,4.983-4.195,4.089c-1.253-0.453-2.241-1.652-2.752-3.194C237.486,64.472,236.956,62.279,237.753,61.325z
			 M258.805,46.607c-2.919,0.305-5.782,1.915-8.508,2.919c-6.193,2.284-12.388,4.564-18.592,6.813
			c-0.384,0.138-0.433,0.841-0.032,1.142c1.765,1.328,3.598,2.466,5.463,3.502c-0.74,0.754-0.672,2.222-0.449,3.559
			c0.262,1.575,0.787,2.986,1.664,4.063c1.451,2.182,3.691,3.729,5.611,3.59c2.332-0.168,4.338-2.725,4.155-5.793
			c2.793,1.379,5.597,2.877,8.416,4.057c0.81,0.339,2.329,0.502,3.908,0.807c-1.342,0.99-0.905,2.584-1.238,4.863
			c-0.525,3.615-1.782,3.998-3.5,6.016c-0.687,0.805-1.017,1.669-1.387,2.823c-0.327,1.026-0.339,2.549-0.853,3.408
			c-1.223,2.042-3.631,2.581-5.534,2.889c-1.288,0.208-2.544,0.382-3.678,1.111c-2.3,1.478-2.766,3.601-6.359,2.399
			c-1.29-0.432-2.241-1.262-3.587-1.339c-1.383-0.079-2.77,0.742-4.147,0.446c-2.041-0.438-2.343-1.986-3.938-2.713
			c-2.475-1.128-4.475-1.331-6.766-3.329c-2.472-2.156-4.49-4.398-6.158-7.597c-0.89-1.711-1.531-3.693-2.692-5.191
			c-1.651-2.134-3.069-2.955-4.279-5.795c-2.716-6.371-3.441-13.377-4.004-20.135c0.6,0.05,0.483-1.08-0.102-1.207
			c-0.36-0.079,1.08-7.99,1.271-9.02c0.488-2.603,1.528-3.821,2.734-5.72c0.483-0.763,0.819-1.357,1.081-2.326
			c0.18-0.667,0.208-1.396,0.326-2.088c0.432-2.51,0.964-2.694,2.544-3.985c2.815-2.299,4.402-6.821,7.763-8.19
			c1.546-0.63,3.546-0.24,5.183-0.821c2.725-0.968,5.235-0.969,8.205-0.211c1.645,0.421,3.461,0.817,5.074,1.531
			c2.05,0.908,2.709,2.493,4.168,4.305c0.983,1.222,1.98,2.08,3.082,3.101c2.162,2.005,2.875,4.118,4.148,6.8
			c0.046,0.098,0.098,0.184,0.147,0.278c-0.594-0.57-1.262-1.008-1.947-1.325c-0.619-0.521-1.322-0.914-2.063-1.13
			c-2.333-0.681-5.102,1.276-4.081,4.735c0.029,0.096,0.08,0.166,0.14,0.219c-0.368,1.868,1.383,4.401,2.932,5.153
			c0.132,0.062,0.262,0.091,0.393,0.141c1.59,1.191,3.539,1.372,5.171-0.086c1.334-1.193,1.857-3.266,1.003-5.423
			c-0.021-0.052-0.049-0.096-0.069-0.146c2.043,2.291,4.658,3.527,6.009,7.284c0.888,2.477,1.477,4.635,3.589,5.597
			C258.949,46.594,258.879,46.599,258.805,46.607z M240.71,34.311c0.016-0.458,0.127-0.903,0.373-1.301
			c0.097-0.16-0.063-0.43-0.212-0.321c-0.167,0.121-0.302,0.258-0.423,0.402c-0.219-5.059,6.91-3.309,7,1.854
			c0.036,2.079-1.161,3.635-2.771,3.652c-0.507,0.004-1.029-0.127-1.528-0.37C242.05,37.334,241.148,35.936,240.71,34.311z
			 M248.216,36.094c0.282-2.022-0.381-3.848-1.51-5.153c0.734,0.43,1.399,1.053,1.868,1.992c1.231,2.474,0.524,5.009-1.304,5.968
			c-0.313,0.163-0.633,0.265-0.957,0.32C247.278,38.675,248.005,37.616,248.216,36.094z M259.105,46.581
			c0.048-0.04,0.066-0.137,0.008-0.197c-2.876-2.993-2.688-8.292-5.788-11.122c-0.929-0.848-2.215-1.203-3.09-2.112
			c-1.326-1.376-2.004-3.783-2.971-5.432c-0.746-1.272-1.399-2.201-2.396-3.212c-1.116-1.131-2.46-1.953-3.458-3.288
			c-0.729-0.974-1.167-2.925-1.871-3.73c-0.895-1.021-1.887-1.192-2.976-1.569c-3.85-1.333-8.192-3.032-11.974-2.075
			c-3.515,0.89-7.672,1.062-10.356,4.078c-0.758,0.852-1.314,1.937-2.003,2.865c-1.17,1.575-2.477,2.008-3.863,3.232
			c-0.833,0.737-1.152,1.259-1.5,2.608c-0.623,2.422-0.676,4.005-2.102,6.042c-0.697,0.997-1.142,1.167-1.561,2.563
			c-0.873,2.912-1.404,6.452-1.862,9.57c-0.247,1.688-0.59,2.317,0.065,3.933c0.066,0.163,0.21,0.263,0.344,0.307
			c-0.374,5.603,0.521,11.404,2.221,16.965c0.732,2.395,1.611,5.148,2.922,7.221c0.287,0.453,0.782,0.67,1.105,1.076
			c2.38,2.996,2.545,2.873,4.035,5.871c2.23,4.492,5.219,7.485,8.715,10.264c1.738,1.381,2.609,1.157,4.294,1.882
			c1.642,0.706,3.019,2.396,4.713,2.792c2.267,0.529,4.182-0.809,6.524,0.123c1.328,0.527,2.566,1.705,3.961,1.627
			c1.245-0.07,2.066-0.973,2.993-1.811c2.386-2.156,4.632-1.996,7.437-2.803c3.822-1.1,3.248-4.258,5.01-7.841
			c0.896-1.821,2.895-2.271,3.888-3.915c1.138-1.885,0.356-7.56,1.992-8.273c0.235-0.104,0.33-0.361,0.322-0.626
			c2.091,0.565,3.928,1.565,3.922,3.778c0.001,0.186,0.093,0.323,0.21,0.4c-2.777,17.163-15.328,25.225-28.823,25.713
			c-13.388,0.48-24.929-7.93-32.429-23.598c-7.395-15.448-10.045-35.8-3.696-50.202c6.06-13.742,18.809-21.718,31.994-19.54
			c15.272,2.525,27.572,16.741,33.392,35.193c0.043,0.139,0.107,0.237,0.178,0.318C264.327,46.864,262.242,46.305,259.105,46.581z"
			/>
		<path fill="#3C3C3B" d="M245.157,35.205c-0.139-0.306-0.551-0.201-0.497,0.146c0.077,0.483,0.009,0.928-0.283,1.208
			c-0.111,0.107-0.313,0.25-0.474,0.204c-0.29-0.083-0.218-0.728-0.126-0.96c0.074-0.188-0.154-0.344-0.239-0.181
			c-0.191,0.36-0.371,1.088-0.089,1.545c0.217,0.349,0.708,0.344,0.973,0.254C245.123,37.187,245.586,36.145,245.157,35.205z"/>
		<path fill="#3C3C3B" d="M243.211,33.485c-0.503-0.713-1.726-1.072-1.899,0.027c-0.105,0.674,0.451,1.684,1.031,1.414
			c0.179-0.083,0.087-0.449-0.111-0.396c-0.321,0.086-0.538-0.533-0.398-0.828c0.212-0.446,0.825-0.122,1.108,0.154
			C243.171,34.08,243.411,33.769,243.211,33.485z"/>
		<path fill="#3C3C3B" d="M244.99,31.525c-0.289-0.273-0.501,0.198-0.371,0.508c0.138,0.329,0.353,0.804,0.171,1.114
			c-0.204,0.346-0.664,0.001-0.486-0.412c0.099-0.23-0.185-0.494-0.319-0.31c-0.494,0.67,0.19,1.838,0.889,1.664
			C245.831,33.852,245.764,32.263,244.99,31.525z"/>
		<path fill="#3C3C3B" d="M237.227,23.346c-0.824,0.037-1.643-0.15-2.442-0.623c-0.18-0.107-0.422-0.102-0.497,0.147
			c-0.335,1.11-0.586,2.333-0.514,3.598c0.024,0.404,0.443,0.574,0.608,0.339c0.535,0.375,1.084,0.724,1.598,1.149
			c0.203,0.167,0.451,0.023,0.488-0.24c0.185-1.284,0.538-2.466,1.099-3.502C237.725,23.924,237.598,23.33,237.227,23.346z
			 M235.848,26.978c-0.456-0.236-0.91-0.505-1.359-0.76c0.08-0.852,0.179-1.664,0.387-2.462c0.558,0.299,1.115,0.501,1.686,0.57
			C236.216,25.144,235.981,26.027,235.848,26.978z"/>
		<path fill="#3C3C3B" d="M228.532,21.584c-0.427-0.862-0.806-1.748-1.161-2.654c-0.124-0.32-0.357-0.562-0.634-0.479
			c-0.438,0.131-0.896,0.205-1.272,0.496c-0.193,0.151-0.185,0.441-0.07,0.667c0.329,1.822,1.119,5.535,3.041,5.285
			c0.542-0.069,1.224-0.646,1.042-1.483C229.347,22.816,228.802,22.128,228.532,21.584z M228.255,23.715
			c-0.965,0.545-1.886-2.404-2.313-3.803c0.253-0.002,0.496-0.053,0.737-0.119c0.228,0.572,0.464,1.14,0.722,1.695
			c0.216,0.461,0.441,0.918,0.681,1.363C228.285,23.229,228.615,23.511,228.255,23.715z"/>
		<path fill="#3C3C3B" d="M221.605,31.543c-0.708,0.034-1.366-0.107-2.057-0.5c-0.214-0.123-0.45-0.062-0.494,0.243
			c-0.229,1.564-0.534,3.083-0.827,4.617c-0.002,0.015,0.001,0.026-0.002,0.041c-0.126,0.071-0.163,0.343,0.008,0.497
			c0.773,0.687,1.546,1.373,2.316,2.062c0.158,0.142,0.414,0.025,0.426-0.208c0.107-2.164,0.326-4.128,0.981-6.057
			C222.049,31.966,221.881,31.528,221.605,31.543z M220.354,37.494c-0.501-0.392-1.001-0.785-1.5-1.178
			c0.024-0.04,0.047-0.084,0.062-0.14c0.327-1.347,0.559-2.75,0.765-4.157c0.475,0.227,0.941,0.369,1.419,0.412
			C220.628,34.006,220.329,35.725,220.354,37.494z"/>
		<path fill="#3C3C3B" d="M213.767,35.243c-1.243-1.502-2.414-3.087-3.508-4.77c-0.156-0.242-0.496-0.359-0.59-0.031
			c-0.234,0.806-0.868,1.978-0.423,2.934c0.268,0.575,0.837,1.093,1.208,1.558c0.647,0.808,1.294,1.614,1.946,2.415
			c0.218,0.266,0.475-0.101,0.276-0.378c-0.017-0.02-0.033-0.041-0.047-0.063c0.451-0.257,0.827-0.575,1.19-0.984
			C213.962,35.764,213.914,35.421,213.767,35.243z M210.509,34.011c-0.296-0.401-0.703-0.787-0.746-1.352
			c-0.025-0.309,0.162-0.79,0.325-1.201c0.91,1.395,1.865,2.733,2.878,4.011c-0.251,0.231-0.506,0.421-0.816,0.59
			c-0.037,0.021-0.059,0.05-0.084,0.079C211.549,35.428,211.03,34.718,210.509,34.011z"/>
		<path fill="#3C3C3B" d="M212.862,56.722c-0.06-0.213-0.236-0.337-0.395-0.299c-0.917,0.229-1.833,0.459-2.745,0.706
			c-0.771,0.208-1.838,0.263-2.531,0.706c-0.945,0.605-0.227,2.163,0.242,3.16c0.235,0.502,0.882,0.198,0.684-0.343
			c-0.196-0.537-0.675-1.368-0.424-1.876c0.146-0.299,1.373-0.426,1.667-0.517c1.016-0.314,2.028-0.643,3.039-0.978
			c0.18,0.631,0.36,1.264,0.539,1.896c-1.601,0.14-3.189,0.458-4.647,1.138c-0.234,0.108-0.113,0.599,0.146,0.522
			c1.631-0.474,3.22-0.849,4.939-0.917c0.193-0.007,0.335-0.211,0.259-0.476C213.378,58.538,213.12,57.63,212.862,56.722z"/>
		<path fill="#3C3C3B" d="M225.149,56.818c-0.475-0.983-0.945-1.97-1.437-2.942c-0.357-0.704-0.739-1.44-1.309-1.896
			c-0.711-0.566-1.984-0.573-2.066,0.626c-0.005,0.075,0.014,0.145,0.035,0.21c-0.034,0.058-0.054,0.135-0.012,0.231
			c0.409,0.974,0.844,1.927,1.283,2.883c0.289,0.628,0.555,1.38,1.05,1.806c0.795,0.689,1.717,0.166,2.374-0.287
			C225.234,57.335,225.257,57.04,225.149,56.818z M223.619,57.148c-0.63,0.09-1.01-0.542-1.35-1.199
			c-0.497-0.961-0.992-1.92-1.512-2.863c0.041-0.016,0.084-0.024,0.118-0.072c0.783-1.052,1.607,0.093,2.147,1.168
			c0.443,0.881,0.88,1.768,1.323,2.648C224.12,56.981,223.883,57.11,223.619,57.148z"/>
		<path fill="#3C3C3B" d="M221.388,77.788c-0.144-0.131-0.354-0.084-0.453,0.054c-0.321,0.438-0.631,0.937-0.703,1.552
			c-0.081-0.015-0.162,0.013-0.234,0.086c-0.08,0.082-0.106,0.176-0.078,0.314c0.123,0.627,0.699,1.105,1.063,1.541
			c0.572,0.689,1.135,1.445,1.763,2.051c0.729,0.703,1.644,1.163,2.386,0.563C227.353,82.147,222.342,78.645,221.388,77.788z
			 M224.135,83.321c-0.717-0.047-1.378-0.959-1.909-1.543c-0.516-0.563-1.042-1.176-1.591-1.652
			c0.022-0.015,0.048-0.016,0.065-0.041c0.27-0.361,0.425-0.82,0.647-1.228c0.611,0.542,1.222,1.086,1.833,1.629
			c0.386,0.343,0.874,0.677,1.206,1.107C224.884,82.236,224.95,83.374,224.135,83.321z"/>
		<path fill="#3C3C3B" d="M229.856,63.327c-0.259-0.001-0.391,0.27-0.322,0.592c0.413,1.928,0.505,3.725,0.473,5.627
			c-0.119,0.135-0.102,0.453,0.121,0.547c1.045,0.439,2.076,0.707,3.14,0.891c0.219,0.039,0.339-0.26,0.274-0.506
			c-0.325-1.251-0.588-2.451-0.633-3.729c-0.024-0.754,0.264-1.863,0.001-2.652C232.474,62.771,230.564,63.331,229.856,63.327z
			 M232.139,66.183c-0.005,1.296,0.211,2.654,0.618,3.924c-0.659-0.074-1.315-0.217-1.971-0.42c0.104-1.785-0.081-3.611-0.435-5.419
			c0.486-0.054,1.093-0.141,1.458,0.042C232.398,64.602,232.139,65.489,232.139,66.183z"/>
		<path fill="#3C3C3B" d="M248.946,74.993c-1.192,0.418-2.411,0.704-3.675,0.84c-0.204,0.022-0.354,0.169-0.342,0.456
			c0.045,0.964,0.157,1.942,0.393,2.895c-0.02,0.087,0.004,0.175,0.062,0.251c0.012,0.039,0.019,0.08,0.029,0.12
			c0.125,0.431,0.48,0.432,0.625,0.179c1.167,0.427,2.342,0.702,3.522,0.844c0.186,0.023,0.338-0.189,0.317-0.424
			c-0.139-1.558-0.281-3.115-0.432-4.673C249.418,75.184,249.177,74.913,248.946,74.993z M249.134,79.642
			c-1.029-0.08-2.055-0.258-3.088-0.515c-0.149-0.805-0.273-1.585-0.335-2.39c1.044-0.133,2.061-0.366,3.059-0.689
			C248.888,77.245,249.009,78.444,249.134,79.642z"/>
		<path fill="#3C3C3B" d="M254.547,72.366c-0.083-0.289-0.31-0.436-0.523-0.395c-0.74,0.137-1.485,0.182-2.249,0.174
			c-0.292-0.004-0.434,0.369-0.271,0.71c0.605,1.274,1.166,2.585,1.727,3.892c-0.008,0.008-0.017,0.012-0.024,0.02
			c-0.376,0.354,0.035,1.213,0.441,0.947c0.065,0.148,0.128,0.299,0.192,0.447c0.134,0.303,0.528,0.113,0.406-0.205
			c-0.066-0.172-0.136-0.344-0.203-0.518c0.398-0.248,0.807-0.35,1.319-0.301c0.271,0.024,0.443-0.315,0.351-0.645
			C255.324,75.118,254.944,73.739,254.547,72.366z M253.646,76.431c-0.434-1.1-0.858-2.203-1.262-3.314
			c0.513,0.01,1.021-0.019,1.522-0.083c0.28,1.015,0.565,2.028,0.85,3.043C254.36,76.106,253.989,76.22,253.646,76.431z"/>
	</g>
	<path fill="#3C3C3B" d="M313.35,94.727c-0.732-7.788-1.526-15.571-2.303-23.354c-0.704-7.055-1.051-14.378-2.257-21.343
		c-0.608-3.516-1.622-7.19-3.868-9.387c-1.145-1.12-2.121-1.605-3.222-2.987c-1.573-1.975-1.558-3.398-1.853-6.06
		c-0.444-4.017-0.764-8.04-1.38-12.029c-0.021-0.126-0.062-0.222-0.11-0.304c0.093-0.049,0.188-0.09,0.274-0.149
		c0.213-0.147,0.276-0.422,0.23-0.674c0.189,0.363,0.624,0.434,0.767-0.034c0.56-1.832-0.133-2.717-1.212-3.125
		c0.008-0.03,0.027-0.042,0.033-0.075c0.208-1.207-0.067-2.594-0.253-3.817c-0.146-0.964-0.247-2.199-0.596-3.083
		c-0.717-1.815-2.605-0.813-3.712-0.625c-1.041,0.176-2.529,0.091-2.883,1.697c-0.09,0.101-0.133,0.279-0.068,0.447
		c-0.037,0.669,0.141,1.382,0.268,2.022c0.246,1.248,0.487,2.51,0.791,3.74c-0.479,0.22-0.9,0.576-1.161,1.209
		c-0.388,0.945-0.351,2.244,0.505,2.574c0.06,0.023,0.109-0.022,0.146-0.085c0.156,0.165,0.365,0.259,0.55,0.355
		c0.113,0.058,0.218,0.069,0.314,0.036c0.044,0.014,0.086,0.032,0.132,0.042c0.479,3.743,0.932,7.511,1.179,11.282
		c0.209,3.201-0.28,6.375-1.572,9.048c0.02-0.038-1.681,2.266-1.684,2.272c-1.806,3.33-2.006,7.757-1.912,11.894
		c0.318,13.961,1.399,29.793,4.442,43.35c0.078,0.346,0.298,0.465,0.502,0.424c1.285,2.878,6.123,3.454,8.092,3.561
		c4.305,0.231,8.309-1.635,11.602-5.195c0.285-0.309,0.289-0.768,0.16-1.138C313.338,95.076,313.367,94.921,313.35,94.727z
		 M297.554,15.057c-1.374-0.218-2.973,0.029-3.59,0.108c-0.392,0.05-0.831,0.087-1.263,0.182c-0.123-1.281-0.334-2.544-0.487-3.819
		c0.656,0.591,1.41,0.929,2.229,0.905c0.855-0.026,1.886-0.481,2.519-1.364C297.163,12.376,297.187,13.819,297.554,15.057z
		 M292.658,9.509c0.521-0.254,1.26-0.201,1.814-0.29c0.379-0.062,1.47-0.513,1.812-0.291c0.166,0.106,0.276,0.281,0.359,0.483
		c-0.769,0.64-1.291,1.493-2.314,1.605c-0.8,0.087-1.571-0.239-2.249-0.83C292.096,9.903,292.222,9.722,292.658,9.509z
		 M292.359,18.526c-0.024-0.013-0.046-0.044-0.071-0.048c-0.103-0.018-0.366-0.082-0.6-0.07c0.489-1.557,1.815-1.689,2.974-1.822
		c1.163-0.132,3.847-1.109,4.115,1.57c0.001,0.011,0.004,0.021,0.007,0.032c-0.058-0.095-0.139-0.175-0.244-0.223
		c-1.148-0.532-2.594-0.041-3.758,0.101c-0.642,0.076-1.291,0.148-1.925,0.292C292.819,18.366,292.589,18.43,292.359,18.526z
		 M303.603,99.534c-1.146,0.13-9.625-0.725-9.522-2.326c0.016-0.242-0.126-0.502-0.289-0.564c-1.181-14.895-4.378-29.846-4-44.852
		c0.119-4.783,1.188-7.454,3.472-10.78c0.783-1.142,1.406-2.026,1.696-3.642c0.941-5.249-0.521-12.349-1.651-17.625
		c0.251-0.021,0.479-0.053,0.631-0.055c1.078-0.018,2.491,0.159,3.662-0.133c-0.001,0.028-0.008,0.049-0.007,0.079
		c0.145,3.697,0.526,7.372,0.866,11.059c0.204,2.211,0.192,5.119,1.075,7.165c0.599,1.389,1.376,2.086,2.382,2.803
		c2.721,1.942,4.367,4.162,5.258,8.288c1.553,7.191,1.754,15.177,2.49,22.533c0.777,7.784,1.541,15.569,2.363,23.35
		c0.009,0.08,0.035,0.143,0.054,0.211C309.577,97.556,306.775,99.173,303.603,99.534z"/>
	<path fill="#3C3C3B" d="M342.831,21.363c-0.056,5.606,2.942,10.517,7.044,14.086c-0.019,0.032-0.044,0.055-0.057,0.093
		c-2.182,6.124-3.146,12.753,0.68,18.443c3.214,4.779,8.731,7.805,14.43,8.103c13.769,0.723,25.121-11.596,27.265-24.605
		c2.146-13.019-5.154-28.602-18.576-31.834C362.46,2.96,342.978,6.822,342.831,21.363z M387.069,17.806
		c7.969,13.208,3.777,31.4-9.373,39.48c-6.724,4.129-15.377,4.974-22.005,0.188c-7.267-5.242-7.429-13.353-4.756-21.15
		c0.973,0.758,1.989,1.449,3.037,2.056c0.601,0.348,1.233,0.683,1.878,1.014c-3.916,7.195,1.653,16.273,9.893,15.986
		c10.121-0.354,16.315-13.693,17.804-22.341c1.71-9.94-6.215-17.723-15.399-19.623c-1.783-0.369-4.203-0.463-6.648-0.173
		c-0.184-0.337-0.667-0.525-0.986-0.177c-0.108,0.118-0.212,0.246-0.317,0.367c-5.285,0.936-10.189,3.786-8.485,9.733
		c1.387,4.84,6.586,7.711,10.867,9.439c5.847,2.36,12.123,4.36,18.434,4.811c-0.642,1.786-1.441,3.528-2.306,5.206
		c-0.022-0.007-0.149-0.005-0.166-0.002c-0.069,0.007-0.14,0.023-0.208,0.039c-0.324-0.021-0.653-0.016-0.929,0.122
		c-13.045,0.773-38.584-7.93-32.47-25.694c2.779-8.069,13.833-10.725,21.388-10.798C375.184,6.2,382.443,10.134,387.069,17.806z
		 M356.825,39.878c6.317,3.031,14.321,5.03,20.882,3.661c0.161,0.032,0.332,0.039,0.504,0.033c-0.267,0.496-0.534,0.99-0.807,1.473
		c-2.774,4.895-7.596,9.886-13.722,8.728C357.015,52.512,354.609,45.762,356.825,39.878z M355.378,26.496
		c-0.054-0.055-0.097-0.11-0.148-0.165c0.092-0.217,0.145-0.47,0.24-0.751c0.513-1.528,1.008-3.041,1.68-4.509
		c1.068-2.337,2.495-4.377,3.862-6.51c0.414-0.069,0.834-0.119,1.252-0.15c2.252-0.16,4.543,0.075,6.744,0.66
		c-4.388,3.633-7.771,9.291-8.783,14.904C358.435,29.066,356.763,27.967,355.378,26.496z M354.714,25.727
		c-3.889-4.88-0.516-9.053,4.24-10.65c-0.934,1.4-1.707,2.939-2.361,4.445c-0.44,1.016-0.839,2.052-1.18,3.106
		C355.229,23.191,355.056,24.795,354.714,25.727z M370.362,15.481c1.636,0.553,3.201,1.3,4.643,2.234
		c5.172,3.356,8.336,8.649,7.274,14.971c-0.195,1.152-0.483,2.299-0.836,3.433c-4.837-0.377-9.434-1.802-14.017-3.336
		c-2.164-0.725-4.429-1.474-6.55-2.478C362.976,24.372,365.841,19.858,370.362,15.481z"/>
	<path fill="#3C3C3B" d="M350.929,62.076c0.242-7.905-1.248-13.881-6.139-14.406c1.437-7.28,3.983-14.118,6.347-21.059
		c1.377-4.047,5.386-12.009,2.177-16.177c-2.064-2.682-5.708-1.667-7.884,0.28c-4.013,3.592-4.282,9.765-3.811,15.09
		c-0.655-2.252-1.51-4.386-2.617-6.315c-1.263-2.201-6.129-6.685-8.422-4.61c-3.782,1.563-0.732,8.357,0.7,10.847
		c1.776,3.086,4.057,5.765,5.82,8.864c2.332,4.1,3.601,8.584,4.646,13.26c0.006,0.026,0.019,0.043,0.027,0.064
		c-8.672,2.245-9.659,14.706-9.413,22.72c0.354,11.475,3.354,23.119,9.408,32.459c0.088,0.135,0.219,0.164,0.331,0.13
		c0.259,0.119,0.6,0.04,0.704-0.349c0.461-1.723,1.741-6.092,3.155-11.658c0.243-0.105,0.412-0.477,0.194-0.771
		c1.362-5.424,2.813-11.884,3.76-18.124c0.07-0.098,0.095-0.244,0.058-0.375c0.444-2.983,0.767-5.908,0.906-8.641
		c0.388,0.025,0.746-0.528,0.388-0.91C351.157,62.28,351.041,62.183,350.929,62.076z M342.159,26.685
		c0.152-5.262-0.133-11.477,3.976-15.057c1.948-1.698,2.457-1.591,4.668-0.288c1.368,1.757,1.979,3.575,2.133,5.963
		c0.001,0.029,0.014,0.054,0.02,0.081c-0.369,2.091-1.07,4.172-1.706,6.168c-2.249,7.046-5.038,13.85-6.649,21.109
		c1.223-8.938,3.271-17.615,4.696-26.511c0.04-0.247-0.248-0.331-0.331-0.102c-3.308,9.22-4.611,19.646-5.646,29.464
		c-0.004,0.055,0.005,0.1,0.013,0.145c-0.035,0.003-0.064,0.001-0.1,0.004c0.014-0.04,0.027-0.08,0.031-0.13
		c0.441-6.425,0.365-13.964-1.346-20.609C342.033,26.937,342.153,26.866,342.159,26.685z M337.283,32.794
		c-1.796-2.877-10.004-12.403-7.013-16.518c2.42-3.023,6.84,1.944,8.13,4.279c1.338,2.424,2.114,5.336,2.706,8.085
		c0.606,2.813,0.91,5.637,1.086,8.474c-1.101-5.689-3.753-10.97-7.809-14.767c-0.185-0.173-0.438,0.097-0.268,0.3
		c5.253,6.243,8.098,13.739,7.875,22.215C341.204,40.535,339.54,36.405,337.283,32.794z M338.357,60.579
		c0.049,0.287,0.407,0.19,0.427-0.066c0.065-0.838,6.207,0.008,6.353,0.037c1.718,0.342,3.442,0.855,4.837,2.035
		c-0.067,2.813-0.41,5.618-0.878,8.389c-1.844-1.457-4.969-1.654-6.897-1.056c-0.211,0.065-0.177,0.453,0.054,0.44
		c1.374-0.076,2.688-0.081,4.026,0.348c0.956,0.307,1.76,0.908,2.627,1.369c-0.128,0.711-0.261,1.42-0.399,2.125
		c-0.44,2.24-0.91,4.475-1.399,6.704c-2.42-2.604-6.752-2.169-9.752-1.757c-0.286,0.039-0.305,0.529,0,0.519
		c1.895-0.064,3.85-0.211,5.718,0.257c1.458,0.365,2.588,1.178,3.795,2.086c-0.55,2.473-1.123,4.939-1.717,7.4
		c-1.735-1.502-4.004-2.053-6.175-1.411c-0.349,0.104-0.198,0.671,0.148,0.601c2.148-0.443,4.201,0.211,5.787,1.783
		c-0.953,3.918-1.945,7.824-2.977,11.709c-4.051-8.027-7.016-16.543-8.025-25.756c-0.926-8.445-1.573-21.757,6.353-26.402
		c4.303-2.521,7.011-0.045,8.44,3.6c-1.787-1.264-3.86-1.755-6-1.409c-0.238,0.039-0.183,0.487,0.058,0.472
		c2.326-0.158,4.462,0.633,6.249,2.311c0.06,0.057,0.124,0.085,0.188,0.101c0.399,1.412,0.638,2.911,0.724,4.315
		c0.041,0.66,0.057,1.32,0.062,1.98c-1.504-1.026-3.264-1.484-5.039-1.76c-1.729-0.268-5.009-0.823-6.516,0.454
		c-0.097,0.083-0.138,0.183-0.115,0.318C338.327,60.403,338.342,60.491,338.357,60.579z"/>
	<path fill="#3C3C3B" d="M418.708,107.07c5.963,0.755,6.807-8.559,5.728-13.655c-1.284-6.059-3.929-16.676-9.513-18.99
		c-0.026-0.04-0.073-0.059-0.123-0.07c0.658-9.622-1.07-19.877-1.877-29.445c-0.912-10.792-1.082-22.159-3.076-32.773
		c-1.082-5.754-4.355-12.792-10.117-12.087c-6.121,0.746-7.591,9.291-6.699,15.333c0.023,0.163,0.092,0.264,0.179,0.323
		c-0.017,2.057,1.312,4.035,3.147,3.963c1.695-0.068,3.491-2.292,2.735-4.39c-0.014-0.041-0.046-0.057-0.069-0.086
		c0.045-0.875,0.053-1.737,0.124-2.665c0.111-0.82,0.227-1.637,0.34-2.456c2.884-0.893,4.434-0.254,4.644,1.913
		c0.979,2.599,0.894,6.622,1.253,9.441c0.779,6.121,1.536,12.246,2.291,18.368c1.427,11.591,2.059,23.218,2.758,34.884
		c-7.59,1.521-14.348,7.938-12.899,18.379C399.169,104.855,409.851,110.58,418.708,107.07z M414.469,75.503
		c3.813,1.755,5.563,7.391,7.007,11.594c0.809,2.353,1.537,4.781,2.018,7.258c0.629,3.232,0.762,10.084-2.905,10.951
		c-1.926,0.452-4.466-0.801-5.729-2.547c-0.721-1-1.356-2.166-1.899-3.309c-0.974-2.055-1.723-4.303-2.196-6.591
		c-0.907-4.362-1.807-16.12,3.486-17.554C414.3,75.386,414.368,75.456,414.469,75.503z M406.249,21.278
		c-0.423-3.247-0.113-13.929-4.328-14.627c-4.235-0.701-3.727,6.286-3.556,9.619c-0.277,1.31-1.009,2.473-2.324,2.305
		c-1.251-0.156-2.153-1.556-2.368-2.972c0.065-0.085,0.108-0.203,0.105-0.346c-0.102-5.15,0.215-12.558,5.602-13.804
		c4.066-0.939,7.188,3.434,8.553,7.502c2.255,6.716,2.095,14.976,2.69,22.061c1.211,14.38,3.037,28.885,3.635,43.308
		c-0.921-0.014-1.848,0.047-2.768,0.175C410.39,56.571,408.564,39.062,406.249,21.278z M398.676,92.862
		c-1.545-10.682,5.843-15.961,13.337-17.508c-3.354,2.51-3.315,10.782-2.868,14.838c0.57,5.166,2.949,13.697,7.507,16.188
		C408.755,107.437,400.218,103.513,398.676,92.862z"/>
	<path fill="#3C3C3B" d="M448.853,88.279c1.511,2.097,4.355,0.991,6.207,0.7c7.171-1.125,14.08-3.987,20.653-8.067
		c0.456-0.282,0.259-1.254-0.166-1.138c-10.015-0.442-20.226,1.091-30.201,2.196c-5.034,0.558-10.067,1.168-15.091,1.886
		c-1.734,0.248-4.882-0.043-5.345,3.043c-0.01,0.062-0.005,0.117,0.003,0.167c-0.899,1.747,1.605,3.865,3.076,3.831
		c6.603-0.148,13.629-2.777,20.03-4.939C448.141,86.823,448.388,87.634,448.853,88.279z M462.521,85.931
		c-2.475,0.779-4.982,1.365-7.505,1.751c-0.985,0.151-2.663,0.825-3.561,0.408c-1.897-0.884-2.632-2.743-2.834-5.171
		c0.603-0.061,1.204-0.128,1.806-0.186c7.781-0.759,15.646-0.895,23.41-1.934C470.181,82.979,466.417,84.702,462.521,85.931z
		 M436.667,88.164c-1.623,0.368-3.251,0.704-4.881,1.012c-0.815,0.155-1.631,0.309-2.448,0.445c-0.512,0.086-6.397,0.967-3.44-3.21
		c0.018-0.026,0.021-0.054,0.025-0.082c1.38-1.521,4.131-1.224,5.63-1.423c2.096-0.278,4.192-0.545,6.288-0.798
		c3.374-0.408,6.749-0.776,10.127-1.121c-0.049,0.69-0.072,1.414-0.032,2.129C444.212,86.34,440.443,87.308,436.667,88.164z"/>
	<path fill="#3C3C3B" d="M470.397,54.417c0.219-0.087,0.157-0.495-0.072-0.481c-3.818,0.223-12.9,2.971-13.313-4.099
		c0-0.001,0-0.003,0-0.005c0.398-0.129,0.363-0.889-0.092-0.864c-5.779,0.307-11.577,1.239-17.314,2.115
		c-2.656,0.407-5.31,0.843-7.961,1.287c-1.326,0.223-2.65,0.458-3.975,0.692c-0.779,0.148-1.561,0.287-2.344,0.416
		c-2.014,0.607-3.176-0.483-3.505-3.227c1.733-2.14,7.789-1.563,9.626-1.64c2.923-0.122,5.845-0.243,8.766-0.366
		c5.568-0.231,11.338,0.008,16.848-0.992c0.258-0.045,0.288-0.372,0.136-0.531c0.22-0.047,0.405-0.278,0.313-0.627
		c-0.996-3.783,5.734-3.47,7.014-3.552c1.953-0.127,3.907-0.2,5.855-0.4c0.472-0.048,0.43-0.868-0.037-0.884
		c-2.19-0.078-16.056-1.491-13.629,5.153c0.035,0.095,0.085,0.159,0.141,0.211c-7.485-0.678-15.263,0.393-22.756,0.719
		c-3.431,0.148-7.237-0.244-10.611,0.508c-1.534,0.342-2.464,1.159-2.727,2.998c-0.01,0.061-0.008,0.115,0,0.165
		c-0.084,0.768,0.123,1.554,0.694,2.305c1.922,2.526,5.976,0.849,8.245,0.432c8.93-1.641,17.915-2.479,26.865-3.839
		C453.17,57.22,468.379,55.229,470.397,54.417z"/>
	<g>
		<path fill="#3C3C3B" d="M438.889,18.459c4.178-0.766,8.91-2.198,12.751,0.46c0.007,0.111,0.045,0.22,0.135,0.305
			c4.411,4.15,20.225,4.999,19.269-5.329c-0.435-4.689-4.747-6.68-8.221-7.102c-3.194-0.388-9.932,0.135-11.461,4.196
			c-0.007,0.019-0.007,0.035-0.011,0.053c-3.15,2.462-7.332,1.52-10.928,1.25c-4.238-0.317-8.488-0.415-12.733-0.294
			c-2.98,0.084-13.255-0.067-11.111,6.586c0.137,4.853,6.973,3.409,9.631,2.746C430.425,20.279,434.627,19.239,438.889,18.459z
			 M417.282,18.46c-0.587-6.447,9.088-5.288,12.467-5.332c3.353-0.041,6.707,0.056,10.053,0.287
			c3.977,0.275,8.809,1.605,11.908-1.834c0.106-0.007,0.211-0.065,0.281-0.207c1.314-2.617,6.215-3.441,8.484-3.525
			c1.457-0.054,2.946,0.088,4.356,0.531c1.271,0.343,2.415,0.994,3.43,1.95c1.665,1.416,2.036,3.118,1.11,5.107
			c-0.694,3.523-2.26,4.304-5.223,5.068c-1.25,0.321-2.506,0.479-3.783,0.517c-2.959,0.088-5.439-0.648-7.922-2.469
			c-0.016-0.083-0.046-0.164-0.109-0.23c-3.665-3.828-9.842-1.629-14.141-0.825C434.79,18.134,418.708,23.957,417.282,18.46z"/>
		<path fill="#3C3C3B" d="M467.672,17.313c0.212-0.238-0.087-0.612-0.323-0.444c-2.742,1.938-5.264,2.43-8.39,1.724
			c-3.271-0.739-7.411-3.841-3.748-7.872c0.216-0.24-0.096-0.658-0.338-0.461c-2.679,2.159-2.473,6.422,0.401,8.255
			C458.856,20.802,464.66,20.69,467.672,17.313z"/>
	</g>
	<path fill="#3C3C3B" d="M573.273,3.527c-3.954,5.5-5.781,14.953-6.975,22.196c-2.462,14.953-2.142,31.517,0.577,46.574
		c-0.125,0.255-0.062,0.639,0.146,0.78c0.28,1.501,0.575,2.991,0.903,4.457c1.845,8.246,4.787,16.192,9.252,22.492
		c3.869,5.458,9.719,10.303,15.289,6.528c0.161,0.105,0.361,0.096,0.508-0.143c4.191-6.857,5-15.723,4.962-24.294
		c-0.041-8.739-0.659-17.483-1.793-26.09c-1.134-8.611-2.78-17.109-4.917-25.375c-2.055-7.947-4.299-16.504-8.061-23.344
		C580.814,3.03,576.781-1.353,573.273,3.527z M569.456,16.672c1.294-0.59,3.466,1.346,4.415,2.345
		c0.938,0.986,1.675,2.133,2.196,3.496c-2.406-1.389-5.148-2.054-7.732-1.44c0.324-1.479,0.68-2.946,1.076-4.393
		C569.427,16.674,569.44,16.679,569.456,16.672z M566.256,35.165c0.155-1.886,0.356-3.766,0.602-5.636
		c1.902,0.173,3.725,0.666,5.457,1.78c1.002,0.643,3.627,2.565,4.349,4.313c-3.371-1.542-7.127-1.775-10.445,0.085
		C566.231,35.526,566.242,35.344,566.256,35.165z M565.854,42.193c2.286-0.691,4.937,1.343,6.907,2.624
		c1.855,1.206,3.737,2.5,5.095,4.534c-3.988-1.696-8.105-1.563-12.071,0.567C565.74,47.331,565.765,44.752,565.854,42.193z
		 M566.17,58.535c4.303-0.3,10.678-0.162,13.46,5.052c-4.386-0.838-8.842-2.014-12.866,1.039
		C566.522,62.606,566.323,60.573,566.17,58.535z M569.44,79.376c-0.523-2.083-0.98-4.21-1.389-6.364
		c3.016-0.442,6.074-0.386,8.98,0.923c1.551,0.699,3.063,1.721,4.359,3.052c1.214,1.245,3.377,3.252,0.555,2.46
		c-4.043-1.133-8.482-1.768-12.285,0.779C569.585,79.938,569.509,79.652,569.44,79.376z M572.954,89.957
		c4.535-1.798,10.203,0.312,13.756,4.548c-3.713-0.738-7.491-1.09-10.848,1.549C574.789,94.111,573.817,92.04,572.954,89.957z
		 M584.555,13.069c5.022,12.673,8.222,27.106,10.196,41.136c1.104,7.854,1.778,15.82,1.986,23.808
		c0.246,9.443,0.188,19.57-4.282,27.405c-6.529,3.753-12.18-1.562-16.362-8.954c3.838-2.164,7.707-1.559,11.721-0.67
		c0.313,0.072,0.597-0.5,0.363-0.836c-3.623-5.217-10.396-8.369-15.563-5.829c-1.17-2.929-2.118-5.839-2.816-8.398
		c4.814-1.954,9.388-1.036,14.209,0.522c0.229,0.074,0.451-0.218,0.482-0.497c0.353-3.204-3.945-6.085-5.711-7.133
		c-3.45-2.046-7.229-2.353-10.925-1.685c-0.392-2.178-0.725-4.387-1.004-6.611c4.373-2.744,9.055-1.064,13.63-0.33
		c0.319,0.051,0.663-0.426,0.491-0.852c-2.528-6.209-10-8.04-14.869-6.604c-0.16-2.335-0.257-4.678-0.306-7.017
		c0.039,0.01,0.081,0.013,0.127-0.007c4.379-1.847,8.819-1.664,13.06,0.725c0.478,0.268,0.783-0.459,0.564-0.969
		c-1.546-3.618-4.636-5.574-7.39-7.239c-1.904-1.151-4.146-2.634-6.261-2.028c0.066-1.57,0.162-3.128,0.277-4.677
		c3.79-0.952,7.29-1.029,10.964,0.846c0.261,0.134,0.63-0.075,0.642-0.494c0.073-2.369-2.734-4.697-4.017-5.708
		c-2.075-1.636-4.361-2.456-6.757-2.479c0.316-2.249,0.708-4.478,1.171-6.68c3.073,0.059,5.795,0.572,8.609,2.522
		c0.387,0.269,0.725-0.343,0.61-0.807c-0.641-2.596-1.922-4.635-3.634-6.131c-1.104-0.966-2.585-2.17-3.974-2.042
		c0.281-0.968,0.576-1.929,0.895-2.879c1.227-3.668,2.77-9.424,6.246-9.276C580.646,3.362,582.976,9.087,584.555,13.069z"/>
	<path fill="#3C3C3B" d="M594.64,2.89c-0.018,0.003-0.03-0.001-0.047,0.003c-5.824,1.551-9.675,8.542-9.954,14.174
		c-0.065,1.311,0.058,4.81,2.201,4.531c1.117-0.146,2.051-1.842,2.784-2.523c1.891-1.756,3.995-2.907,6.623-3.008
		c0.981,2.856,3.883,2.77,6.646,2.461c-0.001,3.306,2.025,4.758,5.094,5.368c-1.59,2.354-0.82,4.869,0.302,7.336
		c0.03,0.063,0.071,0.108,0.116,0.141c0.021,0.082,0.086,0.149,0.203,0.158c0.799,0.062,1.603,0.109,2.406,0.15
		c-1.326,2.416-1.309,4.77,0.125,6.846c-1.998,1.42-3.809,3.451-3.039,6.015c0.051,0.167,0.113,0.334,0.178,0.5
		c-0.041,0.015-0.083,0.028-0.12,0.055c-2.068,1.455-4.268,2.534-6.774,3.028c-1.129,0.222-2.863-0.06-3.882,0.561
		c-1.766,1.078-0.237,2.991,0.757,4.004c4.16,4.254,10.783,4.526,16.107,2.465c4.128,3.351,10.421-3.816,11.726-7.467
		c0.073-0.204-0.074-0.358-0.245-0.387c6.006-0.188,7.197-10.837,6.154-15.48c0.693-0.187,1.344-0.449,1.923-0.827
		c2.629-1.715,3.028-5.524,2.917-8.335c-0.125-3.173-1.121-6.301-2.903-8.943c-1.497-2.216-3.632-4.367-6.56-4.008
		c-0.884,0.109-1.771,0.396-2.647,0.793c0.038-0.092,0.036-0.204-0.03-0.322c-1.982-3.545-4.971-6.387-8.791-7.958
		c-2.955-1.215-5.386-0.618-7.23,1.236c-0.011-0.008-0.016-0.021-0.028-0.026c-2.792-1.724-6.112-2.586-9.415-2.383
		C597.658,1.145,595.608,1.548,594.64,2.89z M591.177,16.771c-1.007,0.643-1.898,1.456-2.73,2.302
		c-0.188,0.192-0.938,1.263-1.176,1.278c-0.574-0.383-1.146-0.765-1.723-1.148c-0.104-0.572-0.141-1.146-0.109-1.722
		c0.079-5.241,3.588-11.656,8.742-13.595c-0.002,0.012-0.008,0.023-0.01,0.035c-0.4,1.716,0.387,3.901,0.698,5.577
		c0.36,1.932,0.616,4,1.169,5.903C594.281,15.311,592.668,15.818,591.177,16.771z M598.907,52.107
		c-0.411-0.564-1.053-2.066-0.521-2.72c0.095-0.117,1.308-0.083,1.481-0.103c1.143-0.12,2.269-0.339,3.367-0.675
		c1.96-0.598,3.749-1.553,5.384-2.767c0.664,1.391,1.629,2.743,2.349,4.024c0.816,1.451,1.525,3.066,2.538,4.393
		c0.136,0.178,0.274,0.338,0.417,0.486C609.261,55.892,602.14,56.544,598.907,52.107z M625.531,47.423
		c-2.637,3.704-8.24,11.908-12.265,4.772c-1.166-2.065-2.325-4.135-3.476-6.21c-0.851-1.538-1.306-2.936-0.403-4.576
		c0.496-0.902,1.377-1.663,2.125-2.39c0.24,0.291,0.506,0.58,0.807,0.859c3.124,2.918,7.329,5.822,11.465,7.113
		c0.697,0.216,1.341,0.311,1.942,0.307C625.653,47.312,625.585,47.352,625.531,47.423z M623.02,45.77
		c-2.749-1.137-5.362-2.816-7.729-4.59c-1.63-1.221-3.483-2.553-4.191-4.513c-0.615-1.7-0.044-3.315,0.454-4.961
		c3.911,0.185,7.837,0.181,11.752,0.252c2.32,0.042,5.368,0.501,7.966,0.024C631.802,37.073,630.985,49.063,623.02,45.77z
		 M626.151,10.92c4.085-1.423,6.903,2.271,8.381,5.57c1.174,2.625,1.713,5.556,1.396,8.425c-0.191,1.715-0.581,3.781-1.949,4.995
		c-1.526,1.354-3.793,1.317-5.719,1.307c-6.416-0.039-12.853-0.401-19.268-0.152c0.001-0.054-0.007-0.11-0.031-0.166
		c-0.589-1.356-1.348-2.912-1.193-4.43c0.21-2.05,2.003-3.44,3.435-4.742c2.264-2.051,4.624-4.003,7.078-5.827
		C620.668,14.124,623.296,11.915,626.151,10.92z M610.89,2.729c2.168-0.818,4.191-0.055,6.119,0.954
		c2.975,1.555,5.309,3.996,6.941,6.871c0.065,0.111,0.158,0.173,0.258,0.198c-2.369,1.196-4.631,3.132-6.498,4.524
		c-3.188,2.378-6.973,5.06-9.422,8.215c-1.489-0.536-3.34-1.092-4.15-2.561c-0.881-1.592-0.368-3.938,0.059-5.592
		c0.691-2.667,1.725-5.303,2.873-7.81C607.855,5.808,608.966,3.454,610.89,2.729z M608.122,4.07c-0.471,0.578-0.9,1.241-1.279,1.988
		c-1.794,3.523-3.771,7.953-3.938,11.987c-1.057-0.028-2.303,0.018-3.285-0.292c-2.832-0.892-2.728-2.482-3.186-4.675
		c-0.471-2.264-1.202-4.728-1.297-7.042C594.858-0.795,604.636,2.186,608.122,4.07z"/>
	<path fill="#3C3C3B" d="M612.771,55.832c-0.015-0.004-0.024-0.014-0.037-0.018c-4.904-1.141-10.488,2.726-12.903,6.976
		c-0.561,0.989-1.845,3.748-0.153,4.395c0.88,0.338,2.235-0.602,3.044-0.834c2.084-0.6,4.086-0.645,6.064,0.334
		c-0.396,2.608,1.777,3.709,3.936,4.582c-1.297,2.561-0.373,4.5,1.653,6.209c-2.098,1.183-2.518,3.439-2.657,5.803
		c-0.004,0.063,0.01,0.113,0.031,0.156c-0.018,0.07,0.004,0.15,0.086,0.204c0.566,0.369,1.14,0.729,1.717,1.084
		c-1.925,1.338-2.837,3.168-2.594,5.354c-2.031,0.296-4.162,1.14-4.602,3.435c-0.028,0.15-0.047,0.306-0.064,0.46
		c-0.035-0.006-0.072-0.012-0.11-0.007c-2.097,0.296-4.142,0.247-6.185-0.38c-0.921-0.281-2.088-1.198-3.082-1.127
		c-1.728,0.124-1.348,2.223-1.014,3.406c1.398,4.97,6.178,7.846,10.912,8.391c1.73,4.256,9.184,1.236,11.579-1.067
		c0.134-0.128,0.085-0.308-0.03-0.398c4.505,2.271,9.563-5.5,10.615-9.515c0.583,0.135,1.166,0.191,1.74,0.133
		c2.613-0.271,4.4-3.061,5.424-5.283c1.153-2.508,1.645-5.332,1.366-8.096c-0.234-2.32-0.964-4.844-3.265-5.745
		c-0.694-0.271-1.463-0.405-2.266-0.45c0.064-0.057,0.107-0.144,0.105-0.26c-0.072-3.545-1.16-6.949-3.361-9.703
		c-1.705-2.131-3.73-2.646-5.818-1.951c-0.006-0.012-0.004-0.022-0.012-0.032c-1.382-2.459-3.492-4.462-6.009-5.633
		C615.681,55.694,614.013,55.181,612.771,55.832z M604.77,65.19c-0.995,0.094-1.972,0.365-2.918,0.688
		c-0.214,0.072-1.188,0.6-1.368,0.516c-0.272-0.526-0.545-1.053-0.82-1.581c0.148-0.485,0.347-0.945,0.596-1.379
		c2.115-4.028,7.219-7.586,11.782-7.015c-0.007,0.008-0.015,0.016-0.022,0.023c-0.966,1.168-1.244,3.177-1.671,4.601
		c-0.493,1.642-1.116,3.346-1.454,5.044C607.634,65.31,606.243,65.054,604.77,65.19z M596.607,95.677
		c-0.081-0.604,0.034-2.025,0.685-2.318c0.115-0.053,0.994,0.461,1.13,0.518c0.891,0.365,1.808,0.648,2.749,0.831
		c1.682,0.325,3.374,0.306,5.055,0.022c-0.053,1.346,0.129,2.781,0.154,4.063c0.033,1.452-0.076,2.988,0.15,4.426
		c0.03,0.191,0.069,0.371,0.115,0.543C602.759,102.772,597.251,100.413,596.607,95.677z M618.083,102.76
		c-3.398,1.808-10.751,5.907-10.918-1.238c-0.051-2.068-0.095-4.14-0.127-6.21c-0.025-1.533,0.188-2.798,1.496-3.706
		c0.721-0.501,1.668-0.735,2.506-0.997c0.063,0.322,0.147,0.652,0.258,0.99c1.158,3.516,3.122,7.457,5.665,10.123
		c0.431,0.448,0.868,0.78,1.311,1.019C618.216,102.722,618.148,102.726,618.083,102.76z M616.878,100.468
		c-1.583-1.988-2.85-4.339-3.898-6.665c-0.723-1.603-1.569-3.38-1.323-5.184c0.214-1.563,1.269-2.585,2.282-3.659
		c2.813,1.716,5.711,3.293,8.57,4.922c1.693,0.967,3.762,2.55,5.866,3.225C626.769,97.263,621.462,106.224,616.878,100.468z
		 M632.86,74.729c3.572,0.542,4.202,4.538,3.996,7.688c-0.162,2.507-0.915,4.993-2.276,7.088c-0.813,1.252-1.909,2.695-3.397,3.086
		c-1.656,0.435-3.313-0.506-4.729-1.289c-4.718-2.61-9.323-5.481-14.152-7.869c0.022-0.041,0.038-0.088,0.043-0.143
		c0.096-1.287,0.148-2.797,0.858-3.91c0.958-1.504,2.825-1.861,4.394-2.293c2.474-0.678,4.98-1.24,7.506-1.666
		C627.561,75.007,630.366,74.351,632.86,74.729z M624.819,62.245c1.92,0.237,3.113,1.645,4.141,3.199
		c1.582,2.402,2.346,5.232,2.423,8.117c0.004,0.111,0.049,0.196,0.112,0.256c-2.218-0.025-4.646,0.563-6.569,0.892
		c-3.283,0.56-7.126,1.114-10.172,2.573c-0.888-1.014-2.035-2.189-2.057-3.653c-0.025-1.588,1.273-3.198,2.239-4.31
		c1.555-1.787,3.352-3.412,5.183-4.895C621.372,63.409,623.116,62.032,624.819,62.245z M622.251,62.171
		c-0.573,0.258-1.15,0.599-1.723,1.024c-2.706,2.009-5.902,4.645-7.607,7.702c-0.769-0.447-1.706-0.912-2.309-1.547
		c-1.741-1.831-1.039-3.021-0.516-4.903c0.54-1.944,0.967-4.146,1.805-5.978C614.378,53.065,620.418,59.308,622.251,62.171z"/>
	<path fill="#3C3C3B" d="M709.146,83.332c0.174-0.044,0.294-0.138,0.347-0.263c9.151,1.773,5.507-14.284,5.132-17.244
		c-0.859-6.791-1.648-13.822-3.829-20.782c-0.29-0.924-0.614-1.816-1.073-2.655c0.258,0.022,0.48-0.041,0.502-0.237
		c1.178-11.619-1.093-25.616-21.242-34.183c-8.23-3.499-18.253-5.561-26.125-4.81c-8.27,0.79-12.508,5.502-15.031,10.403
		c-3.757,7.28-5.49,15.659-5.961,23.992c-0.464,8.225,2.146,16.843,4.818,25.524c3.9,12.672,10.285,32.605,31.857,40.432
		C699.898,111.255,714.159,96.107,709.146,83.332z M702.128,81.22c-0.017,0.059-0.038,0.119-0.021,0.199
		c1.236,6.199-1.982,13.095-11.474,13.191c-11.474,0.117-19.298-9.083-22.475-15.905c-5.289-11.36-7.455-23.017-7.731-33.82
		c-0.244-9.694-0.901-24.22,9.341-29.775c7.562-4.099,21.234-1.851,28.415,6.106c5.234,5.799,4.945,11.475,5.8,17.121
		c-0.06,0.022-0.112,0.049-0.157,0.083c-0.008-0.121-0.104-0.25-0.34-0.354c-0.529-0.237-1.037-0.435-1.531-0.615
		c0.016-0.03,0.04-0.054,0.043-0.091c0.41-3.348-0.411-7.02-2.736-10.642c-0.656-1.021-2.734-3.911-4.764-3.773
		c-16.334-7.301-23.344,6.819-24.518,14.271c-0.577,3.665-0.383,10.196,2.154,16.164c-3.68,5.923-4.148,15.923,2.32,23.34
		c2.11,2.418,13.125,9.971,15.21,6.512c0.849,0.11,1.688,0.136,2.493,0.039c3.836-0.459,4.853-2.968,5.174-5.511
		C698.71,79.099,700.299,80.274,702.128,81.22z M690.307,28.625c-0.568,0.042-0.419,0.721,0.27,0.792
		c0.999,0.101,2.087,0.139,3.111,0.416c1.845,0.175,2.489,1.116,1.93,2.821c-0.397,0.035-0.796,0.07-1.192,0.104
		c-1.493,0.042-3.114-0.155-4.65-0.208c-2.192-0.072-5.854-0.283-7.064,0.902c-0.784,0.771-0.326,1.992,1.198,2.738
		c1.015,0.496,2.193,0.587,3.251,0.811c1.729,0.366,3.468,0.975,5.176,1.214c-1.044,0.881-1.837,2.051-2.444,3.366
		c-2.712-0.742-5.403-1.208-8.052-1.335c-1.889-0.09-4.535-0.134-5.155,1.127c-0.567,1.161,0.87,2.348,2.606,3.1
		c2.783,1.208,6.068,2.314,9.018,3.185c-0.099,0.837-0.154,1.657-0.186,2.44c-3.437-0.603-9.201-0.979-9.141,1.469
		c0.029,1.171,1.659,2.024,3.188,2.535c1.398,0.465,2.723,0.869,4.065,1.493c0.77,0.356,1.478,0.776,2.229,1.136
		c0.183,1.466,0.445,3.142,0.83,4.925c-22.957-7.641-13.138-39.669,7.855-35.525c1.141,1.667,2.187,3.551,2.309,3.858
		c0.968,2.393,1.203,4.654,1.047,6.881c-0.004,0.046,0.018,0.088,0.029,0.131c-3.201-0.878-5.601-0.502-7.393,0.622
		c-0.073-0.11-0.188-0.219-0.352-0.314c-1.543-0.901-3.292-1.34-5.049-1.77c-0.32-0.079-2.234-0.419-2.313-0.504
		c-0.669-0.74,1.84-0.722,2.255-0.748c3.052-0.193,7.443,0.686,9.838-0.414c1.367-0.628,1.691-1.941,0.369-3.239
		C695.922,28.701,692.733,28.435,690.307,28.625z M689.496,42.528c-0.437,1.15-0.748,2.376-0.964,3.612
		c-1.506-0.594-3.046-1.112-4.57-1.647c-1.063-0.372-5.949-1.579-4.008-2.567c0.905-0.462,3.855-0.068,5.098,0.035
		C686.521,42.084,688.005,42.293,689.496,42.528z M688.091,51.199c-0.012,1.284,0.043,2.419,0.123,3.263
		c0.012,0.111,0.023,0.232,0.035,0.346c-1.703-0.894-3.782-1.573-5.416-2.085c-1.053-0.33-1.787-0.935-0.727-1.278
		c0.652-0.21,1.478-0.265,2.252-0.313C685.567,51.055,686.813,51.085,688.091,51.199z M690.829,67.101
		c0.357,1.012,0.787,2.021,1.253,3.02c-1.153-0.727-2.555-1.219-3.986-1.559c-1.189-0.283-2.368-0.433-3.55-0.621
		c-0.615-0.098-2.6-0.27-3.116-0.65c-0.308-0.678-0.618-1.355-0.925-2.032c0.452-0.183,0.92-0.356,1.401-0.515
		c0.271-0.094,0.288-0.337,0.146-0.546c1.145,0.562,2.378,1.046,3.729,1.415c0.064,0.259,0.287,0.566,0.642,0.744
		C687.808,67.047,689.474,67.235,690.829,67.101z M690.155,78.454c-0.312,0.558,0.615,1.314,1.525,1.142
		c0.99-0.187,1.184-0.946,0.671-1.722c-0.62-0.939-1.962-1.546-3.281-1.778c-0.703-0.125-1.825,0.014-2.472-0.265
		c-1.92-0.825-0.281-1.404,0.757-1.581c2.126-0.358,4.362-0.565,6.425-1.005c0.52,0.85,1.069,1.686,1.699,2.473
		c-0.215,2.457-1.043,7.078-5.649,6.501c-0.28-0.366-1.041-0.619-1.304-0.279c-1.477-0.433-3.268-1.312-5.448-2.817
		c-2.949-2.033-4.467-5.135-5.706-7.55c-2.289-4.467-3.2-8.556-1.693-12.327c1.525,1.804,3.402,3.391,5.702,4.624
		c-0.031-0.003-0.063-0.009-0.099-0.007c-2.316,0.184-5.104,1.469-2.6,3.596c1.174,0.998,3.09,1.527,4.625,1.855
		c3.143,0.672,5.813,0.703,8.527,2.605c0.171,0.12,0.354,0.193,0.534,0.25c-2.093,0.071-4.159,0.248-6.15,0.473
		c-1.521,0.172-2.947,0.565-3.237,1.665c-0.234,0.878,0.443,1.923,1.785,2.597c0.654,0.33,1.377,0.518,2.084,0.635
		C687.218,77.597,690.55,77.752,690.155,78.454z M685.306,81.952c-2.219-0.271-4.254-1.14-6.095-2.633
		c-2.099-1.54-3.708-3.225-4.827-5.055c-1.508-2.337-2.121-4.709-2.479-6.992c-0.696-4.427,0.188-8.336,0.938-12.368
		c0.595,1.176,1.281,2.326,2.091,3.405c-4.138,4.949-1.006,15.703,6.834,21.568C682.813,80.659,684.024,81.376,685.306,81.952z
		 M687.468,64.827c-14.819-4.708-16.26-19.581-15.09-26.826c1.283-7.948,6.503-19.567,23.193-13.886
		c0.297,0.305,0.621,0.699,0.947,1.133c-12.138-3.768-19.332,8.255-20.846,13.665c-2.015,7.19-1.459,19.642,13.861,23.808
		c0.238,0.99,0.519,2.006,0.841,3.031c-0.735-0.109-1.471-0.221-2.203-0.332C688.091,65.191,687.858,64.952,687.468,64.827z
		 M691.144,58.69c-1.129-6.181-3.602-23.457,10.998-20.222c-8.716,0.906-7.714,13.26-7.066,18.202
		c0.645,4.963,1.43,10.125,3.893,15.257c0.95,1.981,3.373,6.48,6.548,9.139C694.646,76.306,692.386,65.495,691.144,58.69z
		 M710.337,51.701c0.75,3.641,1.39,7.267,1.92,10.877c0.053,0.364,0.105,0.731,0.156,1.096c-0.008-0.015-0.011-0.03-0.023-0.046
		c-0.406-0.574-0.986-0.914-1.625-1.111c-0.116-0.283-0.479-0.586-0.932-0.651c-2.115-0.321-4.025-0.163-6.06-0.235
		c-1.202-0.043-3.13-0.27-2.198-1.541c0.367-0.5,1.357-0.719,2.133-0.879c2.472-0.511,6.053-0.502,6.549-2.57
		c0.036-0.162-0.048-0.308-0.191-0.425c0.214-0.92-0.987-1.973-2.479-2.543c-0.998-0.382-2.004-0.483-2.967-0.486
		c-0.637-0.002-1.232,0.064-1.852,0.095c-0.481,0.023-1.435-0.104-2.032-0.054c-0.069-2.383,2.939-2.458,5.5-3.265
		c1.437-0.45,2.784-1.072,2.765-2.281c0.131-0.054,0.245-0.132,0.308-0.259c0.524-1.05-1.708-2.323-3.175-2.747
		c-2.113-0.612-3.93-0.205-5.409,0.359c-0.587,0.224-0.121,1.151,0.745,1.05c1.092-0.127,2.346-0.4,3.604-0.161
		c1.284,0.243,1.683,0.842,2.544,1.427c-0.941,0.438-1.922,0.829-3.087,1.074c-1.296,0.277-2.702,0.435-3.907,0.818
		c-2.008,0.639-3.717,2.245-1.986,4.176c0.273,0.398,0.767,0.805,1.342,1.04c1.113,0.454,2.342,0.515,3.399,0.504
		c0.907-0.011,1.821-0.205,2.799-0.04c1.161,0.197,1.495,0.682,2.039,1.331c0.056,0.068,0.149,0.115,0.229,0.171
		c-2.763,1.566-9.881,0.452-9.611,3.97c0.242,3.151,6.572,3.162,10.014,2.839c1.061,0.245,2.33,1.163,1.082,1.556
		c-0.555,0.175-1.369,0.141-2.024,0.173c-0.919,0.048-1.809,0.129-2.638,0.312c-1.709,0.378-3.593,1.209-4.107,2.441
		c-0.316,0.76,0.061,1.819,1.531,2.293c1.035,0.334,2.073,0.113,3.021,0.124c1.344,0.017,2.701,0.222,4.068,0.398
		c0.098,0.087,0.189,0.194,0.279,0.356c0.401,0.722-0.432,0.486-1.207,0.545c-1.224,0.093-2.459,0.17-3.666,0.288
		c-1.304,0.13-2.609,0.33-2.9,1.273c-0.242,0.794,0.445,1.738,1.74,2.264c0.916,0.37,1.763,0.306,2.662,0.466
		c1.354,0.238,2.076,0.869,3.104,1.563c0.771,0.525,1.816,0.296,1.496-0.379c-0.57-1.201-2.441-2.187-4.117-2.59
		c-0.473-0.111-1.2-0.072-1.618-0.233c-1.155-0.452-0.017-0.671,0.46-0.793c1.245-0.318,2.978-0.271,4.363-0.416
		c1.312-0.136,2.904-0.307,2.347-1.577c-0.179-0.407-0.509-0.731-0.912-0.999c0.095-0.295-0.12-0.68-0.758-0.877
		c-1.509-0.465-2.961-0.646-4.438-0.748c-0.782-0.053-1.686,0.059-2.47-0.059c-0.819-0.125-1.013,0.104-0.472-0.551
		c1.413-1.716,4.734-1.268,7.229-1.853c0.802-0.187,1.459-0.601,1.71-1.155c0.346,2.453,0.65,4.905,0.802,7.32
		c0.172,2.768,0.313,13.815-8.781,5.402c-6.033-5.584-6.586-13.537-7.414-19.174c-0.82-5.599-2.537-18.072,6.897-19.159
		c0.089,0.059,0.188,0.119,0.308,0.166C709.878,41.729,709.741,48.809,710.337,51.701z M660.509,87.999
		c-6.232-8.341-9.226-17.148-11.771-25.525c-2.507-8.255-4.94-16.424-4.513-24.251c0.751-13.648,2.866-37.132,29.941-32.963
		c10.61,1.634,22.046,6.494,28.301,13.726c6.316,7.307,6.273,15.135,6.385,22.133c-0.678-0.813-1.568-1.55-2.828-2.175
		c-0.095-0.139-0.259-0.274-0.497-0.318c-0.042-0.007-0.078-0.01-0.116-0.016c1.318-9.995-6.521-27.012-26.924-27.195
		c-21.25-0.192-20.48,20.68-20.313,32.2c0.129,8.975,1.814,18.264,5.011,27.659c2.202,6.475,4.743,14.092,12.81,19.717
		c16.426,11.458,29.717,1.482,28.054-8.908c0.868,0.338,1.788,0.626,2.75,0.862c3.854,8.854-1.769,16.841-11.442,20.077
		C682.517,107.316,667.501,97.358,660.509,87.999z"/>
	<g>
		<path fill="#3C3C3B" d="M765.509,56.7c0.111-0.253,0.007-0.471-0.164-0.57c-0.227-0.747-0.797-1.496-1.325-2.05
			c-0.563-0.591-1.278-0.997-2.102-1.048c-0.236-0.015-0.388,0.099-0.457,0.258c-0.111,0.034-0.202,0.113-0.223,0.256
			c-0.513,3.516-2.083,7.022-5.185,8.877c-0.096-1.721-0.968-3.314-2.607-4.087c-2.984-1.406-6.64,0.751-8.725-2.618
			c-0.182-0.293-0.702-0.249-0.79,0.071c-0.118,0.058-0.215,0.168-0.224,0.316c-0.06,1.022,0.084,2.247,0.417,3.468
			c-7.562-0.955-12.765,5.607-13.089,12.949c-0.141,3.163,0.465,6.355-0.137,9.499c-0.461,2.402-1.566,4.609-2.227,6.953
			c-0.872,3.098-0.938,6.478,1.535,8.871c2.09,2.023,5.372,2.746,8.061,1.588c3.521-1.518,4.854-5.434,7.232-8.125
			c5.431-6.144,16.107-5.618,16.082-15.718c0.76,0.747,1.345,1.616,1.93,2.646c0.031,0.055,0.073,0.097,0.119,0.131
			c0.173,0.24,0.65,0.223,0.744-0.125c1.357-5.038-1.285-10.589-6.062-12.629C761.233,63.167,763.966,60.206,765.509,56.7z
			 M746.186,88.691c-4.245,3.396-7.318,13.623-14.237,8.673c-4.061-2.905-2.01-7.688-0.712-11.473c0.892-2.6,1.343-5.051,1.338-7.81
			c-0.008-3.854-0.506-7.617,1.235-11.228c1.988-4.121,6.114-6.608,10.639-6.262c0.773,2.11,2.133,4.036,4.057,4.667
			c-1.4,0.382-2.63,1.283-3.643,2.403c-0.878,0.971-1.607,2.094-2.607,2.949c-0.922,0.789-2.195,0.762-3.021,1.527
			c-0.329,0.305-0.182,0.947,0.274,1.039c0.028,0.006,0.058,0.012,0.087,0.018c0.08,0.016,0.168,0.012,0.253-0.004
			c4.407,1.471,10.661,1.059,13.3-3.154c0.36,0.936,1.246,1.663,2.365,2.227c1.431,0.719,2.954,1.239,4.35,2.032
			c0.184,0.104,0.354,0.214,0.521,0.323c-0.075,0.102-0.13,0.223-0.126,0.387C760.479,84.128,751.669,84.306,746.186,88.691z
			 M756.956,65.077c-0.156,0.127-0.218,0.277-0.216,0.424c-0.155,0.249-0.149,0.601,0.168,0.759
			c4.101,2.048,6.437,5.315,6.701,9.594c-0.579-0.869-1.403-1.6-2.273-2.185c-2.01-1.348-7.888-2.392-7.306-5.645
			c0.074-0.416-0.548-0.77-0.744-0.314c-0.063,0.146-0.114,0.288-0.158,0.428c-3.212,3.857-7.008,5.411-11.873,4.572
			c1.082-0.448,1.969-1.08,2.859-2.08c0.752-0.844,1.378-1.797,2.163-2.611c1.299-1.347,2.662-1.858,4.402-2.41
			c0.13-0.042,0.176-0.14,0.175-0.238c0.381-0.145,0.31-0.74-0.071-0.855c-1.924-0.586-3.469-1.102-4.634-2.875
			c-0.276-0.418-0.488-0.859-0.676-1.309c0.055-0.21-0.011-0.453-0.22-0.549c-0.241-0.691-0.411-1.406-0.548-2.132
			c0.648,0.704,1.614,1.132,2.631,1.331c1.229,0.24,2.476,0.056,3.711,0.158c2.441,0.201,3.789,1.592,4.03,3.929
			c-0.061,0.151-0.021,0.323,0.081,0.465c0.07,0.157,0.211,0.236,0.359,0.251c0.01,0.002,0.02,0.003,0.029,0.004
			c0.011,0,0.021,0.002,0.031,0.001c0.049,0.007,0.099,0.013,0.15,0.004c1.986-0.319,3.5-2.396,4.471-4.024
			c1.029-1.724,1.627-3.629,1.77-5.62c0.52,0.232,0.949,0.572,1.314,1.021c0.416,0.509,0.659,1.136,1.094,1.627l0.002,0.001
			C762.131,59.812,759.904,62.673,756.956,65.077z"/>
		<path fill="#3C3C3B" d="M736.714,92.358c-0.229-0.176-0.505-0.133-0.719,0.043c-0.404,0.334-0.627,0.816-0.625,1.342
			c0.002,0.549,0.236,0.957,0.667,1.276c0.31,0.229,0.772-0.151,0.652-0.501c-0.169-0.492-0.156-1.029,0.165-1.455
			C737.019,92.848,736.907,92.509,736.714,92.358z"/>
		<path fill="#3C3C3B" d="M740.561,90.913c-0.044-0.322-0.55-0.443-0.748-0.197c-0.36,0.446-0.538,0.994-0.893,1.442
			c-0.432,0.544,0.276,1.312,0.783,0.783C740.243,92.378,740.67,91.719,740.561,90.913z"/>
		<path fill="#3C3C3B" d="M736.692,87.899c-0.404-0.09-0.727,0.32-0.531,0.689c0.128,0.238,0.367,0.373,0.481,0.621
			c0.115,0.249,0.101,0.498,0.078,0.764c-0.034,0.389,0.577,0.555,0.745,0.202C737.798,89.478,737.588,88.096,736.692,87.899z"/>
		<path fill="#3C3C3B" d="M741.928,64.121c-0.917,0.48-1.8,1.621-1.44,2.696c0.152,0.455,0.756,0.443,0.913,0
			c0.251-0.705,0.355-1.392,1.026-1.841C742.956,64.623,742.495,63.822,741.928,64.121z"/>
		<path fill="#3C3C3B" d="M742.343,66.581c-0.145,0.451-0.311,0.834-0.679,1.149c-0.334,0.285-0.767,0.473-1.181,0.608
			c-0.504,0.165-0.377,0.833,0.121,0.887c1.326,0.143,2.628-1.219,2.59-2.529C743.179,66.203,742.493,66.114,742.343,66.581z"/>
		<path fill="#3C3C3B" d="M738.19,65.358c-1.128,0.264-2.172,1.51-1.78,2.704c0.187,0.569,0.955,0.435,1.009-0.138
			c0.068-0.711,0.268-1.445,0.996-1.746C738.909,65.976,738.739,65.229,738.19,65.358z"/>
	</g>
	<path fill="#3C3C3B" d="M745.341,50.85c1.549,0.089,2.904-0.395,4.049-1.22c0.04,0.065,0.099,0.124,0.196,0.162
		c2.501,1.008,5.674-0.884,7.021-2.984c1.665,3.752,2.184,8.905,2.832,11.964c-0.043,0.167,0.013,0.362,0.127,0.505
		c0.025,0.046,0.062,0.077,0.103,0.095c0.117,0.089,0.264,0.131,0.428,0.064c3.481-1.437,5.824-3.243,4.294-7.106
		c-1.103-2.785-2.831-5.37-4.94-7.587c0.715-0.58,0.952-2.007,1.045-2.87c0.027-0.267,0.063-0.565-0.066-0.801
		c4.572-1.328,6.364-6.474,4.142-11.793c-1.884-4.51-5.079-8.688-8.325-12.304c-1.881-2.096-5.835-7.452-9.046-7
		c-4.632-3.85-10.042-6.713-14.128-3.848c-1.869-1.059-4.039-1.739-5.771-0.142c-1.439,1.328-1.793,3.233-1.529,5.348
		c-0.069-0.036-0.15-0.049-0.233-0.021c-2.809,0.948-1.657,7.847-1.325,9.798c0.842,4.955,2.111,10.113,4.475,14.578
		c1.387,2.618,3.524,5.197,6.063,7.155c-0.12,0.059-0.201,0.183-0.097,0.313C737.308,46.441,740.755,50.584,745.341,50.85z
		 M756.212,46.296c-0.863,0.92-1.847,1.652-3.031,2.104c-0.968,0.369-1.895,0.348-2.859,0.444c1.318-1.3,2.266-3.068,2.786-4.815
		c0.05-0.171-0.013-0.311-0.124-0.403c0.13-0.148,0.267-0.292,0.383-0.453c0.07-0.097,0.088-0.216,0.072-0.331
		c1.226,0.7,2.153,1.912,2.887,3.381C756.284,46.238,756.244,46.261,756.212,46.296z M753.308,39.938
		c-0.297-0.167-0.637,0.287-0.354,0.499c2.883,2.162,5.511,4.475,7.622,7.427c0.865,1.211,1.653,2.483,2.31,3.82
		c1.492,3.051-0.205,5.274-2.826,6.615c-0.08-5.07-1.725-17.201-7.84-16.953c-0.559,0.023-0.634,0.842-0.088,0.972
		c0.236,0.057,0.459,0.134,0.678,0.221c-0.746,0.611-1.445,1.249-2.213,1.818c0.047-0.331,0.151-0.657,0.32-0.978
		c0.125-0.279,0.001-0.657-0.333-0.714c-0.653-0.114-1.308-0.229-1.962-0.344c0.647-0.358,1.293-0.723,1.928-1.098
		c0.311-0.185,0.957-0.418,1.036-0.858c0.116-0.635-0.677-1.278-1.394-1.772c0.667-0.053,1.314,0.056,2,0.384
		c0.359,0.171,0.715-0.085,0.732-0.462c0.029-0.638,0.121-1.244,0.251-1.845c0.218,0.447,0.45,0.884,0.749,1.292
		c0.039,0.053,0.102,0.069,0.159,0.06c0.089,0.172,0.323,0.277,0.516,0.174c0.433-0.229,0.829-0.557,1.208-0.911
		c-0.183,0.433-0.395,0.855-0.647,1.264c-0.139,0.22,0.001,0.477,0.189,0.602c0.428,0.284,0.803,0.61,1.148,0.969
		c-0.091-0.014-0.179-0.019-0.271-0.036c-0.281-0.052-0.49,0.086-0.599,0.282c-0.321-0.002-0.647-0.037-0.987-0.101
		c-0.188-0.035-0.325,0.101-0.354,0.253C753.963,40.318,753.637,40.123,753.308,39.938z M759.342,42.857
		c-0.134,0.418-0.38,0.882-0.446,1.334c-1.152-1.143-2.397-2.188-3.717-3.089c0.26,0.066,0.525,0.094,0.793,0.106
		c0.002,0,0.004,0.002,0.005,0.002c1.399,0.252,2.665,0.241,3.788,0.019c0.016,0.013,0.028,0.03,0.049,0.037
		C759.812,41.573,759.396,42.688,759.342,42.857z M747.712,10.407c2.201,0.881,4.469,3.705,5.952,5.237
		c2.404,2.485,4.593,5.18,6.517,8.053c1.563,2.333,3.286,4.942,3.998,7.687c1.34,5.171-1.593,8.917-6.314,8.854
		c-0.499-0.645-1.061-1.169-1.717-1.62c0.42-0.729,0.747-1.483,0.983-2.284c0.051,0.008,0.097,0.022,0.157,0.018
		c3.007-0.256,5-2.65,5.217-5.637c0.347-4.748-4.109-8.939-6.936-12.246C753.971,16.602,751.072,13.288,747.712,10.407z
		 M735.202,7.512c-0.399-0.282-0.845-0.593-1.318-0.897c6.448-1.434,12.645,4.091,16.91,8.39c2.646,2.668,5.173,5.584,7.431,8.583
		c2.325,3.086,5.849,10.982-0.981,11.563c-0.072,0.006-0.129,0.03-0.186,0.053c-0.176-0.085-0.408-0.071-0.574,0.084
		c-0.598,0.562-1.303,1.119-1.865,1.753c2.208-6.694-4.111-14.374-8.047-19.074C743.258,14.007,739.427,10.481,735.202,7.512z
		 M727.316,8.724c1.758-4.813,6.773-0.566,8.382,0.62c1.175,0.866,2.315,1.781,3.419,2.735c2.907,2.507,5.572,5.3,7.935,8.327
		c3.645,4.673,7.387,10.078,6.917,16.206c-0.13-0.477-0.299-0.944-0.483-1.43c-0.126-0.334-0.698-0.492-0.855-0.079
		c-0.34,0.891-0.537,1.785-0.641,2.715c-1.058-0.369-2.115-0.373-3.234,0.019c-0.348,0.122-0.523,0.615-0.203,0.876
		c0.242,0.197,0.486,0.394,0.728,0.59c-6.788-0.24-11.667-7.386-14.921-12.586c-1.663-2.663-3.129-5.455-4.502-8.278
		C728.667,15.997,726.266,11.599,727.316,8.724z M729.049,33.908c-1.555-3.394-2.513-7.024-3.282-10.668
		c-0.131-0.623-1.325-11.731-0.074-11.242c0.058,0.023,0.119,0.016,0.18-0.004c0.853,4.748,4.484,10.342,5.945,12.89
		c3.568,6.236,9.749,15.906,18.021,15.546c-0.982,0.593-2.003,1.123-2.99,1.713c-0.363,0.217-0.283,0.853,0.158,0.924
		c0.932,0.15,1.863,0.313,2.793,0.473c-0.004,0.014-0.005,0.026-0.008,0.038c-0.027,0.006-0.055,0.008-0.08,0.021
		C740.856,47.817,732.806,42.109,729.049,33.908z M749.618,44.513c-0.018,0.251-0.019,0.51,0.008,0.796
		c0.033,0.367,0.428,0.608,0.759,0.404c0.454-0.282,0.897-0.584,1.325-0.906c-2.07,3.629-4.844,6.313-9.439,3.938
		c-2.301-1.19-4.189-3.172-6.137-4.925C740.238,46.464,745.15,47.4,749.618,44.513z"/>
	<path fill="#3C3C3B" d="M784.335,55.879c-2.881,0.041-3.461,4.134-3.537,7.63c-2.424-6.029-7.15-16.104-10.959-12.479
		c-1.692,1.61-0.805,5.147-0.13,7.019c0.691,1.91,1.675,3.694,2.827,5.346c-0.58-0.447-1.169-0.882-1.773-1.289
		c-1.772-1.191-5.676-4.288-7.688-1.792c-3.309,4.106,3.204,8.612,8.166,11.095c-4.813-0.163-11.297,0.371-10.282,4.95
		c0.471,2.121,2.843,2.311,4.454,2.494c2.772,0.317,5.502-0.151,8.053-1.296c-1.277,3.997-1.186,8.349,1.287,12.071
		c6.753,10.155,18.791,2.492,26.711,8.618c0.338,0.39,0.696,0.77,1.106,1.128c0.096,0.083,0.195,0.134,0.295,0.161
		c0.046,0.051,0.095,0.093,0.141,0.145c0.335,0.373,0.918-0.104,0.717-0.552c0.156-0.279,0.166-0.642-0.136-0.938
		c-7.753-7.652,0.409-20.859-6.378-29.1c-2.893-3.512-6.884-4.609-10.745-3.951C787.187,62.017,787.976,55.827,784.335,55.879z
		 M771.233,53.353c0.566-1.381,1.185-1.511,1.853-0.39c0.885,0.7,1.597,1.582,2.139,2.646c0.629,0.996,1.171,2.068,1.716,3.12
		c1.459,2.822,2.708,5.739,3.832,8.743c-0.797,0.539-1.553,1.152-2.251,1.84c-0.007-0.017-0.019-0.034-0.026-0.052
		c0.084-0.122,0.101-0.294-0.039-0.438C776.12,66.438,767.464,56.812,771.233,53.353z M766.094,66.163
		c-0.278-0.292-0.559-0.584-0.837-0.877c-0.246-3.424,0.346-4.647,1.773-3.672c1.76,0.295,4.046,2.453,5.426,3.579
		c1.449,1.183,3.894,3.052,4.902,4.929c0,0.036-0.002,0.072-0.002,0.107c-0.002,0.104,0.02,0.195,0.057,0.273
		c-0.406,0.479-0.792,0.983-1.161,1.506c-0.083-0.119-0.192-0.217-0.341-0.259c-2.186-0.604-4.293-1.448-6.242-2.712
		C768.534,68.303,766.922,67.318,766.094,66.163z M768.487,77.585c-1.16,0.064-2.327-0.007-3.473-0.205
		c-1-0.17-4.84-0.81-1.024-3.639c1.216-0.902,4.056-0.614,5.471-0.678c2.007-0.088,3.998-0.012,5.997,0.158
		c-0.598,0.984-1.123,2.02-1.55,3.092C772.146,76.975,770.369,77.479,768.487,77.585z M798.52,81.267
		c-0.124,4.777-0.653,9.922,1.146,14.096c-3.942-1.955-8.831-1.072-13.354-1.33c-5.001-0.287-10.295-3.047-11.808-8.806
		c-1.301-4.94,1.332-10.38,4.392-13.813c3.326-3.734,8.063-5.793,12.746-4.125C797.438,69.354,798.676,75.28,798.52,81.267z
		 M785.438,59.638c0.132,0.776,0.133,1.553,0.006,2.332c-0.085,1.281-0.316,2.372-0.643,3.57c-0.871,0.265-1.723,0.615-2.547,1.049
		c-0.056-2.584-0.219-5.434,1.717-6.942C785.09,58.116,785.579,58.112,785.438,59.638z"/>
	<path fill="#3C3C3B" d="M764.232,40.182c-0.07,0.064-0.127,0.14-0.146,0.227c-0.515,2.279-0.204,5.775,1.854,7.02
		c-2.138,3.011-3.092,6.711-3.428,10.5c-0.28,3.156,0.396,4.638,3.39,4.84c0.069,0.005,0.132-0.01,0.19-0.028
		c0.26,0.121,0.639-0.045,0.699-0.428c0.748-4.535,0.873-9.187,1.649-13.749c2.233,1.38,4.914,1.375,7.253,0.139
		c0.421-0.223,0.465-0.843,0.117-1.156c-0.077-0.068-0.158-0.129-0.236-0.196c7.398-1.708,10.77-10.859,12.49-18.247
		c1.587-6.809,2.241-16.761,10.616-16.27c5.475,0.321,9.085,4.915,10.709,10.358c-0.031,0.087-0.019,0.197,0.052,0.268
		c0.014,0.014,0.028,0.028,0.042,0.043c0.01,0.028,0.019,0.056,0.026,0.083c0.057,0.201,0.186,0.277,0.322,0.267
		c0.002,0.001,0.003,0.003,0.004,0.004c0.093,0.092,0.248,0.092,0.356,0.039c4.354-2.127,1.131-11.016-0.913-13.695
		c-4.652-6.098-12.572-6.545-19.059-4.32c-7.283,2.5-12.083,6.784-14.886,14.728c-0.836,2.373-1.588,4.812-2.902,6.925
		c-1.354,2.179-3.239,3.313-4.997,4.946C765.221,34.539,763.757,36.937,764.232,40.182z M768.341,47.458
		c-0.359-0.167-0.677,0.335-0.508,0.657c-0.023,0.031-0.043,0.064-0.055,0.106c-1.149,4.144-2.211,8.964-1.975,13.354
		c-4.868-0.922-0.334-11.476,1.349-13.84c0.347-0.486-0.063-1.003-0.491-0.982c-0.008-0.015-0.011-0.035-0.02-0.05
		c-0.505-0.865-1.144-1.473-1.467-2.493c-0.279-0.89-0.348-1.859-0.191-2.792c1.273,0.564,2.174,1.695,2.57,3.183
		c-0.001,0.264,0.027,0.526,0.1,0.775c0.121,0.423,0.723,0.368,0.848-0.031c0.2-0.642,0.197-1.313,0.428-1.955
		c0.139-0.391,0.32-0.756,0.547-1.092c0.129-0.189,0.332-0.356,0.494-0.532c0,0.12,0.006,0.24-0.002,0.36
		c-0.014,0.366-0.051,0.731-0.109,1.091c-0.131,0.827-0.416,1.578-0.637,2.368c-0.368,0.266-0.332,1.059,0.189,1.053
		c1.783-0.022,3.328,0.281,4.763,1.268C772.226,48.564,770.261,48.357,768.341,47.458z M774.638,26.479
		c2.703-5.618,3.373-11.437,8.487-15.248c4.885-3.641,11.329-6.012,17.152-4.915c3.2,0.605,6.412,2.36,8.435,5.256
		c0.727,1.043,3.807,10.383,1.533,11.412c-0.672-8.469-10.424-15.076-17.284-10.347c-4.319,2.978-4.835,9.761-5.93,14.738
		c-1.852,8.426-4.688,15.955-12.343,19.312c-1.371-0.896-2.967-1.407-4.56-1.278c0.474-0.838,0.73-1.842,0.851-2.801
		c0.096-0.738,0.338-2.366-0.631-2.466c-0.835-0.086-1.693,1.255-2.07,1.951c-0.138,0.256-0.268,0.536-0.381,0.83
		c-0.438-1.143-1.269-2.065-2.309-2.57c0.016-0.087,0.026-0.178,0.011-0.283C764.886,34.459,772.446,31.035,774.638,26.479z"/>
</g>
</svg>
